<?xml version="1.0" encoding="utf-8"?>
<!-- Generator: Adobe Illustrator 23.0.1, SVG Export Plug-In . SVG Version: 6.00 Build 0)  -->
<svg version="1.1" id="Layer_1" xmlns="http://www.w3.org/2000/svg" xmlns:xlink="http://www.w3.org/1999/xlink" x="0px" y="0px"
	 viewBox="0 0 913 654" style="enable-background:new 0 0 913 654;" xml:space="preserve">
<style type="text/css">
	.st0{fill:#FFFFFF;}
	.st1{enable-background:new    ;}
	.st2{fill:#6C757D;}
	.st3{fill:#A08BCD;}
	.st4{fill:#1E88E5;}
	.st5{fill:#ED9E57;}
	.st6{fill:#CADBEC;}
	.st7{fill:#4B6C8B;}
	.st8{fill:#6F8BA9;}
	.st9{fill:none;stroke:#6F8BA9;stroke-dasharray:4;}
	.st10{fill:none;stroke:#A08BCD;stroke-width:3;}
	.st11{fill:none;stroke:#1E88E5;stroke-width:3;}
	.st12{fill:none;stroke:#ED9E57;stroke-width:3;}
</style>
<g transform="translate(4201 3317)">
	<rect x="-4201" y="-3317" class="st0" width="913" height="654"/>
	<g class="st1">
		<path class="st2" d="M-3306-3099l5.1-15.1h2.2l5.1,15.1h-2l-1.5-4.6h-5.5l-1.5,4.6H-3306z M-3302.1-3105.1h4.5l-0.7-2.3
			c-0.5-1.6-1-3.3-1.5-5.1h-0.1c-0.5,1.8-1,3.5-1.5,5.1L-3302.1-3105.1z"/>
	</g>
	<g class="st1">
		<path class="st2" d="M-3304-3074v-15.1h4.5c1.6,0,2.9,0.3,3.8,0.9c0.9,0.6,1.4,1.5,1.4,2.8c0,0.8-0.2,1.5-0.7,2.1s-1.1,1-2,1.2
			v0.1c2.3,0.4,3.5,1.6,3.5,3.6c0,1.4-0.5,2.5-1.5,3.3c-1,0.8-2.4,1.1-4.2,1.1H-3304z M-3302.1-3082.6h2.2c2.4,0,3.6-0.9,3.6-2.6
			c0-1.5-1.2-2.3-3.5-2.3h-2.3V-3082.6z M-3302.1-3075.5h2.6c2.7,0,4.1-1,4.1-3c0-1.8-1.4-2.7-4.1-2.7h-2.6V-3075.5z"/>
	</g>
	<g class="st1">
		<path class="st2" d="M-3304.9-2967.5c0-2.4,0.6-4.3,1.9-5.7s2.9-2.1,4.9-2.1c1.6,0,3,0.6,4.1,1.9l-1.1,1.2c-0.9-0.9-1.9-1.4-3-1.4
			c-1.4,0-2.6,0.5-3.5,1.6c-0.9,1.1-1.3,2.6-1.3,4.5c0,1.9,0.4,3.4,1.3,4.5c0.8,1.1,2,1.7,3.4,1.7c1.3,0,2.5-0.6,3.4-1.7l1.1,1.2
			c-1.2,1.5-2.8,2.2-4.6,2.2c-1.9,0-3.5-0.7-4.8-2.1C-3304.3-2963.2-3304.9-2965.1-3304.9-2967.5z"/>
	</g>
	<g class="st1">
		<path class="st2" d="M-3661.5-2669.6l0.8-1.1c1,1,2,1.5,3.3,1.5c0.8,0,1.4-0.2,1.9-0.6s0.7-1,0.7-1.7c0-1.7-1.4-2.5-4.1-2.5v-1.2
			c2.4,0,3.6-0.8,3.6-2.4c0-0.6-0.2-1.1-0.6-1.5c-0.4-0.4-0.9-0.5-1.6-0.5c-0.9,0-1.8,0.4-2.7,1.3l-0.9-1c1.1-1.1,2.4-1.6,3.7-1.6
			c1.1,0,2.1,0.3,2.8,0.9s1.1,1.4,1.1,2.4c0,1.4-0.8,2.5-2.3,3v0.1c0.8,0.2,1.5,0.6,2,1.1c0.5,0.6,0.8,1.3,0.8,2.1
			c0,1.1-0.4,2-1.2,2.7c-0.8,0.7-1.8,1-3,1C-3659-2667.8-3660.4-2668.4-3661.5-2669.6z"/>
		<path class="st2" d="M-3650.5-2668v-1.3h2.9v-9.4h-2.3v-1.1c1.1-0.2,2-0.5,2.7-0.9h1.3v11.4h2.6v1.3H-3650.5z"/>
		<path class="st2" d="M-3641.9-2664.8l5.4-17l1.3-0.4l-5.4,17L-3641.9-2664.8z"/>
		<path class="st2" d="M-3633.2-2669.5c-0.7-1.2-1.1-2.8-1.1-4.9s0.4-3.7,1.1-4.9s1.7-1.7,3-1.7c1.3,0,2.3,0.6,3,1.7
			s1.1,2.8,1.1,4.9s-0.4,3.8-1.1,4.9s-1.7,1.7-3,1.7C-3631.5-2667.8-3632.5-2668.3-3633.2-2669.5z M-3632.7-2674.4
			c0,1.8,0.2,3.1,0.7,4c0.4,0.9,1.1,1.3,1.8,1.3c0.8,0,1.4-0.4,1.8-1.3c0.4-0.9,0.7-2.2,0.7-4c0-3.5-0.8-5.3-2.5-5.3
			C-3631.8-2679.7-3632.7-2677.9-3632.7-2674.4z"/>
		<path class="st2" d="M-3623.6-2668v-1.3h2.9v-9.4h-2.3v-1.1c1.1-0.2,2-0.5,2.7-0.9h1.3v11.4h2.6v1.3H-3623.6z"/>
		<path class="st2" d="M-3615.1-2664.8l5.4-17l1.3-0.4l-5.4,17L-3615.1-2664.8z"/>
		<path class="st2" d="M-3607.6-2679.1c1.2-1.3,2.5-1.9,3.9-1.9c1.2,0,2.1,0.3,2.8,1s1,1.6,1,2.7c0,1.1-0.4,2.2-1.2,3.4
			c-0.8,1.1-2.1,2.7-4,4.6c0.9-0.1,1.6-0.1,2.1-0.1h3.7v1.4h-8.3v-1c1.1-1.1,2-2,2.6-2.6c0.6-0.7,1.2-1.3,1.8-2.1
			c0.6-0.7,1-1.4,1.2-1.9s0.4-1.1,0.4-1.6c0-0.8-0.2-1.4-0.6-1.8c-0.4-0.5-1-0.7-1.8-0.7c-0.9,0-1.8,0.5-2.7,1.5L-3607.6-2679.1z"/>
		<path class="st2" d="M-3596.4-2669.5c-0.7-1.2-1.1-2.8-1.1-4.9s0.4-3.7,1.1-4.9s1.7-1.7,3-1.7c1.3,0,2.3,0.6,3,1.7
			s1.1,2.8,1.1,4.9s-0.4,3.8-1.1,4.9s-1.7,1.7-3,1.7C-3594.7-2667.8-3595.7-2668.3-3596.4-2669.5z M-3595.9-2674.4
			c0,1.8,0.2,3.1,0.7,4c0.4,0.9,1.1,1.3,1.8,1.3c0.8,0,1.4-0.4,1.8-1.3c0.4-0.9,0.7-2.2,0.7-4c0-3.5-0.8-5.3-2.5-5.3
			C-3595.1-2679.7-3595.9-2677.9-3595.9-2674.4z"/>
		<path class="st2" d="M-3586.8-2668v-1.3h2.9v-9.4h-2.3v-1.1c1.1-0.2,2-0.5,2.7-0.9h1.3v11.4h2.6v1.3H-3586.8z"/>
		<path class="st2" d="M-3577.7-2671.2c0-1.4,0.8-2.6,2.4-3.4v-0.1c-1.2-0.8-1.8-1.8-1.8-2.9c0-1,0.3-1.8,1-2.4
			c0.7-0.6,1.6-0.9,2.6-0.9c1.1,0,2,0.3,2.6,0.9c0.7,0.6,1,1.4,1,2.4c0,0.6-0.2,1.2-0.5,1.7c-0.4,0.5-0.8,1-1.2,1.4v0.1
			c0.7,0.4,1.2,0.8,1.6,1.3c0.4,0.5,0.6,1.1,0.6,1.9c0,1-0.4,1.8-1.1,2.4c-0.8,0.6-1.8,1-3,1c-1.2,0-2.2-0.3-3-1
			C-3577.3-2669.4-3577.7-2670.2-3577.7-2671.2z M-3576.2-2671.4c0,0.7,0.3,1.3,0.8,1.8s1.2,0.7,2,0.7c0.7,0,1.3-0.2,1.8-0.6
			c0.5-0.4,0.7-1,0.7-1.6c0-0.3-0.1-0.6-0.2-0.9c-0.1-0.3-0.3-0.5-0.4-0.7s-0.4-0.4-0.8-0.6c-0.4-0.2-0.7-0.4-0.9-0.4
			s-0.6-0.2-1.1-0.5C-3575.6-2673.4-3576.2-2672.5-3576.2-2671.4z M-3575.5-2677.7c0,0.7,0.3,1.2,0.7,1.6c0.5,0.4,1.2,0.8,2.2,1.1
			c0.9-0.8,1.3-1.6,1.3-2.6c0-0.7-0.2-1.2-0.6-1.6c-0.4-0.4-0.9-0.6-1.6-0.6c-0.6,0-1.1,0.2-1.5,0.6
			C-3575.3-2678.8-3575.5-2678.3-3575.5-2677.7z"/>
		<path class="st2" d="M-3563.7-2672.4v-1.2h4.6v1.2H-3563.7z"/>
		<path class="st2" d="M-3553.8-2669.6l0.8-1.1c1,1,2,1.5,3.3,1.5c0.8,0,1.4-0.2,1.9-0.6s0.7-1,0.7-1.7c0-1.7-1.4-2.5-4.1-2.5v-1.2
			c2.4,0,3.6-0.8,3.6-2.4c0-0.6-0.2-1.1-0.6-1.5c-0.4-0.4-0.9-0.5-1.6-0.5c-0.9,0-1.8,0.4-2.7,1.3l-0.9-1c1.1-1.1,2.4-1.6,3.7-1.6
			c1.1,0,2.1,0.3,2.8,0.9s1.1,1.4,1.1,2.4c0,1.4-0.8,2.5-2.3,3v0.1c0.8,0.2,1.5,0.6,2,1.1c0.5,0.6,0.8,1.3,0.8,2.1
			c0,1.1-0.4,2-1.2,2.7c-0.8,0.7-1.8,1-3,1C-3551.3-2667.8-3552.7-2668.4-3553.8-2669.6z"/>
		<path class="st2" d="M-3542.8-2668v-1.3h2.9v-9.4h-2.3v-1.1c1.1-0.2,2-0.5,2.7-0.9h1.3v11.4h2.6v1.3H-3542.8z"/>
		<path class="st2" d="M-3534.2-2664.8l5.4-17l1.3-0.4l-5.4,17L-3534.2-2664.8z"/>
		<path class="st2" d="M-3525.5-2669.5c-0.7-1.2-1.1-2.8-1.1-4.9s0.4-3.7,1.1-4.9s1.7-1.7,3-1.7c1.3,0,2.3,0.6,3,1.7
			s1.1,2.8,1.1,4.9s-0.4,3.8-1.1,4.9s-1.7,1.7-3,1.7C-3523.8-2667.8-3524.8-2668.3-3525.5-2669.5z M-3525-2674.4
			c0,1.8,0.2,3.1,0.7,4c0.4,0.9,1.1,1.3,1.8,1.3c0.8,0,1.4-0.4,1.8-1.3c0.4-0.9,0.7-2.2,0.7-4c0-3.5-0.8-5.3-2.5-5.3
			C-3524.1-2679.7-3525-2677.9-3525-2674.4z"/>
		<path class="st2" d="M-3515.9-2668v-1.3h2.9v-9.4h-2.3v-1.1c1.1-0.2,2-0.5,2.7-0.9h1.3v11.4h2.6v1.3H-3515.9z"/>
		<path class="st2" d="M-3507.4-2664.8l5.4-17l1.3-0.4l-5.4,17L-3507.4-2664.8z"/>
		<path class="st2" d="M-3499.9-2679.1c1.2-1.3,2.5-1.9,3.9-1.9c1.2,0,2.1,0.3,2.8,1s1,1.6,1,2.7c0,1.1-0.4,2.2-1.2,3.4
			c-0.8,1.1-2.1,2.7-4,4.6c0.9-0.1,1.6-0.1,2.1-0.1h3.7v1.4h-8.3v-1c1.1-1.1,2-2,2.6-2.6c0.6-0.7,1.2-1.3,1.8-2.1
			c0.6-0.7,1-1.4,1.2-1.9s0.4-1.1,0.4-1.6c0-0.8-0.2-1.4-0.6-1.8c-0.4-0.5-1-0.7-1.8-0.7c-0.9,0-1.8,0.5-2.7,1.5L-3499.9-2679.1z"/>
		<path class="st2" d="M-3488.7-2669.5c-0.7-1.2-1.1-2.8-1.1-4.9s0.4-3.7,1.1-4.9s1.7-1.7,3-1.7c1.3,0,2.3,0.6,3,1.7
			s1.1,2.8,1.1,4.9s-0.4,3.8-1.1,4.9s-1.7,1.7-3,1.7C-3487-2667.8-3488-2668.3-3488.7-2669.5z M-3488.2-2674.4c0,1.8,0.2,3.1,0.7,4
			c0.4,0.9,1.1,1.3,1.8,1.3c0.8,0,1.4-0.4,1.8-1.3c0.4-0.9,0.7-2.2,0.7-4c0-3.5-0.8-5.3-2.5-5.3
			C-3487.3-2679.7-3488.2-2677.9-3488.2-2674.4z"/>
		<path class="st2" d="M-3479.1-2668v-1.3h2.9v-9.4h-2.3v-1.1c1.1-0.2,2-0.5,2.7-0.9h1.3v11.4h2.6v1.3H-3479.1z"/>
		<path class="st2" d="M-3470-2676.9c0-1.2,0.4-2.2,1.1-2.9c0.7-0.8,1.6-1.1,2.7-1.1c1.3,0,2.4,0.5,3.2,1.6s1.2,2.6,1.2,4.6
			c0,2.4-0.5,4.2-1.4,5.4s-2.1,1.7-3.5,1.7c-1.2,0-2.3-0.5-3.1-1.4l0.9-1c0.6,0.7,1.3,1,2.1,1c1,0,1.8-0.4,2.4-1.3s0.9-2.2,1-4.2
			c-0.4,0.5-0.9,0.9-1.4,1.2s-1.1,0.4-1.6,0.4c-1.1,0-2-0.3-2.7-1S-3470-2675.6-3470-2676.9z M-3468.4-2676.9c0,0.9,0.2,1.5,0.6,2
			s1,0.7,1.8,0.7c1,0,1.9-0.6,2.7-1.7c-0.2-2.5-1.2-3.8-2.8-3.8c-0.6,0-1.2,0.3-1.6,0.8S-3468.4-2677.7-3468.4-2676.9z"/>
		<path class="st2" d="M-3455.1-2668v-13.1h3.3c2,0,3.5,0.6,4.6,1.7c1.1,1.1,1.6,2.7,1.6,4.8c0,2.1-0.5,3.7-1.6,4.9
			c-1.1,1.2-2.6,1.7-4.5,1.7H-3455.1z M-3453.5-2669.3h1.5c1.5,0,2.7-0.5,3.4-1.4c0.8-0.9,1.2-2.2,1.2-3.9c0-1.7-0.4-3-1.2-3.8
			c-0.8-0.9-1.9-1.3-3.4-1.3h-1.5V-2669.3z"/>
		<path class="st2" d="M-3443.5-2670.5c0-1.1,0.5-1.9,1.4-2.4c1-0.6,2.5-1,4.6-1.2c0-1.6-0.7-2.5-2-2.5c-0.9,0-1.9,0.4-2.9,1.1
			l-0.7-1.2c1.3-0.8,2.6-1.2,3.8-1.2c1.1,0,2,0.3,2.5,1s0.8,1.7,0.8,3v6h-1.4l-0.1-1.2h0c-1.2,0.9-2.2,1.4-3.2,1.4
			c-0.8,0-1.5-0.2-2.1-0.7C-3443.2-2669-3443.5-2669.7-3443.5-2670.5z M-3441.8-2670.6c0,0.5,0.2,0.9,0.5,1.2s0.7,0.4,1.2,0.4
			c0.8,0,1.7-0.4,2.7-1.3v-2.7c-1.6,0.2-2.7,0.5-3.4,0.9C-3441.5-2671.8-3441.8-2671.3-3441.8-2670.6z"/>
		<path class="st2" d="M-3433.9-2676.4v-1.2l1.5-0.1l0.2-2.7h1.4v2.7h2.6v1.3h-2.6v5.4c0,0.6,0.1,1.1,0.3,1.4
			c0.2,0.3,0.6,0.5,1.2,0.5c0.3,0,0.6-0.1,1.1-0.3l0.3,1.2c-0.7,0.2-1.3,0.4-1.8,0.4c-1.8,0-2.8-1.1-2.8-3.2v-5.4H-3433.9z"/>
		<path class="st2" d="M-3426.8-2670.5c0-1.1,0.5-1.9,1.4-2.4c1-0.6,2.5-1,4.6-1.2c0-1.6-0.7-2.5-2-2.5c-0.9,0-1.9,0.4-2.9,1.1
			l-0.7-1.2c1.3-0.8,2.6-1.2,3.8-1.2c1.1,0,2,0.3,2.5,1s0.8,1.7,0.8,3v6h-1.4l-0.1-1.2h0c-1.2,0.9-2.2,1.4-3.2,1.4
			c-0.8,0-1.5-0.2-2.1-0.7C-3426.6-2669-3426.8-2669.7-3426.8-2670.5z M-3425.2-2670.6c0,0.5,0.2,0.9,0.5,1.2s0.7,0.4,1.2,0.4
			c0.8,0,1.7-0.4,2.7-1.3v-2.7c-1.6,0.2-2.7,0.5-3.4,0.9C-3424.9-2671.8-3425.2-2671.3-3425.2-2670.6z"/>
		<path class="st2" d="M-3413.1-2676.4v-1.2l1.3-0.1v-1.5c0-1,0.2-1.8,0.7-2.4s1.2-0.8,2.1-0.8c0.6,0,1.1,0.1,1.6,0.3l-0.4,1.3
			c-0.4-0.2-0.7-0.2-1.1-0.2c-0.9,0-1.4,0.6-1.4,1.9v1.5h2.1v1.3h-2.1v8.4h-1.6v-8.4H-3413.1z"/>
		<path class="st2" d="M-3406.3-2668v-9.7h1.4l0.1,1.8h0.1c0.3-0.6,0.7-1.1,1.2-1.5s1-0.5,1.5-0.5c0.4,0,0.7,0.1,1,0.2l-0.3,1.5
			c-0.3-0.1-0.7-0.2-0.9-0.2c-0.5,0-0.9,0.2-1.3,0.5s-0.8,0.9-1.1,1.7v6.2H-3406.3z"/>
		<path class="st2" d="M-3400.2-2672.9c0-1.6,0.4-2.8,1.3-3.7c0.9-0.9,1.9-1.4,3.2-1.4s2.3,0.5,3.2,1.4c0.9,0.9,1.3,2.2,1.3,3.7
			c0,1.6-0.4,2.8-1.3,3.7s-1.9,1.4-3.2,1.4s-2.3-0.5-3.2-1.4S-3400.2-2671.3-3400.2-2672.9z M-3398.6-2672.9c0,1.1,0.3,2,0.8,2.7
			c0.5,0.7,1.2,1,2,1c0.8,0,1.5-0.3,2-1c0.5-0.7,0.8-1.6,0.8-2.7c0-1.1-0.3-2-0.8-2.7c-0.5-0.7-1.2-1-2-1c-0.8,0-1.5,0.3-2,1
			C-3398.3-2674.9-3398.6-2674-3398.6-2672.9z"/>
		<path class="st2" d="M-3388.7-2668v-9.7h1.4l0.1,1.4h0.1c1-1.1,2-1.6,3-1.6c1.4,0,2.3,0.6,2.7,1.8c1.1-1.2,2.2-1.8,3.2-1.8
			c2,0,3,1.3,3,3.8v6.2h-1.6v-6c0-0.9-0.1-1.6-0.4-2s-0.7-0.6-1.4-0.6c-0.7,0-1.5,0.5-2.4,1.5v7.1h-1.6v-6c0-0.9-0.1-1.6-0.4-2
			s-0.8-0.6-1.4-0.6c-0.7,0-1.5,0.5-2.4,1.5v7.1H-3388.7z"/>
		<path class="st2" d="M-3368-2668v-13.1h7.6v1.4h-5.9v4.4h5v1.4h-5v5.9H-3368z"/>
		<path class="st2" d="M-3358.2-2668v-13.1h7.6v1.4h-5.9v4.1h5v1.4h-5v4.8h6.1v1.4H-3358.2z"/>
		<path class="st2" d="M-3344.7-2679.1c1.2-1.3,2.5-1.9,3.9-1.9c1.2,0,2.1,0.3,2.8,1s1,1.6,1,2.7c0,1.1-0.4,2.2-1.2,3.4
			c-0.8,1.1-2.1,2.7-4,4.6c0.9-0.1,1.6-0.1,2.1-0.1h3.7v1.4h-8.3v-1c1.1-1.1,2-2,2.6-2.6c0.6-0.7,1.2-1.3,1.8-2.1
			c0.6-0.7,1-1.4,1.2-1.9s0.4-1.1,0.4-1.6c0-0.8-0.2-1.4-0.6-1.8c-0.4-0.5-1-0.7-1.8-0.7c-0.9,0-1.8,0.5-2.7,1.5L-3344.7-2679.1z"/>
		<path class="st2" d="M-3333.6-2669.5c-0.7-1.2-1.1-2.8-1.1-4.9s0.4-3.7,1.1-4.9s1.7-1.7,3-1.7c1.3,0,2.3,0.6,3,1.7
			s1.1,2.8,1.1,4.9s-0.4,3.8-1.1,4.9s-1.7,1.7-3,1.7C-3331.9-2667.8-3332.9-2668.3-3333.6-2669.5z M-3333.1-2674.4
			c0,1.8,0.2,3.1,0.7,4s1.1,1.3,1.8,1.3c0.8,0,1.4-0.4,1.8-1.3s0.7-2.2,0.7-4c0-3.5-0.8-5.3-2.5-5.3
			C-3332.2-2679.7-3333.1-2677.9-3333.1-2674.4z"/>
		<path class="st2" d="M-3324-2668v-1.3h2.9v-9.4h-2.3v-1.1c1.1-0.2,2-0.5,2.7-0.9h1.3v11.4h2.6v1.3H-3324z"/>
		<path class="st2" d="M-3314.9-2676.9c0-1.2,0.4-2.2,1.1-2.9c0.7-0.8,1.6-1.1,2.7-1.1c1.3,0,2.4,0.5,3.2,1.6s1.2,2.6,1.2,4.6
			c0,2.4-0.5,4.2-1.4,5.4s-2.1,1.7-3.5,1.7c-1.2,0-2.3-0.5-3.1-1.4l0.9-1c0.6,0.7,1.3,1,2.1,1c1,0,1.8-0.4,2.4-1.3s0.9-2.2,1-4.2
			c-0.4,0.5-0.9,0.9-1.4,1.2s-1.1,0.4-1.6,0.4c-1.1,0-2-0.3-2.7-1S-3314.9-2675.6-3314.9-2676.9z M-3313.3-2676.9
			c0,0.9,0.2,1.5,0.6,2s1,0.7,1.8,0.7c1,0,1.9-0.6,2.7-1.7c-0.2-2.5-1.2-3.8-2.8-3.8c-0.6,0-1.2,0.3-1.6,0.8
			S-3313.3-2677.7-3313.3-2676.9z"/>
	</g>
	<g class="st1">
		<path class="st2" d="M-4117.6-2767l5.1-15.1h2.2l5.1,15.1h-2l-1.5-4.6h-5.5l-1.5,4.6H-4117.6z M-4113.8-2773.1h4.5l-0.7-2.3
			c-0.5-1.6-1-3.3-1.5-5.1h-0.1c-0.5,1.8-1,3.5-1.5,5.1L-4113.8-2773.1z"/>
		<path class="st2" d="M-4099.7-2772v-1.4h5.3v1.4H-4099.7z"/>
		<path class="st2" d="M-4088.8-2767l5.1-15.1h2.2l5.1,15.1h-2l-1.5-4.6h-5.5l-1.5,4.6H-4088.8z M-4085-2773.1h4.5l-0.7-2.3
			c-0.5-1.6-1-3.3-1.5-5.1h-0.1c-0.5,1.8-1,3.5-1.5,5.1L-4085-2773.1z"/>
		<path class="st2" d="M-4074.6-2769.3v-14.1h1.9v14.2c0,0.5,0.2,0.8,0.5,0.8h0c0.1,0,0.3,0,0.4,0l0.2,1.5c-0.3,0.1-0.6,0.2-1.1,0.2
			C-4073.9-2766.7-4074.6-2767.6-4074.6-2769.3z"/>
		<path class="st2" d="M-4068.7-2762.3v-15.9h1.6l0.2,1.3h0.1c1.2-1.1,2.4-1.6,3.6-1.6c1.4,0,2.5,0.5,3.2,1.5c0.8,1,1.1,2.4,1.1,4.2
			c0,1.8-0.5,3.3-1.4,4.4s-2.1,1.6-3.4,1.6c-1,0-2-0.4-3.1-1.3l0,2v3.8H-4068.7z M-4066.8-2769.5c0.9,0.8,1.8,1.2,2.7,1.2
			c0.9,0,1.7-0.4,2.3-1.2c0.6-0.8,0.9-1.9,0.9-3.2c0-2.7-1-4.1-2.9-4.1c-0.9,0-1.9,0.5-3,1.5V-2769.5z"/>
		<path class="st2" d="M-4056-2767v-16.4h1.9v4.5l-0.1,2.3c1.3-1.2,2.5-1.8,3.7-1.8c2.3,0,3.4,1.5,3.4,4.4v7.1h-1.9v-6.9
			c0-1-0.2-1.8-0.5-2.3c-0.3-0.5-0.9-0.7-1.6-0.7c-0.5,0-1,0.1-1.5,0.4s-1,0.7-1.6,1.3v8.1H-4056z"/>
		<path class="st2" d="M-4044-2769.9c0-1.2,0.5-2.1,1.6-2.8c1.1-0.7,2.8-1.1,5.2-1.4c0-1.9-0.8-2.8-2.3-2.8c-1.1,0-2.2,0.4-3.3,1.2
			l-0.8-1.3c1.5-1,3-1.4,4.4-1.4c1.3,0,2.3,0.4,2.9,1.2c0.6,0.8,1,1.9,1,3.4v6.9h-1.6l-0.2-1.3h0c-1.3,1.1-2.6,1.6-3.7,1.6
			c-1,0-1.8-0.3-2.4-0.9S-4044-2768.9-4044-2769.9z M-4042.1-2770c0,0.6,0.2,1,0.5,1.3c0.4,0.3,0.8,0.4,1.4,0.4c0.9,0,1.9-0.5,3-1.5
			v-3.1c-1.8,0.2-3.1,0.6-3.9,1C-4041.7-2771.4-4042.1-2770.8-4042.1-2770z"/>
		<path class="st2" d="M-4027.1-2767v-11.2h1.6l0.2,2h0.1c0.4-0.7,0.8-1.3,1.4-1.7c0.5-0.4,1.1-0.6,1.8-0.6c0.4,0,0.8,0.1,1.2,0.2
			l-0.4,1.7c-0.4-0.2-0.8-0.2-1.1-0.2c-0.5,0-1,0.2-1.5,0.6c-0.5,0.4-0.9,1.1-1.3,2v7.2H-4027.1z"/>
		<path class="st2" d="M-4020.1-2779.7c1.4-1.5,2.8-2.2,4.4-2.2c1.3,0,2.4,0.4,3.2,1.2c0.8,0.8,1.2,1.8,1.2,3.1
			c0,1.3-0.5,2.5-1.4,3.9s-2.5,3.1-4.6,5.3c1.1-0.1,1.9-0.1,2.5-0.1h4.3v1.6h-9.5v-1.1c1.3-1.3,2.3-2.3,3-3c0.7-0.8,1.4-1.5,2.1-2.4
			c0.7-0.8,1.2-1.6,1.4-2.2c0.3-0.6,0.4-1.2,0.4-1.8c0-0.9-0.2-1.6-0.7-2.1c-0.5-0.5-1.2-0.8-2.1-0.8c-1.1,0-2.1,0.6-3.1,1.8
			L-4020.1-2779.7z"/>
		<path class="st2" d="M-4002.9-2767v-15.1h8.7v1.6h-6.8v4.8h5.7v1.6h-5.7v5.5h7v1.6H-4002.9z"/>
		<path class="st2" d="M-3992.4-2776.6v-1.4l1.8-0.1l0.2-3.1h1.6v3.1h3v1.5h-3v6.2c0,0.7,0.1,1.3,0.4,1.6c0.3,0.4,0.7,0.5,1.3,0.5
			c0.3,0,0.7-0.1,1.3-0.3l0.4,1.4c-0.8,0.3-1.5,0.4-2.1,0.4c-2.1,0-3.2-1.2-3.2-3.7v-6.2H-3992.4z"/>
		<path class="st2" d="M-3983.2-2767v-16.4h1.9v4.5l-0.1,2.3c1.3-1.2,2.5-1.8,3.7-1.8c2.3,0,3.4,1.5,3.4,4.4v7.1h-1.9v-6.9
			c0-1-0.2-1.8-0.5-2.3c-0.3-0.5-0.9-0.7-1.6-0.7c-0.5,0-1,0.1-1.5,0.4s-1,0.7-1.6,1.3v8.1H-3983.2z"/>
		<path class="st2" d="M-3971.1-2781.7c0-0.4,0.1-0.7,0.4-0.9s0.6-0.3,0.9-0.3s0.7,0.1,0.9,0.3s0.4,0.5,0.4,0.9
			c0,0.4-0.1,0.6-0.4,0.9c-0.3,0.2-0.6,0.3-0.9,0.3s-0.7-0.1-0.9-0.3C-3971-2781.1-3971.1-2781.3-3971.1-2781.7z M-3970.7-2767
			v-11.2h1.9v11.2H-3970.7z"/>
		<path class="st2" d="M-3964.5-2768.3c-1-1.1-1.5-2.5-1.5-4.3s0.5-3.2,1.6-4.3c1-1.1,2.3-1.6,3.8-1.6c1.2,0,2.3,0.4,3.3,1.3
			l-0.9,1.2c-0.8-0.7-1.5-1-2.2-1c-1,0-1.8,0.4-2.5,1.2c-0.7,0.8-1,1.8-1,3.1c0,1.3,0.3,2.3,1,3.1c0.6,0.8,1.5,1.2,2.5,1.2
			c0.9,0,1.8-0.4,2.6-1.1l0.9,1.2c-1.1,1-2.3,1.5-3.6,1.5C-3962.2-2766.7-3963.5-2767.2-3964.5-2768.3z"/>
		<path class="st2" d="M-3955.4-2769.9c0-1.2,0.5-2.1,1.6-2.8c1.1-0.7,2.8-1.1,5.2-1.4c0-1.9-0.8-2.8-2.3-2.8
			c-1.1,0-2.2,0.4-3.3,1.2l-0.8-1.3c1.5-1,3-1.4,4.4-1.4c1.3,0,2.3,0.4,2.9,1.2c0.6,0.8,1,1.9,1,3.4v6.9h-1.6l-0.2-1.3h0
			c-1.3,1.1-2.6,1.6-3.7,1.6c-1,0-1.8-0.3-2.4-0.9S-3955.4-2768.9-3955.4-2769.9z M-3953.5-2770c0,0.6,0.2,1,0.5,1.3
			c0.4,0.3,0.8,0.4,1.4,0.4c0.9,0,1.9-0.5,3-1.5v-3.1c-1.8,0.2-3.1,0.6-3.9,1C-3953.1-2771.4-3953.5-2770.8-3953.5-2770z"/>
		<path class="st2" d="M-3943.1-2769.3v-14.1h1.9v14.2c0,0.5,0.2,0.8,0.5,0.8h0c0.1,0,0.3,0,0.4,0l0.2,1.5c-0.3,0.1-0.6,0.2-1.1,0.2
			C-3942.4-2766.7-3943.1-2767.6-3943.1-2769.3z"/>
		<path class="st2" d="M-3932.2-2768.7c-0.8-1.3-1.2-3.2-1.2-5.7s0.4-4.3,1.2-5.6s2-2,3.5-2c1.5,0,2.6,0.7,3.4,2
			c0.8,1.3,1.2,3.2,1.2,5.6s-0.4,4.3-1.2,5.7c-0.8,1.3-2,2-3.4,2C-3930.2-2766.7-3931.4-2767.4-3932.2-2768.7z M-3931.6-2774.4
			c0,2.1,0.3,3.6,0.8,4.6c0.5,1,1.2,1.5,2.1,1.5c0.9,0,1.6-0.5,2.1-1.5s0.8-2.5,0.8-4.6c0-4-1-6-2.9-6
			C-3930.7-2780.4-3931.6-2778.4-3931.6-2774.4z"/>
		<path class="st2" d="M-3921.2-2767v-1.5h3.4v-10.8h-2.7v-1.2c1.2-0.2,2.3-0.6,3.1-1.1h1.4v13.1h3v1.5H-3921.2z"/>
		<path class="st2" d="M-3911.4-2763.3l6.2-19.5l1.5-0.5l-6.2,19.5L-3911.4-2763.3z"/>
		<path class="st2" d="M-3901.3-2768.7c-0.8-1.3-1.2-3.2-1.2-5.7s0.4-4.3,1.2-5.6s2-2,3.5-2c1.5,0,2.6,0.7,3.4,2
			c0.8,1.3,1.2,3.2,1.2,5.6s-0.4,4.3-1.2,5.7c-0.8,1.3-2,2-3.4,2C-3899.3-2766.7-3900.5-2767.4-3901.3-2768.7z M-3900.7-2774.4
			c0,2.1,0.3,3.6,0.8,4.6c0.5,1,1.2,1.5,2.1,1.5c0.9,0,1.6-0.5,2.1-1.5s0.8-2.5,0.8-4.6c0-4-1-6-2.9-6
			C-3899.8-2780.4-3900.7-2778.4-3900.7-2774.4z"/>
		<path class="st2" d="M-3891.3-2779.7c1.4-1.5,2.8-2.2,4.4-2.2c1.3,0,2.4,0.4,3.2,1.2c0.8,0.8,1.2,1.8,1.2,3.1
			c0,1.3-0.5,2.5-1.4,3.9s-2.5,3.1-4.6,5.3c1.1-0.1,1.9-0.1,2.5-0.1h4.3v1.6h-9.5v-1.1c1.3-1.3,2.3-2.3,3-3c0.7-0.8,1.4-1.5,2.1-2.4
			c0.7-0.8,1.2-1.6,1.4-2.2c0.3-0.6,0.4-1.2,0.4-1.8c0-0.9-0.2-1.6-0.7-2.1c-0.5-0.5-1.2-0.8-2.1-0.8c-1.1,0-2.1,0.6-3.1,1.8
			L-3891.3-2779.7z"/>
		<path class="st2" d="M-3880.5-2763.3l6.2-19.5l1.5-0.5l-6.2,19.5L-3880.5-2763.3z"/>
		<path class="st2" d="M-3871.8-2779.7c1.4-1.5,2.8-2.2,4.4-2.2c1.3,0,2.4,0.4,3.2,1.2c0.8,0.8,1.2,1.8,1.2,3.1
			c0,1.3-0.5,2.5-1.4,3.9s-2.5,3.1-4.6,5.3c1.1-0.1,1.9-0.1,2.5-0.1h4.3v1.6h-9.5v-1.1c1.3-1.3,2.3-2.3,3-3c0.7-0.8,1.4-1.5,2.1-2.4
			c0.7-0.8,1.2-1.6,1.4-2.2c0.3-0.6,0.4-1.2,0.4-1.8c0-0.9-0.2-1.6-0.7-2.1c-0.5-0.5-1.2-0.8-2.1-0.8c-1.1,0-2.1,0.6-3.1,1.8
			L-3871.8-2779.7z"/>
		<path class="st2" d="M-3859-2768.7c-0.8-1.3-1.2-3.2-1.2-5.7s0.4-4.3,1.2-5.6s2-2,3.5-2c1.5,0,2.6,0.7,3.4,2
			c0.8,1.3,1.2,3.2,1.2,5.6s-0.4,4.3-1.2,5.7c-0.8,1.3-2,2-3.4,2C-3857-2766.7-3858.2-2767.4-3859-2768.7z M-3858.4-2774.4
			c0,2.1,0.3,3.6,0.8,4.6c0.5,1,1.2,1.5,2.1,1.5c0.9,0,1.6-0.5,2.1-1.5s0.8-2.5,0.8-4.6c0-4-1-6-2.9-6
			C-3857.5-2780.4-3858.4-2778.4-3858.4-2774.4z"/>
		<path class="st2" d="M-3848-2767v-1.5h3.4v-10.8h-2.7v-1.2c1.2-0.2,2.3-0.6,3.1-1.1h1.4v13.1h3v1.5H-3848z"/>
		<path class="st2" d="M-3837.5-2777.2c0-1.4,0.4-2.5,1.3-3.4c0.8-0.9,1.9-1.3,3.1-1.3c1.5,0,2.7,0.6,3.7,1.8s1.4,3,1.4,5.2
			c0,2.8-0.5,4.8-1.6,6.2c-1.1,1.3-2.4,2-4,2c-1.4,0-2.6-0.5-3.5-1.6l1.1-1.2c0.7,0.8,1.5,1.2,2.4,1.2c1.1,0,2.1-0.5,2.8-1.5
			s1.1-2.6,1.1-4.8c-0.5,0.6-1,1-1.6,1.4c-0.6,0.3-1.2,0.5-1.8,0.5c-1.3,0-2.3-0.4-3-1.2
			C-3837.1-2774.6-3837.5-2775.8-3837.5-2777.2z M-3835.7-2777.2c0,1,0.2,1.7,0.7,2.3s1.1,0.8,2,0.8c1.1,0,2.2-0.7,3.1-2
			c-0.3-2.9-1.3-4.4-3.2-4.4c-0.7,0-1.3,0.3-1.8,0.9C-3835.5-2779-3835.7-2778.2-3835.7-2777.2z"/>
		<path class="st2" d="M-3821.8-2780.5v-1.6h11.1v1.6h-4.6v13.5h-1.9v-13.5H-3821.8z"/>
		<path class="st2" d="M-3808.1-2767v-15.1h4.7c3.5,0,5.3,1.4,5.3,4.2c0,1.1-0.3,2.1-0.9,2.8c-0.6,0.7-1.4,1.2-2.5,1.5l3.8,6.6h-2.2
			l-3.6-6.3h-2.7v6.3H-3808.1z M-3806.2-2774.9h2.5c2.4,0,3.6-1,3.6-2.9c0-1-0.3-1.7-0.9-2.1c-0.6-0.4-1.5-0.6-2.7-0.6h-2.5V-2774.9
			z"/>
		<path class="st2" d="M-3790.7-2781.7c0-0.4,0.1-0.7,0.4-0.9c0.3-0.2,0.6-0.3,0.9-0.3s0.7,0.1,0.9,0.3c0.3,0.2,0.4,0.5,0.4,0.9
			c0,0.4-0.1,0.6-0.4,0.9c-0.3,0.2-0.6,0.3-0.9,0.3s-0.7-0.1-0.9-0.3C-3790.6-2781.1-3790.7-2781.3-3790.7-2781.7z M-3790.4-2767
			v-11.2h1.9v11.2H-3790.4z"/>
		<path class="st2" d="M-3784.7-2767v-11.2h1.6l0.2,1.6h0.1c1.3-1.2,2.5-1.9,3.8-1.9c2.3,0,3.4,1.5,3.4,4.4v7.1h-1.9v-6.9
			c0-1-0.2-1.8-0.5-2.3c-0.3-0.5-0.9-0.7-1.6-0.7c-0.5,0-1,0.1-1.5,0.4c-0.4,0.3-1,0.7-1.6,1.3v8.1H-3784.7z"/>
		<path class="st2" d="M-3768.3-2774.5c0-2.4,0.6-4.3,1.9-5.7c1.3-1.4,3-2.1,5-2.1c1.7,0,3.1,0.6,4.3,1.9l-1.1,1.2
			c-0.9-0.9-2-1.4-3.2-1.4c-1.5,0-2.8,0.5-3.7,1.6c-0.9,1.1-1.4,2.6-1.4,4.5c0,1.9,0.4,3.4,1.3,4.5c0.9,1.1,2.1,1.7,3.7,1.7
			c1.2,0,2.1-0.3,2.7-0.9v-3.9h-3.2v-1.6h4.9v6.4c-1.2,1.2-2.7,1.7-4.7,1.7c-2,0-3.6-0.7-4.9-2.1S-3768.3-2772.1-3768.3-2774.5z"/>
		<path class="st2" d="M-3753.3-2767v-15.1h4.5c1.6,0,2.9,0.3,3.8,0.9c0.9,0.6,1.4,1.5,1.4,2.8c0,0.8-0.2,1.5-0.7,2.1s-1.1,1-2,1.2
			v0.1c2.3,0.4,3.5,1.6,3.5,3.6c0,1.4-0.5,2.5-1.5,3.3c-1,0.8-2.4,1.1-4.2,1.1H-3753.3z M-3751.4-2775.6h2.2c2.4,0,3.6-0.9,3.6-2.6
			c0-1.5-1.2-2.3-3.5-2.3h-2.3V-2775.6z M-3751.4-2768.5h2.6c2.7,0,4.1-1,4.1-3c0-1.8-1.4-2.7-4.1-2.7h-2.6V-2768.5z"/>
		<path class="st2" d="M-3735.1-2763.5v-19.8h4.1v1.1h-2.6v17.6h2.6v1.1H-3735.1z"/>
		<path class="st2" d="M-3729.4-2772v-1.4h5.3v1.4H-3729.4z"/>
		<path class="st2" d="M-3722.4-2779.7c1.4-1.5,2.8-2.2,4.4-2.2c1.3,0,2.4,0.4,3.2,1.2c0.8,0.8,1.2,1.8,1.2,3.1
			c0,1.3-0.5,2.5-1.4,3.9s-2.5,3.1-4.6,5.3c1.1-0.1,1.9-0.1,2.5-0.1h4.3v1.6h-9.5v-1.1c1.3-1.3,2.3-2.3,3-3c0.7-0.8,1.4-1.5,2.1-2.4
			c0.7-0.8,1.2-1.6,1.4-2.2c0.3-0.6,0.4-1.2,0.4-1.8c0-0.9-0.2-1.6-0.7-2.1s-1.2-0.8-2.1-0.8c-1.1,0-2.1,0.6-3.1,1.8L-3722.4-2779.7
			z"/>
		<path class="st2" d="M-3710.3-2768.1c0-0.4,0.1-0.8,0.4-1.1c0.3-0.3,0.6-0.4,0.9-0.4s0.7,0.1,0.9,0.4c0.3,0.3,0.4,0.6,0.4,1.1
			c0,0.4-0.1,0.8-0.4,1c-0.3,0.3-0.6,0.4-0.9,0.4c-0.4,0-0.7-0.1-0.9-0.4C-3710.1-2767.4-3710.3-2767.7-3710.3-2768.1z"/>
		<path class="st2" d="M-3705.5-2768.8l0.9-1.2c1.1,1.1,2.4,1.7,3.7,1.7c0.9,0,1.7-0.3,2.3-0.9c0.6-0.6,0.9-1.4,0.9-2.4
			c0-1-0.3-1.8-0.9-2.3c-0.6-0.6-1.3-0.9-2.3-0.9c-0.8,0-1.6,0.3-2.5,0.9l-1-0.6l0.5-7h7.3v1.6h-5.7l-0.4,4.3
			c0.7-0.4,1.5-0.6,2.3-0.6c1.3,0,2.4,0.4,3.3,1.2c0.9,0.8,1.3,1.9,1.3,3.4c0,1.5-0.5,2.7-1.5,3.6c-1,0.9-2.1,1.4-3.5,1.4
			C-3702.5-2766.7-3704.1-2767.4-3705.5-2768.8z"/>
		<path class="st2" d="M-3692.8-2767v-1.5h3.4v-10.8h-2.7v-1.2c1.2-0.2,2.3-0.6,3.1-1.1h1.4v13.1h3v1.5H-3692.8z"/>
		<path class="st2" d="M-3681.4-2774.1c-0.7-0.8-1-2-1-3.5s0.3-2.7,0.9-3.5s1.5-1.2,2.6-1.2c1.1,0,1.9,0.4,2.5,1.2
			c0.6,0.8,0.9,2,0.9,3.5c0,1.5-0.3,2.7-1,3.6s-1.5,1.3-2.5,1.3C-3679.9-2772.8-3680.8-2773.2-3681.4-2774.1z M-3680.9-2777.7
			c0,1.2,0.2,2.1,0.5,2.7s0.8,0.9,1.5,0.9c0.6,0,1.1-0.3,1.4-1c0.4-0.6,0.5-1.5,0.5-2.7c0-1.1-0.2-2-0.5-2.6s-0.8-0.9-1.4-0.9
			c-0.6,0-1.1,0.3-1.5,0.9S-3680.9-2778.8-3680.9-2777.7z M-3678.5-2766.7l8.5-15.6h1.3l-8.5,15.6H-3678.5z M-3671.8-2771.5
			c0-1.5,0.3-2.7,1-3.5c0.7-0.8,1.5-1.3,2.5-1.3c1,0,1.9,0.4,2.5,1.3s1,2,1,3.6c0,1.5-0.3,2.7-1,3.5s-1.5,1.3-2.5,1.3
			c-1,0-1.9-0.4-2.5-1.3C-3671.4-2768.8-3671.8-2770-3671.8-2771.5z M-3669.7-2774.1c-0.4,0.6-0.5,1.5-0.5,2.6s0.2,2,0.5,2.6
			c0.4,0.6,0.8,0.9,1.4,0.9c0.6,0,1.1-0.3,1.4-0.9c0.4-0.6,0.5-1.5,0.5-2.6s-0.2-2-0.5-2.6c-0.4-0.6-0.8-0.9-1.4-0.9
			C-3668.9-2775.1-3669.3-2774.8-3669.7-2774.1z"/>
		<path class="st2" d="M-3663.6-2764.6h2.6v-17.6h-2.6v-1.1h4.1v19.8h-4.1V-2764.6z"/>
	</g>
	<g class="st1">
		<path class="st2" d="M-4115.6-2737v-15.1h4.5c1.6,0,2.9,0.3,3.8,0.9c0.9,0.6,1.4,1.5,1.4,2.8c0,0.8-0.2,1.5-0.7,2.1s-1.1,1-2,1.2
			v0.1c2.3,0.4,3.5,1.6,3.5,3.6c0,1.4-0.5,2.5-1.5,3.3c-1,0.8-2.4,1.1-4.2,1.1H-4115.6z M-4113.7-2745.6h2.2c2.4,0,3.6-0.9,3.6-2.6
			c0-1.5-1.2-2.3-3.5-2.3h-2.3V-2745.6z M-4113.7-2738.5h2.6c2.7,0,4.1-1,4.1-3c0-1.8-1.4-2.7-4.1-2.7h-2.6V-2738.5z"/>
		<path class="st2" d="M-4098.6-2742v-1.4h5.3v1.4H-4098.6z"/>
		<path class="st2" d="M-4085.9-2737v-15.1h3.8c2.3,0,4.1,0.6,5.3,1.9c1.2,1.3,1.8,3.1,1.8,5.5c0,2.4-0.6,4.3-1.8,5.6
			c-1.2,1.3-3,2-5.2,2H-4085.9z M-4084-2738.5h1.7c1.7,0,3-0.5,3.9-1.6c0.9-1.1,1.4-2.6,1.4-4.5c0-1.9-0.4-3.4-1.3-4.4
			c-0.9-1-2.2-1.5-4-1.5h-1.7V-2738.5z"/>
		<path class="st2" d="M-4072.3-2751.7c0-0.4,0.1-0.7,0.4-0.9s0.6-0.3,0.9-0.3s0.7,0.1,0.9,0.3s0.4,0.5,0.4,0.9
			c0,0.4-0.1,0.6-0.4,0.9c-0.3,0.2-0.6,0.3-0.9,0.3s-0.7-0.1-0.9-0.3C-4072.1-2751.1-4072.3-2751.3-4072.3-2751.7z M-4071.9-2737
			v-11.2h1.9v11.2H-4071.9z"/>
		<path class="st2" d="M-4067.9-2748.2h2l2.1,6.3c0.2,0.7,0.6,1.8,1,3.3h0.1c0.1-0.2,0.2-0.7,0.5-1.5s0.4-1.4,0.6-1.8l2.1-6.3h1.9
			l-4,11.2h-2.2L-4067.9-2748.2z"/>
		<path class="st2" d="M-4056.4-2742.6c0-1.7,0.5-3.2,1.5-4.3c1-1.1,2.2-1.6,3.5-1.6c1.4,0,2.5,0.5,3.3,1.4c0.8,0.9,1.2,2.2,1.2,3.8
			c0,0.4,0,0.8-0.1,1h-7.5c0.1,1.2,0.4,2.2,1.1,2.9s1.5,1.1,2.6,1.1c1,0,1.9-0.3,2.8-0.9l0.7,1.2c-1.2,0.8-2.4,1.2-3.7,1.2
			c-1.5,0-2.8-0.5-3.8-1.6C-4055.9-2739.4-4056.4-2740.8-4056.4-2742.6z M-4054.5-2743.4h6c0-1.1-0.2-2-0.7-2.6
			c-0.5-0.6-1.2-0.9-2-0.9c-0.8,0-1.5,0.3-2.1,1S-4054.4-2744.5-4054.5-2743.4z"/>
		<path class="st2" d="M-4044.1-2737v-11.2h1.6l0.2,2h0.1c0.4-0.7,0.8-1.3,1.4-1.7c0.5-0.4,1.1-0.6,1.8-0.6c0.4,0,0.8,0.1,1.2,0.2
			l-0.4,1.7c-0.4-0.2-0.8-0.2-1.1-0.2c-0.5,0-1,0.2-1.5,0.6c-0.5,0.4-0.9,1.1-1.3,2v7.2H-4044.1z"/>
		<path class="st2" d="M-4037.6-2738.3l0.9-1.3c1.1,0.9,2.2,1.3,3.3,1.3c0.7,0,1.2-0.2,1.6-0.5c0.4-0.3,0.6-0.8,0.6-1.3
			c0-0.3-0.1-0.5-0.2-0.7c-0.1-0.2-0.4-0.4-0.6-0.6s-0.5-0.3-0.8-0.4c-0.2-0.1-0.5-0.2-0.9-0.4c-0.5-0.2-0.9-0.3-1.2-0.5
			c-0.3-0.1-0.7-0.4-1-0.6c-0.4-0.3-0.6-0.6-0.8-0.9c-0.2-0.4-0.3-0.7-0.3-1.2c0-0.9,0.3-1.7,1-2.3c0.7-0.6,1.6-0.9,2.8-0.9
			c1.3,0,2.4,0.4,3.5,1.3l-0.9,1.2c-0.9-0.7-1.7-1-2.5-1c-0.7,0-1.2,0.2-1.5,0.5c-0.4,0.3-0.5,0.7-0.5,1.2c0,0.3,0.1,0.6,0.4,0.8
			s0.5,0.4,0.7,0.5c0.2,0.1,0.6,0.3,1.2,0.5c0,0,0.1,0,0.1,0s0,0,0.1,0c0.4,0.2,0.8,0.3,1,0.4s0.5,0.2,0.9,0.4
			c0.4,0.2,0.6,0.4,0.8,0.6c0.2,0.2,0.3,0.5,0.5,0.8c0.1,0.3,0.2,0.7,0.2,1.1c0,1-0.4,1.7-1.1,2.4c-0.7,0.6-1.7,1-3,1
			C-4034.9-2736.7-4036.3-2737.2-4037.6-2738.3z"/>
		<path class="st2" d="M-4027-2751.7c0-0.4,0.1-0.7,0.4-0.9s0.6-0.3,0.9-0.3s0.7,0.1,0.9,0.3s0.4,0.5,0.4,0.9c0,0.4-0.1,0.6-0.4,0.9
			c-0.3,0.2-0.6,0.3-0.9,0.3s-0.7-0.1-0.9-0.3C-4026.9-2751.1-4027-2751.3-4027-2751.7z M-4026.7-2737v-11.2h1.9v11.2H-4026.7z"/>
		<path class="st2" d="M-4022.2-2746.6v-1.4l1.5-0.1v-1.8c0-1.2,0.3-2.1,0.8-2.7c0.5-0.7,1.4-1,2.4-1c0.6,0,1.3,0.1,1.9,0.4
			l-0.4,1.4c-0.4-0.2-0.8-0.3-1.3-0.3c-1,0-1.6,0.7-1.6,2.2v1.8h2.4v1.5h-2.4v9.6h-1.9v-9.6H-4022.2z"/>
		<path class="st2" d="M-4014.7-2751.7c0-0.4,0.1-0.7,0.4-0.9s0.6-0.3,0.9-0.3s0.7,0.1,0.9,0.3s0.4,0.5,0.4,0.9
			c0,0.4-0.1,0.6-0.4,0.9c-0.3,0.2-0.6,0.3-0.9,0.3s-0.7-0.1-0.9-0.3C-4014.5-2751.1-4014.7-2751.3-4014.7-2751.7z M-4014.3-2737
			v-11.2h1.9v11.2H-4014.3z"/>
		<path class="st2" d="M-4008-2738.3c-1-1.1-1.5-2.5-1.5-4.3s0.5-3.2,1.6-4.3c1-1.1,2.3-1.6,3.8-1.6c1.2,0,2.3,0.4,3.3,1.3l-0.9,1.2
			c-0.8-0.7-1.5-1-2.2-1c-1,0-1.8,0.4-2.5,1.2c-0.7,0.8-1,1.8-1,3.1c0,1.3,0.3,2.3,1,3.1c0.6,0.8,1.5,1.2,2.5,1.2
			c0.9,0,1.8-0.4,2.6-1.1l0.9,1.2c-1.1,1-2.3,1.5-3.6,1.5C-4005.8-2736.7-4007.1-2737.2-4008-2738.3z"/>
		<path class="st2" d="M-3999-2739.9c0-1.2,0.5-2.1,1.6-2.8c1.1-0.7,2.8-1.1,5.2-1.4c0-1.9-0.8-2.8-2.3-2.8c-1.1,0-2.2,0.4-3.3,1.2
			l-0.8-1.3c1.5-1,3-1.4,4.4-1.4c1.3,0,2.3,0.4,2.9,1.2c0.6,0.8,1,1.9,1,3.4v6.9h-1.6l-0.2-1.3h0c-1.3,1.1-2.6,1.6-3.7,1.6
			c-1,0-1.8-0.3-2.4-0.9S-3999-2738.9-3999-2739.9z M-3997.1-2740c0,0.6,0.2,1,0.5,1.3c0.4,0.3,0.8,0.4,1.4,0.4c0.9,0,1.9-0.5,3-1.5
			v-3.1c-1.8,0.2-3.1,0.6-3.9,1C-3996.7-2741.4-3997.1-2740.8-3997.1-2740z"/>
		<path class="st2" d="M-3988-2746.6v-1.4l1.8-0.1l0.2-3.1h1.6v3.1h3v1.5h-3v6.2c0,0.7,0.1,1.3,0.4,1.6c0.3,0.4,0.7,0.5,1.3,0.5
			c0.3,0,0.7-0.1,1.3-0.3l0.4,1.4c-0.8,0.3-1.5,0.4-2.1,0.4c-2.1,0-3.2-1.2-3.2-3.7v-6.2H-3988z"/>
		<path class="st2" d="M-3979.2-2751.7c0-0.4,0.1-0.7,0.4-0.9s0.6-0.3,0.9-0.3s0.7,0.1,0.9,0.3s0.4,0.5,0.4,0.9
			c0,0.4-0.1,0.6-0.4,0.9c-0.3,0.2-0.6,0.3-0.9,0.3s-0.7-0.1-0.9-0.3C-3979.1-2751.1-3979.2-2751.3-3979.2-2751.7z M-3978.9-2737
			v-11.2h1.9v11.2H-3978.9z"/>
		<path class="st2" d="M-3974.1-2742.6c0-1.8,0.5-3.2,1.5-4.3c1-1.1,2.2-1.6,3.7-1.6c1.4,0,2.7,0.5,3.7,1.6c1,1.1,1.5,2.5,1.5,4.3
			c0,1.8-0.5,3.2-1.5,4.3c-1,1.1-2.2,1.6-3.7,1.6c-1.4,0-2.7-0.5-3.7-1.6C-3973.6-2739.4-3974.1-2740.8-3974.1-2742.6z
			 M-3972.1-2742.6c0,1.3,0.3,2.3,0.9,3.1c0.6,0.8,1.4,1.2,2.3,1.2c1,0,1.7-0.4,2.3-1.2c0.6-0.8,0.9-1.8,0.9-3.1
			c0-1.3-0.3-2.3-0.9-3.1c-0.6-0.8-1.4-1.2-2.3-1.2c-1,0-1.7,0.4-2.3,1.2C-3971.8-2744.9-3972.1-2743.9-3972.1-2742.6z"/>
		<path class="st2" d="M-3960.8-2737v-11.2h1.6l0.2,1.6h0.1c1.3-1.2,2.5-1.9,3.8-1.9c2.3,0,3.4,1.5,3.4,4.4v7.1h-1.9v-6.9
			c0-1-0.2-1.8-0.5-2.3c-0.3-0.5-0.9-0.7-1.6-0.7c-0.5,0-1,0.1-1.5,0.4s-1,0.7-1.6,1.3v8.1H-3960.8z"/>
		<path class="st2" d="M-3943.4-2737v-15.1h4.6c3.7,0,5.6,1.5,5.6,4.4c0,1.6-0.5,2.7-1.5,3.5c-1,0.8-2.4,1.2-4,1.2h-2.7v5.9H-3943.4
			z M-3941.5-2744.5h2.5c1.3,0,2.3-0.3,3-0.8c0.6-0.5,1-1.3,1-2.3s-0.3-1.8-0.9-2.2s-1.6-0.7-3-0.7h-2.5V-2744.5z"/>
		<path class="st2" d="M-3930.3-2737v-15.1h8.7v1.6h-6.8v5.1h5.8v1.6h-5.8v6.8H-3930.3z"/>
		<path class="st2" d="M-3915.9-2750.5v-1.6h11.1v1.6h-4.6v13.5h-1.9v-13.5H-3915.9z"/>
		<path class="st2" d="M-3902.2-2737v-15.1h4.7c3.5,0,5.3,1.4,5.3,4.2c0,1.1-0.3,2.1-0.9,2.8c-0.6,0.7-1.4,1.2-2.5,1.5l3.8,6.6h-2.2
			l-3.6-6.3h-2.7v6.3H-3902.2z M-3900.3-2744.9h2.5c2.4,0,3.6-1,3.6-2.9c0-1-0.3-1.7-0.9-2.1c-0.6-0.4-1.5-0.6-2.7-0.6h-2.5V-2744.9
			z"/>
		<path class="st2" d="M-3884.8-2751.7c0-0.4,0.1-0.7,0.4-0.9s0.6-0.3,0.9-0.3s0.7,0.1,0.9,0.3s0.4,0.5,0.4,0.9
			c0,0.4-0.1,0.6-0.4,0.9c-0.3,0.2-0.6,0.3-0.9,0.3s-0.7-0.1-0.9-0.3C-3884.7-2751.1-3884.8-2751.3-3884.8-2751.7z M-3884.4-2737
			v-11.2h1.9v11.2H-3884.4z"/>
		<path class="st2" d="M-3878.8-2737v-11.2h1.6l0.2,1.6h0.1c1.3-1.2,2.5-1.9,3.8-1.9c2.3,0,3.4,1.5,3.4,4.4v7.1h-1.9v-6.9
			c0-1-0.2-1.8-0.5-2.3c-0.3-0.5-0.9-0.7-1.6-0.7c-0.5,0-1,0.1-1.5,0.4s-1,0.7-1.6,1.3v8.1H-3878.8z"/>
		<path class="st2" d="M-3862.3-2744.5c0-2.4,0.6-4.3,1.9-5.7s3-2.1,5-2.1c1.7,0,3.1,0.6,4.3,1.9l-1.1,1.2c-0.9-0.9-2-1.4-3.2-1.4
			c-1.5,0-2.8,0.5-3.7,1.6s-1.4,2.6-1.4,4.5c0,1.9,0.4,3.4,1.3,4.5c0.9,1.1,2.1,1.7,3.7,1.7c1.2,0,2.1-0.3,2.7-0.9v-3.9h-3.2v-1.6
			h4.9v6.4c-1.2,1.2-2.7,1.7-4.7,1.7c-2,0-3.6-0.7-4.9-2.1C-3861.7-2740.2-3862.3-2742.1-3862.3-2744.5z"/>
		<path class="st2" d="M-3847.4-2737v-15.1h4.5c1.6,0,2.9,0.3,3.8,0.9c0.9,0.6,1.4,1.5,1.4,2.8c0,0.8-0.2,1.5-0.7,2.1s-1.1,1-2,1.2
			v0.1c2.3,0.4,3.5,1.6,3.5,3.6c0,1.4-0.5,2.5-1.5,3.3c-1,0.8-2.4,1.1-4.2,1.1H-3847.4z M-3845.5-2745.6h2.2c2.4,0,3.6-0.9,3.6-2.6
			c0-1.5-1.2-2.3-3.5-2.3h-2.3V-2745.6z M-3845.5-2738.5h2.6c2.7,0,4.1-1,4.1-3c0-1.8-1.4-2.7-4.1-2.7h-2.6V-2738.5z"/>
		<path class="st2" d="M-3829.2-2733.5v-19.8h4.1v1.1h-2.6v17.6h2.6v1.1H-3829.2z"/>
		<path class="st2" d="M-3823.5-2742v-1.4h5.3v1.4H-3823.5z"/>
		<path class="st2" d="M-3816.7-2738.8l1-1.2c1.1,1.2,2.4,1.7,3.8,1.7c0.9,0,1.6-0.2,2.2-0.7s0.8-1.1,0.8-1.9c0-1.9-1.6-2.9-4.7-2.9
			v-1.4c2.8,0,4.2-0.9,4.2-2.8c0-0.7-0.2-1.3-0.7-1.7c-0.5-0.4-1.1-0.6-1.8-0.6c-1.1,0-2.1,0.5-3.1,1.5l-1-1.2
			c1.3-1.2,2.7-1.8,4.2-1.8c1.3,0,2.4,0.3,3.2,1c0.8,0.7,1.2,1.6,1.2,2.7c0,1.7-0.9,2.8-2.7,3.5v0.1c0.9,0.2,1.7,0.6,2.3,1.3
			s0.9,1.4,0.9,2.4c0,1.3-0.5,2.3-1.4,3.1c-0.9,0.8-2.1,1.1-3.4,1.1C-3813.8-2736.7-3815.4-2737.4-3816.7-2738.8z"/>
		<path class="st2" d="M-3804.3-2738.1c0-0.4,0.1-0.8,0.4-1.1c0.3-0.3,0.6-0.4,0.9-0.4s0.7,0.1,0.9,0.4c0.3,0.3,0.4,0.6,0.4,1.1
			c0,0.4-0.1,0.8-0.4,1c-0.3,0.3-0.6,0.4-0.9,0.4c-0.4,0-0.7-0.1-0.9-0.4C-3804.2-2737.4-3804.3-2737.7-3804.3-2738.1z"/>
		<path class="st2" d="M-3798.3-2737v-1.5h3.4v-10.8h-2.7v-1.2c1.2-0.2,2.3-0.6,3.1-1.1h1.4v13.1h3v1.5H-3798.3z"/>
		<path class="st2" d="M-3787.8-2740.7c0-1.7,0.9-3,2.8-4v-0.1c-1.4-0.9-2.1-2.1-2.1-3.4c0-1.1,0.4-2,1.2-2.7s1.8-1,3-1
			c1.3,0,2.3,0.4,3,1.1c0.8,0.7,1.1,1.7,1.1,2.8c0,0.7-0.2,1.4-0.6,2c-0.4,0.6-0.9,1.1-1.4,1.6v0.1c0.8,0.5,1.4,1,1.9,1.6
			c0.5,0.6,0.7,1.3,0.7,2.2c0,1.1-0.4,2-1.3,2.8c-0.9,0.7-2,1.1-3.4,1.1c-1.4,0-2.5-0.4-3.4-1.1
			C-3787.3-2738.6-3787.8-2739.6-3787.8-2740.7z M-3786-2740.9c0,0.8,0.3,1.5,0.9,2c0.6,0.5,1.3,0.8,2.3,0.8c0.8,0,1.5-0.2,2.1-0.7
			c0.5-0.5,0.8-1.1,0.8-1.9c0-0.4-0.1-0.7-0.2-1c-0.2-0.3-0.3-0.6-0.5-0.7c-0.2-0.2-0.5-0.4-0.9-0.6c-0.5-0.2-0.8-0.4-1-0.5
			c-0.2-0.1-0.6-0.3-1.3-0.5C-3785.4-2743.2-3786-2742.1-3786-2740.9z M-3785.3-2748.2c0,0.8,0.3,1.4,0.9,1.9
			c0.6,0.5,1.4,0.9,2.5,1.3c1-0.9,1.5-1.9,1.5-2.9c0-0.8-0.2-1.4-0.7-1.9c-0.5-0.5-1.1-0.7-1.8-0.7c-0.7,0-1.3,0.2-1.7,0.7
			C-3785-2749.5-3785.3-2748.9-3785.3-2748.2z"/>
		<path class="st2" d="M-3775.5-2744.1c-0.7-0.8-1-2-1-3.5s0.3-2.7,0.9-3.5s1.5-1.2,2.6-1.2c1.1,0,1.9,0.4,2.5,1.2
			c0.6,0.8,0.9,2,0.9,3.5c0,1.5-0.3,2.7-1,3.6s-1.5,1.3-2.5,1.3C-3774-2742.8-3774.8-2743.2-3775.5-2744.1z M-3775-2747.7
			c0,1.2,0.2,2.1,0.5,2.7s0.8,0.9,1.5,0.9c0.6,0,1.1-0.3,1.4-1c0.4-0.6,0.5-1.5,0.5-2.7c0-1.1-0.2-2-0.5-2.6s-0.8-0.9-1.4-0.9
			c-0.6,0-1.1,0.3-1.5,0.9S-3775-2748.8-3775-2747.7z M-3772.5-2736.7l8.5-15.6h1.3l-8.5,15.6H-3772.5z M-3765.8-2741.5
			c0-1.5,0.3-2.7,1-3.5c0.7-0.8,1.5-1.3,2.5-1.3c1,0,1.9,0.4,2.5,1.3s1,2,1,3.6c0,1.5-0.3,2.7-1,3.5s-1.5,1.3-2.5,1.3
			c-1,0-1.9-0.4-2.5-1.3C-3765.5-2738.8-3765.8-2740-3765.8-2741.5z M-3763.8-2744.1c-0.4,0.6-0.5,1.5-0.5,2.6s0.2,2,0.5,2.6
			c0.4,0.6,0.8,0.9,1.4,0.9c0.6,0,1.1-0.3,1.4-0.9c0.4-0.6,0.5-1.5,0.5-2.6s-0.2-2-0.5-2.6c-0.4-0.6-0.8-0.9-1.4-0.9
			C-3762.9-2745.1-3763.4-2744.8-3763.8-2744.1z"/>
		<path class="st2" d="M-3757.6-2734.6h2.6v-17.6h-2.6v-1.1h4.1v19.8h-4.1V-2734.6z"/>
	</g>
	<g class="st1">
		<path class="st2" d="M-4116.5-2714.5c0-2.4,0.6-4.3,1.9-5.7s2.9-2.1,4.9-2.1c1.6,0,3,0.6,4.1,1.9l-1.1,1.2c-0.9-0.9-1.9-1.4-3-1.4
			c-1.4,0-2.6,0.5-3.5,1.6c-0.9,1.1-1.3,2.6-1.3,4.5c0,1.9,0.4,3.4,1.3,4.5c0.8,1.1,2,1.7,3.4,1.7c1.3,0,2.5-0.6,3.4-1.7l1.1,1.2
			c-1.2,1.5-2.8,2.2-4.6,2.2c-1.9,0-3.5-0.7-4.8-2.1C-4115.9-2710.2-4116.5-2712.1-4116.5-2714.5z"/>
		<path class="st2" d="M-4099-2712v-1.4h5.3v1.4H-4099z"/>
		<path class="st2" d="M-4088.2-2707l5.1-15.1h2.2l5.1,15.1h-2l-1.5-4.6h-5.5l-1.5,4.6H-4088.2z M-4084.3-2713.1h4.5l-0.7-2.3
			c-0.5-1.6-1-3.3-1.5-5.1h-0.1c-0.5,1.8-1,3.5-1.5,5.1L-4084.3-2713.1z"/>
		<path class="st2" d="M-4073.8-2707v-15.1h2.3l2.9,8.1l1.1,3.1h0.1l1.1-3.1l2.9-8.1h2.3v15.1h-1.8v-8.3c0-0.5,0.1-2,0.2-4.5h-0.1
			l-1.2,3.4l-2.9,7.9h-1.1l-2.9-7.9l-1.2-3.4h-0.1c0.1,2.2,0.2,3.7,0.2,4.5v8.3H-4073.8z"/>
		<path class="st2" d="M-4058.1-2714.5c0-2.4,0.6-4.3,1.9-5.7s2.9-2.1,4.9-2.1c1.6,0,3,0.6,4.1,1.9l-1.1,1.2c-0.9-0.9-1.9-1.4-3-1.4
			c-1.4,0-2.6,0.5-3.5,1.6c-0.9,1.1-1.3,2.6-1.3,4.5c0,1.9,0.4,3.4,1.3,4.5c0.8,1.1,2,1.7,3.4,1.7c1.3,0,2.5-0.6,3.4-1.7l1.1,1.2
			c-1.2,1.5-2.8,2.2-4.6,2.2c-1.9,0-3.5-0.7-4.8-2.1C-4057.5-2710.2-4058.1-2712.1-4058.1-2714.5z"/>
		<path class="st2" d="M-4045.9-2705.3h10.9v1.2h-10.9V-2705.3z"/>
		<path class="st2" d="M-4033.6-2714.5c0-2.4,0.6-4.3,1.9-5.7s2.9-2.1,4.9-2.1c1.6,0,3,0.6,4.1,1.9l-1.1,1.2c-0.9-0.9-1.9-1.4-3-1.4
			c-1.4,0-2.6,0.5-3.5,1.6c-0.9,1.1-1.3,2.6-1.3,4.5c0,1.9,0.4,3.4,1.3,4.5c0.8,1.1,2,1.7,3.4,1.7c1.3,0,2.5-0.6,3.4-1.7l1.1,1.2
			c-1.2,1.5-2.8,2.2-4.6,2.2c-1.9,0-3.5-0.7-4.8-2.1C-4033-2710.2-4033.6-2712.1-4033.6-2714.5z"/>
		<path class="st2" d="M-4019.8-2707v-16.4h1.9v4.5l-0.1,2.3c1.3-1.2,2.5-1.8,3.7-1.8c2.3,0,3.4,1.5,3.4,4.4v7.1h-1.9v-6.9
			c0-1-0.2-1.8-0.5-2.3c-0.3-0.5-0.9-0.7-1.6-0.7c-0.5,0-1,0.1-1.5,0.4s-1,0.7-1.6,1.3v8.1H-4019.8z"/>
		<path class="st2" d="M-4007.8-2709.9c0-1.2,0.5-2.1,1.6-2.8c1.1-0.7,2.8-1.1,5.2-1.4c0-1.9-0.8-2.8-2.3-2.8
			c-1.1,0-2.2,0.4-3.3,1.2l-0.8-1.3c1.5-1,3-1.4,4.4-1.4c1.3,0,2.3,0.4,2.9,1.2c0.6,0.8,1,1.9,1,3.4v6.9h-1.6l-0.2-1.3h0
			c-1.3,1.1-2.6,1.6-3.7,1.6c-1,0-1.8-0.3-2.4-0.9S-4007.8-2708.9-4007.8-2709.9z M-4006-2710c0,0.6,0.2,1,0.5,1.3
			c0.4,0.3,0.8,0.4,1.4,0.4c0.9,0,1.9-0.5,3-1.5v-3.1c-1.8,0.2-3.1,0.6-3.9,1C-4005.6-2711.4-4006-2710.8-4006-2710z"/>
		<path class="st2" d="M-3995.5-2707v-11.2h1.6l0.2,1.6h0.1c1.3-1.2,2.5-1.9,3.8-1.9c2.3,0,3.4,1.5,3.4,4.4v7.1h-1.9v-6.9
			c0-1-0.2-1.8-0.5-2.3c-0.3-0.5-0.9-0.7-1.6-0.7c-0.5,0-1,0.1-1.5,0.4s-1,0.7-1.6,1.3v8.1H-3995.5z"/>
		<path class="st2" d="M-3982.5-2702.6c-0.8-0.5-1.3-1.3-1.3-2.2c0-1,0.5-1.8,1.6-2.5v-0.1c-0.6-0.4-1-1-1-1.8
			c0-0.8,0.4-1.5,1.2-2.1v-0.1c-1-0.8-1.4-1.8-1.4-3c0-1.2,0.4-2.1,1.2-2.9s1.8-1.1,3-1.1c0.6,0,1.1,0.1,1.6,0.3h3.9v1.4h-2.3
			c0.6,0.6,0.9,1.4,0.9,2.3c0,1.2-0.4,2.1-1.2,2.8c-0.8,0.7-1.8,1.1-2.9,1.1c-0.6,0-1.2-0.1-1.7-0.4c-0.5,0.4-0.7,0.9-0.7,1.4
			c0,0.8,0.6,1.2,1.9,1.2c0,0,0,0,0,0h2.2c1.3,0,2.3,0.2,2.9,0.6s1,1.1,1,2c0,1.1-0.5,2-1.6,2.7c-1,0.8-2.4,1.1-4.1,1.1
			C-3980.6-2701.8-3981.7-2702.1-3982.5-2702.6z M-3982.1-2705.1c0,0.6,0.3,1.1,0.9,1.4c0.6,0.4,1.4,0.5,2.4,0.5
			c1,0,1.9-0.2,2.5-0.7c0.7-0.5,1-1,1-1.6c0-0.5-0.2-0.9-0.6-1.1s-0.9-0.3-1.7-0.3h-1.9c-0.5,0-1-0.1-1.5-0.2
			C-3981.8-2706.4-3982.1-2705.8-3982.1-2705.1z M-3980.9-2716.4c-0.5,0.5-0.7,1.1-0.7,1.9c0,0.8,0.2,1.4,0.7,1.9
			c0.5,0.5,1,0.7,1.7,0.7c0.7,0,1.2-0.2,1.7-0.7c0.5-0.5,0.7-1.1,0.7-1.9c0-0.8-0.2-1.4-0.7-1.9s-1-0.7-1.7-0.7
			C-3979.9-2717.1-3980.4-2716.8-3980.9-2716.4z"/>
		<path class="st2" d="M-3972.5-2712.6c0-1.7,0.5-3.2,1.5-4.3c1-1.1,2.2-1.6,3.5-1.6c1.4,0,2.5,0.5,3.3,1.4c0.8,0.9,1.2,2.2,1.2,3.8
			c0,0.4,0,0.8-0.1,1h-7.5c0.1,1.2,0.4,2.2,1.1,2.9s1.5,1.1,2.6,1.1c1,0,1.9-0.3,2.8-0.9l0.7,1.2c-1.2,0.8-2.4,1.2-3.7,1.2
			c-1.5,0-2.8-0.5-3.8-1.6C-3972-2709.4-3972.5-2710.8-3972.5-2712.6z M-3970.7-2713.4h6c0-1.1-0.2-2-0.7-2.6
			c-0.5-0.6-1.2-0.9-2-0.9c-0.8,0-1.5,0.3-2.1,1S-3970.5-2714.5-3970.7-2713.4z"/>
		<path class="st2" d="M-3955.2-2708.7c-0.8-1.3-1.2-3.2-1.2-5.7s0.4-4.3,1.2-5.6s2-2,3.5-2c1.5,0,2.6,0.7,3.4,2
			c0.8,1.3,1.2,3.2,1.2,5.6s-0.4,4.3-1.2,5.7c-0.8,1.3-2,2-3.4,2C-3953.2-2706.7-3954.4-2707.4-3955.2-2708.7z M-3954.6-2714.4
			c0,2.1,0.3,3.6,0.8,4.6c0.5,1,1.2,1.5,2.1,1.5c0.9,0,1.6-0.5,2.1-1.5s0.8-2.5,0.8-4.6c0-4-1-6-2.9-6
			C-3953.7-2720.4-3954.6-2718.4-3954.6-2714.4z"/>
		<path class="st2" d="M-3944.2-2707v-1.5h3.4v-10.8h-2.7v-1.2c1.2-0.2,2.3-0.6,3.1-1.1h1.4v13.1h3v1.5H-3944.2z"/>
		<path class="st2" d="M-3934.4-2703.3l6.2-19.5l1.5-0.5l-6.2,19.5L-3934.4-2703.3z"/>
		<path class="st2" d="M-3924.3-2708.7c-0.8-1.3-1.2-3.2-1.2-5.7s0.4-4.3,1.2-5.6s2-2,3.5-2c1.5,0,2.6,0.7,3.4,2
			c0.8,1.3,1.2,3.2,1.2,5.6s-0.4,4.3-1.2,5.7c-0.8,1.3-2,2-3.4,2C-3922.4-2706.7-3923.5-2707.4-3924.3-2708.7z M-3923.8-2714.4
			c0,2.1,0.3,3.6,0.8,4.6c0.5,1,1.2,1.5,2.1,1.5c0.9,0,1.6-0.5,2.1-1.5s0.8-2.5,0.8-4.6c0-4-1-6-2.9-6
			C-3922.8-2720.4-3923.8-2718.4-3923.8-2714.4z"/>
		<path class="st2" d="M-3914.2-2710.7c0-1.7,0.9-3,2.8-4v-0.1c-1.4-0.9-2.1-2.1-2.1-3.4c0-1.1,0.4-2,1.2-2.7s1.8-1,3-1
			c1.3,0,2.3,0.4,3,1.1s1.1,1.7,1.1,2.8c0,0.7-0.2,1.4-0.6,2c-0.4,0.6-0.9,1.1-1.4,1.6v0.1c0.8,0.5,1.4,1,1.9,1.6
			c0.5,0.6,0.7,1.3,0.7,2.2c0,1.1-0.4,2-1.3,2.8c-0.9,0.7-2,1.1-3.4,1.1c-1.4,0-2.5-0.4-3.4-1.1
			C-3913.8-2708.6-3914.2-2709.6-3914.2-2710.7z M-3912.5-2710.9c0,0.8,0.3,1.5,0.9,2c0.6,0.5,1.3,0.8,2.3,0.8
			c0.8,0,1.5-0.2,2.1-0.7c0.5-0.5,0.8-1.1,0.8-1.9c0-0.4-0.1-0.7-0.2-1c-0.2-0.3-0.3-0.6-0.5-0.7c-0.2-0.2-0.5-0.4-0.9-0.6
			c-0.5-0.2-0.8-0.4-1-0.5c-0.2-0.1-0.6-0.3-1.3-0.5C-3911.8-2713.2-3912.5-2712.1-3912.5-2710.9z M-3911.7-2718.2
			c0,0.8,0.3,1.4,0.9,1.9s1.4,0.9,2.5,1.3c1-0.9,1.5-1.9,1.5-2.9c0-0.8-0.2-1.4-0.7-1.9s-1.1-0.7-1.9-0.7c-0.7,0-1.3,0.2-1.7,0.7
			C-3911.5-2719.5-3911.7-2718.9-3911.7-2718.2z"/>
		<path class="st2" d="M-3903.5-2703.3l6.2-19.5l1.5-0.5l-6.2,19.5L-3903.5-2703.3z"/>
		<path class="st2" d="M-3894.9-2719.7c1.4-1.5,2.8-2.2,4.4-2.2c1.3,0,2.4,0.4,3.2,1.2c0.8,0.8,1.2,1.8,1.2,3.1
			c0,1.3-0.5,2.5-1.4,3.9s-2.5,3.1-4.6,5.3c1.1-0.1,1.9-0.1,2.5-0.1h4.3v1.6h-9.5v-1.1c1.3-1.3,2.3-2.3,3-3c0.7-0.8,1.4-1.5,2.1-2.4
			c0.7-0.8,1.2-1.6,1.4-2.2c0.3-0.6,0.4-1.2,0.4-1.8c0-0.9-0.2-1.6-0.7-2.1c-0.5-0.5-1.2-0.8-2.1-0.8c-1.1,0-2.1,0.6-3.1,1.8
			L-3894.9-2719.7z"/>
		<path class="st2" d="M-3882-2708.7c-0.8-1.3-1.2-3.2-1.2-5.7s0.4-4.3,1.2-5.6s2-2,3.5-2c1.5,0,2.6,0.7,3.4,2
			c0.8,1.3,1.2,3.2,1.2,5.6s-0.4,4.3-1.2,5.7c-0.8,1.3-2,2-3.4,2C-3880.1-2706.7-3881.2-2707.4-3882-2708.7z M-3881.4-2714.4
			c0,2.1,0.3,3.6,0.8,4.6c0.5,1,1.2,1.5,2.1,1.5c0.9,0,1.6-0.5,2.1-1.5s0.8-2.5,0.8-4.6c0-4-1-6-2.9-6
			C-3880.5-2720.4-3881.4-2718.4-3881.4-2714.4z"/>
		<path class="st2" d="M-3871-2707v-1.5h3.4v-10.8h-2.7v-1.2c1.2-0.2,2.3-0.6,3.1-1.1h1.4v13.1h3v1.5H-3871z"/>
		<path class="st2" d="M-3860.3-2713.8c0-2.8,0.5-4.8,1.6-6.2c1.1-1.3,2.4-2,4-2c1.4,0,2.6,0.5,3.5,1.6l-1,1.2
			c-0.6-0.8-1.5-1.1-2.4-1.2c-1.1,0-2,0.5-2.7,1.5c-0.7,1-1.1,2.6-1.1,4.8c0.5-0.6,1-1,1.6-1.3c0.6-0.3,1.2-0.5,1.8-0.5
			c1.3,0,2.3,0.4,3.1,1.2s1.1,1.9,1.1,3.4c0,1.4-0.4,2.5-1.3,3.4c-0.8,0.9-1.9,1.3-3.1,1.3c-1.5,0-2.7-0.6-3.6-1.8
			C-3859.9-2709.8-3860.3-2711.5-3860.3-2713.8z M-3858.5-2712.6c0.1,1.4,0.5,2.5,1,3.3c0.5,0.8,1.3,1.1,2.2,1.1
			c0.7,0,1.3-0.3,1.8-0.9c0.5-0.6,0.7-1.4,0.7-2.3c0-1-0.2-1.8-0.7-2.3c-0.5-0.5-1.1-0.8-2-0.8
			C-3856.6-2714.5-3857.6-2713.9-3858.5-2712.6z"/>
		<path class="st2" d="M-3844.8-2720.5v-1.6h11.1v1.6h-4.6v13.5h-1.9v-13.5H-3844.8z"/>
		<path class="st2" d="M-3831.2-2707v-15.1h4.7c3.5,0,5.3,1.4,5.3,4.2c0,1.1-0.3,2.1-0.9,2.8c-0.6,0.7-1.4,1.2-2.5,1.5l3.8,6.6h-2.2
			l-3.6-6.3h-2.7v6.3H-3831.2z M-3829.2-2714.9h2.5c2.4,0,3.6-1,3.6-2.9c0-1-0.3-1.7-0.9-2.1c-0.6-0.4-1.5-0.6-2.7-0.6h-2.5V-2714.9
			z"/>
		<path class="st2" d="M-3813.8-2721.7c0-0.4,0.1-0.7,0.4-0.9s0.6-0.3,0.9-0.3s0.7,0.1,0.9,0.3c0.3,0.2,0.4,0.5,0.4,0.9
			c0,0.4-0.1,0.6-0.4,0.9c-0.3,0.2-0.6,0.3-0.9,0.3s-0.7-0.1-0.9-0.3C-3813.6-2721.1-3813.8-2721.3-3813.8-2721.7z M-3813.4-2707
			v-11.2h1.9v11.2H-3813.4z"/>
		<path class="st2" d="M-3807.8-2707v-11.2h1.6l0.2,1.6h0.1c1.3-1.2,2.5-1.9,3.8-1.9c2.3,0,3.4,1.5,3.4,4.4v7.1h-1.9v-6.9
			c0-1-0.2-1.8-0.5-2.3c-0.3-0.5-0.9-0.7-1.6-0.7c-0.5,0-1,0.1-1.5,0.4c-0.4,0.3-1,0.7-1.6,1.3v8.1H-3807.8z"/>
		<path class="st2" d="M-3791.3-2714.5c0-2.4,0.6-4.3,1.9-5.7c1.3-1.4,3-2.1,5-2.1c1.7,0,3.1,0.6,4.3,1.9l-1.1,1.2
			c-0.9-0.9-2-1.4-3.2-1.4c-1.5,0-2.8,0.5-3.7,1.6c-0.9,1.1-1.4,2.6-1.4,4.5c0,1.9,0.4,3.4,1.3,4.5c0.9,1.1,2.1,1.7,3.7,1.7
			c1.2,0,2.1-0.3,2.7-0.9v-3.9h-3.2v-1.6h4.9v6.4c-1.2,1.2-2.7,1.7-4.7,1.7c-2,0-3.6-0.7-4.9-2.1S-3791.3-2712.1-3791.3-2714.5z"/>
		<path class="st2" d="M-3776.4-2707v-15.1h4.5c1.6,0,2.9,0.3,3.8,0.9c0.9,0.6,1.4,1.5,1.4,2.8c0,0.8-0.2,1.5-0.7,2.1s-1.1,1-2,1.2
			v0.1c2.3,0.4,3.5,1.6,3.5,3.6c0,1.4-0.5,2.5-1.5,3.3c-1,0.8-2.4,1.1-4.2,1.1H-3776.4z M-3774.4-2715.6h2.2c2.4,0,3.6-0.9,3.6-2.6
			c0-1.5-1.2-2.3-3.5-2.3h-2.3V-2715.6z M-3774.4-2708.5h2.6c2.7,0,4.1-1,4.1-3c0-1.8-1.4-2.7-4.1-2.7h-2.6V-2708.5z"/>
		<path class="st2" d="M-3758.1-2703.5v-19.8h4.1v1.1h-2.6v17.6h2.6v1.1H-3758.1z"/>
		<path class="st2" d="M-3752.4-2712v-1.4h5.3v1.4H-3752.4z"/>
		<path class="st2" d="M-3745.2-2720v-1.6h9.4v1.2c-1.7,2.1-2.8,4.1-3.3,6c-0.6,1.9-0.9,4.4-1.1,7.5h-2c0.1-2.8,0.5-5.1,1.1-7.1
			c0.6-2,1.7-3.9,3.1-5.9H-3745.2z"/>
		<path class="st2" d="M-3733.3-2708.1c0-0.4,0.1-0.8,0.4-1.1c0.3-0.3,0.6-0.4,0.9-0.4s0.7,0.1,0.9,0.4c0.3,0.3,0.4,0.6,0.4,1.1
			c0,0.4-0.1,0.8-0.4,1c-0.3,0.3-0.6,0.4-0.9,0.4c-0.4,0-0.7-0.1-0.9-0.4C-3733.2-2707.4-3733.3-2707.7-3733.3-2708.1z"/>
		<path class="st2" d="M-3728-2713.8c0-2.8,0.5-4.8,1.6-6.2s2.4-2,4-2c1.4,0,2.6,0.5,3.5,1.6l-1,1.2c-0.6-0.8-1.5-1.1-2.4-1.2
			c-1.1,0-2,0.5-2.7,1.5c-0.7,1-1.1,2.6-1.1,4.8c0.5-0.6,1-1,1.6-1.3s1.2-0.5,1.8-0.5c1.3,0,2.3,0.4,3.1,1.2s1.1,1.9,1.1,3.4
			c0,1.4-0.4,2.5-1.3,3.4c-0.8,0.9-1.9,1.3-3.1,1.3c-1.5,0-2.7-0.6-3.6-1.8C-3727.5-2709.8-3728-2711.5-3728-2713.8z
			 M-3726.2-2712.6c0.1,1.4,0.5,2.5,1,3.3c0.5,0.8,1.3,1.1,2.2,1.1c0.7,0,1.3-0.3,1.8-0.9c0.5-0.6,0.7-1.4,0.7-2.3
			c0-1-0.2-1.8-0.7-2.3c-0.5-0.5-1.1-0.8-2-0.8C-3724.2-2714.5-3725.2-2713.9-3726.2-2712.6z"/>
		<path class="st2" d="M-3717.3-2711v-1.3l6.3-9.4h2.1v9.1h2v1.5h-2v4h-1.8v-4H-3717.3z M-3715.3-2712.6h4.6v-4.2
			c0-0.6,0-1.5,0.1-2.8h-0.1c0,0.1-0.4,0.7-1.2,2.1L-3715.3-2712.6z"/>
		<path class="st2" d="M-3704.4-2714.1c-0.7-0.8-1-2-1-3.5s0.3-2.7,0.9-3.5s1.5-1.2,2.6-1.2c1.1,0,1.9,0.4,2.5,1.2
			c0.6,0.8,0.9,2,0.9,3.5c0,1.5-0.3,2.7-1,3.6s-1.5,1.3-2.5,1.3C-3703-2712.8-3703.8-2713.2-3704.4-2714.1z M-3703.9-2717.7
			c0,1.2,0.2,2.1,0.5,2.7s0.8,0.9,1.5,0.9c0.6,0,1.1-0.3,1.4-1c0.4-0.6,0.5-1.5,0.5-2.7c0-1.1-0.2-2-0.5-2.6s-0.8-0.9-1.4-0.9
			c-0.6,0-1.1,0.3-1.5,0.9S-3703.9-2718.8-3703.9-2717.7z M-3701.5-2706.7l8.5-15.6h1.3l-8.5,15.6H-3701.5z M-3694.8-2711.5
			c0-1.5,0.3-2.7,1-3.5c0.7-0.8,1.5-1.3,2.5-1.3c1,0,1.9,0.4,2.5,1.3s1,2,1,3.6c0,1.5-0.3,2.7-1,3.5s-1.5,1.3-2.5,1.3
			c-1,0-1.9-0.4-2.5-1.3C-3694.5-2708.8-3694.8-2710-3694.8-2711.5z M-3692.7-2714.1c-0.4,0.6-0.5,1.5-0.5,2.6s0.2,2,0.5,2.6
			c0.4,0.6,0.8,0.9,1.4,0.9c0.6,0,1.1-0.3,1.4-0.9c0.4-0.6,0.5-1.5,0.5-2.6s-0.2-2-0.5-2.6c-0.4-0.6-0.8-0.9-1.4-0.9
			C-3691.9-2715.1-3692.4-2714.8-3692.7-2714.1z"/>
		<path class="st2" d="M-3686.6-2704.6h2.6v-17.6h-2.6v-1.1h4.1v19.8h-4.1V-2704.6z"/>
	</g>
	<rect x="-4145" y="-2781.9" class="st3" width="15.9" height="15.9"/>
	<rect x="-4145" y="-2752.7" class="st4" width="15.9" height="15.9"/>
	<path class="st5" d="M-4145-2721.9h15.9v15.9h-15.9V-2721.9z"/>
	<rect x="-4145" y="-2977" class="st6" width="833" height="1"/>
	<rect x="-4145" y="-2910.2" class="st6" width="833" height="1"/>
	<rect x="-4145" y="-2838.2" class="st7" width="833" height="2"/>
	<rect x="-4145" y="-3230.4" class="st6" width="833" height="1"/>
	<rect x="-4145" y="-3298.4" class="st6" width="833" height="1"/>
	<rect x="-4145" y="-3104.7" class="st6" width="833" height="1"/>
	<rect x="-4145" y="-3039.5" class="st6" width="833" height="1"/>
	<rect x="-4145.2" y="-3298" class="st8" width="2" height="459.8"/>
	<rect x="-4136.2" y="-3298" class="st6" width="1" height="459.8"/>
	<rect x="-3984.5" y="-3298" class="st6" width="1" height="459.8"/>
	<rect x="-3850.9" y="-3298" class="st6" width="1" height="459.8"/>
	<rect x="-3717.3" y="-3298" class="st6" width="1" height="459.8"/>
	<rect x="-3583.8" y="-3298" class="st6" width="1" height="459.8"/>
	<rect x="-3449.8" y="-3298" class="st6" width="1" height="459.8"/>
	<rect x="-3313" y="-3298" class="st6" width="1" height="459.8"/>
	<g class="st1">
		<path class="st2" d="M-4141-2809v-15.1h8.7v1.6h-6.8v5.1h5.8v1.6h-5.8v6.8H-4141z"/>
		<path class="st2" d="M-4131-2814.6c0-1.7,0.5-3.2,1.5-4.3c1-1.1,2.2-1.6,3.5-1.6c1.4,0,2.5,0.5,3.3,1.4c0.8,0.9,1.2,2.2,1.2,3.8
			c0,0.4,0,0.8-0.1,1h-7.5c0.1,1.2,0.4,2.2,1.1,2.9s1.5,1.1,2.6,1.1c1,0,1.9-0.3,2.8-0.9l0.7,1.2c-1.2,0.8-2.4,1.2-3.7,1.2
			c-1.5,0-2.8-0.5-3.8-1.6C-4130.5-2811.4-4131-2812.8-4131-2814.6z M-4129.2-2815.4h6c0-1.1-0.2-2-0.7-2.6c-0.5-0.6-1.2-0.9-2-0.9
			c-0.8,0-1.5,0.3-2.1,1S-4129.1-2816.5-4129.2-2815.4z"/>
		<path class="st2" d="M-4118.7-2809v-16.4h1.9v4.5l0,2c1.2-1.1,2.3-1.6,3.5-1.6c1.4,0,2.5,0.5,3.3,1.5s1.1,2.4,1.1,4.2
			c0,1.8-0.5,3.3-1.4,4.4s-2.1,1.6-3.4,1.6c-1.1,0-2.1-0.5-3.2-1.4h-0.1l-0.2,1.1H-4118.7z M-4116.8-2811.5c0.9,0.8,1.8,1.2,2.7,1.2
			c0.9,0,1.7-0.4,2.3-1.2c0.6-0.8,0.9-1.9,0.9-3.2c0-2.7-1-4.1-2.9-4.1c-0.9,0-1.9,0.5-3,1.5V-2811.5z"/>
		<path class="st2" d="M-4101.4-2809v-1.5h3.4v-10.8h-2.7v-1.2c1.2-0.2,2.3-0.6,3.1-1.1h1.4v13.1h3v1.5H-4101.4z"/>
		<path class="st2" d="M-4090.9-2812.7c0-1.7,0.9-3,2.8-4v-0.1c-1.4-0.9-2.1-2.1-2.1-3.4c0-1.1,0.4-2,1.2-2.7s1.8-1,3-1
			c1.3,0,2.3,0.4,3,1.1s1.1,1.7,1.1,2.8c0,0.7-0.2,1.4-0.6,2c-0.4,0.6-0.9,1.1-1.4,1.6v0.1c0.8,0.5,1.4,1,1.9,1.6
			c0.5,0.6,0.7,1.3,0.7,2.2c0,1.1-0.4,2-1.3,2.8c-0.9,0.7-2,1.1-3.4,1.1c-1.4,0-2.5-0.4-3.4-1.1
			C-4090.4-2810.6-4090.9-2811.6-4090.9-2812.7z M-4089.1-2812.9c0,0.8,0.3,1.5,0.9,2c0.6,0.5,1.3,0.8,2.3,0.8
			c0.8,0,1.5-0.2,2.1-0.7c0.5-0.5,0.8-1.1,0.8-1.9c0-0.4-0.1-0.7-0.2-1c-0.2-0.3-0.3-0.6-0.5-0.7c-0.2-0.2-0.5-0.4-0.9-0.6
			c-0.5-0.2-0.8-0.4-1-0.5c-0.2-0.1-0.6-0.3-1.3-0.5C-4088.5-2815.2-4089.1-2814.1-4089.1-2812.9z M-4088.4-2820.2
			c0,0.8,0.3,1.4,0.9,1.9s1.4,0.9,2.5,1.3c1-0.9,1.5-1.9,1.5-2.9c0-0.8-0.2-1.4-0.7-1.9s-1.1-0.7-1.9-0.7c-0.7,0-1.3,0.2-1.7,0.7
			C-4088.2-2821.5-4088.4-2820.9-4088.4-2820.2z"/>
	</g>
	<g class="st1">
		<path class="st2" d="M-4182-3294v-1.3l6.3-9.4h2.1v9.1h2v1.5h-2v4h-1.8v-4H-4182z M-4180-3295.6h4.6v-4.2c0-0.6,0-1.5,0.1-2.8
			h-0.1c0,0.1-0.4,0.7-1.2,2.1L-4180-3295.6z"/>
		<path class="st2" d="M-4169.2-3297.1c-0.7-0.8-1-2-1-3.5s0.3-2.7,0.9-3.5s1.5-1.2,2.6-1.2c1.1,0,1.9,0.4,2.5,1.2
			c0.6,0.8,0.9,2,0.9,3.5c0,1.5-0.3,2.7-1,3.6s-1.5,1.3-2.5,1.3C-4167.7-3295.8-4168.5-3296.2-4169.2-3297.1z M-4168.6-3300.7
			c0,1.2,0.2,2.1,0.5,2.7s0.8,0.9,1.5,0.9c0.6,0,1.1-0.3,1.4-1s0.5-1.5,0.5-2.7c0-1.1-0.2-2-0.5-2.6s-0.8-0.9-1.4-0.9
			c-0.6,0-1.1,0.3-1.5,0.9S-4168.6-3301.8-4168.6-3300.7z M-4166.2-3289.7l8.5-15.6h1.3l-8.5,15.6H-4166.2z M-4159.5-3294.5
			c0-1.5,0.3-2.7,1-3.5c0.7-0.8,1.5-1.3,2.5-1.3c1,0,1.9,0.4,2.5,1.3s1,2,1,3.6c0,1.5-0.3,2.7-1,3.5s-1.5,1.3-2.5,1.3
			c-1,0-1.9-0.4-2.5-1.3C-4159.2-3291.8-4159.5-3293-4159.5-3294.5z M-4157.4-3297.1c-0.4,0.6-0.5,1.5-0.5,2.6s0.2,2,0.5,2.6
			c0.4,0.6,0.8,0.9,1.4,0.9s1.1-0.3,1.4-0.9s0.5-1.5,0.5-2.6s-0.2-2-0.5-2.6c-0.4-0.6-0.8-0.9-1.4-0.9
			C-4156.6-3298.1-4157.1-3297.8-4157.4-3297.1z"/>
	</g>
	<g class="st1">
		<path class="st2" d="M-4181.5-3238.7c1.4-1.5,2.8-2.2,4.4-2.2c1.3,0,2.4,0.4,3.2,1.2c0.8,0.8,1.2,1.8,1.2,3.1
			c0,1.3-0.5,2.5-1.4,3.9s-2.5,3.1-4.6,5.3c1.1-0.1,1.9-0.1,2.5-0.1h4.3v1.6h-9.5v-1.1c1.3-1.3,2.3-2.3,3-3c0.7-0.8,1.4-1.5,2.1-2.4
			c0.7-0.8,1.2-1.6,1.4-2.2c0.3-0.6,0.4-1.2,0.4-1.8c0-0.9-0.2-1.6-0.7-2.1c-0.5-0.5-1.2-0.8-2.1-0.8c-1.1,0-2.1,0.6-3.1,1.8
			L-4181.5-3238.7z"/>
		<path class="st2" d="M-4169.2-3233.1c-0.7-0.8-1-2-1-3.5s0.3-2.7,0.9-3.5s1.5-1.2,2.6-1.2c1.1,0,1.9,0.4,2.5,1.2
			c0.6,0.8,0.9,2,0.9,3.5c0,1.5-0.3,2.7-1,3.6s-1.5,1.3-2.5,1.3C-4167.7-3231.8-4168.5-3232.2-4169.2-3233.1z M-4168.6-3236.7
			c0,1.2,0.2,2.1,0.5,2.7s0.8,0.9,1.5,0.9c0.6,0,1.1-0.3,1.4-1s0.5-1.5,0.5-2.7c0-1.1-0.2-2-0.5-2.6s-0.8-0.9-1.4-0.9
			c-0.6,0-1.1,0.3-1.5,0.9S-4168.6-3237.8-4168.6-3236.7z M-4166.2-3225.7l8.5-15.6h1.3l-8.5,15.6H-4166.2z M-4159.5-3230.5
			c0-1.5,0.3-2.7,1-3.5c0.7-0.8,1.5-1.3,2.5-1.3c1,0,1.9,0.4,2.5,1.3s1,2,1,3.6c0,1.5-0.3,2.7-1,3.5s-1.5,1.3-2.5,1.3
			c-1,0-1.9-0.4-2.5-1.3C-4159.2-3227.8-4159.5-3229-4159.5-3230.5z M-4157.4-3233.1c-0.4,0.6-0.5,1.5-0.5,2.6s0.2,2,0.5,2.6
			c0.4,0.6,0.8,0.9,1.4,0.9s1.1-0.3,1.4-0.9s0.5-1.5,0.5-2.6s-0.2-2-0.5-2.6c-0.4-0.6-0.8-0.9-1.4-0.9
			C-4156.6-3234.1-4157.1-3233.8-4157.4-3233.1z"/>
	</g>
	<g class="st1">
		<path class="st2" d="M-4180.1-3162.7c-0.8-1.3-1.2-3.2-1.2-5.7s0.4-4.3,1.2-5.6s2-2,3.5-2c1.5,0,2.6,0.7,3.4,2
			c0.8,1.3,1.2,3.2,1.2,5.6s-0.4,4.3-1.2,5.7c-0.8,1.3-2,2-3.4,2C-4178.1-3160.7-4179.3-3161.4-4180.1-3162.7z M-4179.5-3168.4
			c0,2.1,0.3,3.6,0.8,4.6c0.5,1,1.2,1.5,2.1,1.5c0.9,0,1.6-0.5,2.1-1.5s0.8-2.5,0.8-4.6c0-4-1-6-2.9-6
			C-4178.6-3174.4-4179.5-3172.4-4179.5-3168.4z"/>
		<path class="st2" d="M-4169.2-3168.1c-0.7-0.8-1-2-1-3.5s0.3-2.7,0.9-3.5s1.5-1.2,2.6-1.2c1.1,0,1.9,0.4,2.5,1.2
			c0.6,0.8,0.9,2,0.9,3.5c0,1.5-0.3,2.7-1,3.6s-1.5,1.3-2.5,1.3C-4167.7-3166.8-4168.5-3167.2-4169.2-3168.1z M-4168.6-3171.7
			c0,1.2,0.2,2.1,0.5,2.7s0.8,0.9,1.5,0.9c0.6,0,1.1-0.3,1.4-1s0.5-1.5,0.5-2.7c0-1.1-0.2-2-0.5-2.6s-0.8-0.9-1.4-0.9
			c-0.6,0-1.1,0.3-1.5,0.9S-4168.6-3172.8-4168.6-3171.7z M-4166.2-3160.7l8.5-15.6h1.3l-8.5,15.6H-4166.2z M-4159.5-3165.5
			c0-1.5,0.3-2.7,1-3.5c0.7-0.8,1.5-1.3,2.5-1.3c1,0,1.9,0.4,2.5,1.3s1,2,1,3.6c0,1.5-0.3,2.7-1,3.5s-1.5,1.3-2.5,1.3
			c-1,0-1.9-0.4-2.5-1.3C-4159.2-3162.8-4159.5-3164-4159.5-3165.5z M-4157.4-3168.1c-0.4,0.6-0.5,1.5-0.5,2.6s0.2,2,0.5,2.6
			c0.4,0.6,0.8,0.9,1.4,0.9s1.1-0.3,1.4-0.9s0.5-1.5,0.5-2.6s-0.2-2-0.5-2.6c-0.4-0.6-0.8-0.9-1.4-0.9
			C-4156.6-3169.1-4157.1-3168.8-4157.4-3168.1z"/>
	</g>
	<g class="st1">
		<path class="st2" d="M-4188.6-3102v-1.4h5.3v1.4H-4188.6z"/>
		<path class="st2" d="M-4181.5-3109.7c1.4-1.5,2.8-2.2,4.4-2.2c1.3,0,2.4,0.4,3.2,1.2c0.8,0.8,1.2,1.8,1.2,3.1
			c0,1.3-0.5,2.5-1.4,3.9s-2.5,3.1-4.6,5.3c1.1-0.1,1.9-0.1,2.5-0.1h4.3v1.6h-9.5v-1.1c1.3-1.3,2.3-2.3,3-3c0.7-0.8,1.4-1.5,2.1-2.4
			c0.7-0.8,1.2-1.6,1.4-2.2c0.3-0.6,0.4-1.2,0.4-1.8c0-0.9-0.2-1.6-0.7-2.1c-0.5-0.5-1.2-0.8-2.1-0.8c-1.1,0-2.1,0.6-3.1,1.8
			L-4181.5-3109.7z"/>
		<path class="st2" d="M-4169.2-3104.1c-0.7-0.8-1-2-1-3.5s0.3-2.7,0.9-3.5s1.5-1.2,2.6-1.2c1.1,0,1.9,0.4,2.5,1.2
			c0.6,0.8,0.9,2,0.9,3.5c0,1.5-0.3,2.7-1,3.6s-1.5,1.3-2.5,1.3C-4167.7-3102.8-4168.5-3103.2-4169.2-3104.1z M-4168.6-3107.7
			c0,1.2,0.2,2.1,0.5,2.7s0.8,0.9,1.5,0.9c0.6,0,1.1-0.3,1.4-1s0.5-1.5,0.5-2.7c0-1.1-0.2-2-0.5-2.6s-0.8-0.9-1.4-0.9
			c-0.6,0-1.1,0.3-1.5,0.9S-4168.6-3108.8-4168.6-3107.7z M-4166.2-3096.7l8.5-15.6h1.3l-8.5,15.6H-4166.2z M-4159.5-3101.5
			c0-1.5,0.3-2.7,1-3.5c0.7-0.8,1.5-1.3,2.5-1.3c1,0,1.9,0.4,2.5,1.3s1,2,1,3.6c0,1.5-0.3,2.7-1,3.5s-1.5,1.3-2.5,1.3
			c-1,0-1.9-0.4-2.5-1.3C-4159.2-3098.8-4159.5-3100-4159.5-3101.5z M-4157.4-3104.1c-0.4,0.6-0.5,1.5-0.5,2.6s0.2,2,0.5,2.6
			c0.4,0.6,0.8,0.9,1.4,0.9s1.1-0.3,1.4-0.9s0.5-1.5,0.5-2.6s-0.2-2-0.5-2.6c-0.4-0.6-0.8-0.9-1.4-0.9
			C-4156.6-3105.1-4157.1-3104.8-4157.4-3104.1z"/>
	</g>
	<g class="st1">
		<path class="st2" d="M-4188.6-3038v-1.4h5.3v1.4H-4188.6z"/>
		<path class="st2" d="M-4182-3037v-1.3l6.3-9.4h2.1v9.1h2v1.5h-2v4h-1.8v-4H-4182z M-4180-3038.6h4.6v-4.2c0-0.6,0-1.5,0.1-2.8
			h-0.1c0,0.1-0.4,0.7-1.2,2.1L-4180-3038.6z"/>
		<path class="st2" d="M-4169.2-3040.1c-0.7-0.8-1-2-1-3.5s0.3-2.7,0.9-3.5s1.5-1.2,2.6-1.2c1.1,0,1.9,0.4,2.5,1.2
			c0.6,0.8,0.9,2,0.9,3.5c0,1.5-0.3,2.7-1,3.6s-1.5,1.3-2.5,1.3C-4167.7-3038.8-4168.5-3039.2-4169.2-3040.1z M-4168.6-3043.7
			c0,1.2,0.2,2.1,0.5,2.7s0.8,0.9,1.5,0.9c0.6,0,1.1-0.3,1.4-1s0.5-1.5,0.5-2.7c0-1.1-0.2-2-0.5-2.6s-0.8-0.9-1.4-0.9
			c-0.6,0-1.1,0.3-1.5,0.9S-4168.6-3044.8-4168.6-3043.7z M-4166.2-3032.7l8.5-15.6h1.3l-8.5,15.6H-4166.2z M-4159.5-3037.5
			c0-1.5,0.3-2.7,1-3.5c0.7-0.8,1.5-1.3,2.5-1.3c1,0,1.9,0.4,2.5,1.3s1,2,1,3.6c0,1.5-0.3,2.7-1,3.5s-1.5,1.3-2.5,1.3
			c-1,0-1.9-0.4-2.5-1.3C-4159.2-3034.8-4159.5-3036-4159.5-3037.5z M-4157.4-3040.1c-0.4,0.6-0.5,1.5-0.5,2.6s0.2,2,0.5,2.6
			c0.4,0.6,0.8,0.9,1.4,0.9s1.1-0.3,1.4-0.9s0.5-1.5,0.5-2.6s-0.2-2-0.5-2.6c-0.4-0.6-0.8-0.9-1.4-0.9
			C-4156.6-3041.1-4157.1-3040.8-4157.4-3040.1z"/>
	</g>
	<g class="st1">
		<path class="st2" d="M-4188.6-2974v-1.4h5.3v1.4H-4188.6z"/>
		<path class="st2" d="M-4181.3-2975.8c0-2.8,0.5-4.8,1.6-6.2c1.1-1.3,2.4-2,4-2c1.4,0,2.6,0.5,3.5,1.6l-1,1.2
			c-0.6-0.8-1.5-1.1-2.4-1.2c-1.1,0-2,0.5-2.7,1.5c-0.7,1-1.1,2.6-1.1,4.8c0.5-0.6,1-1,1.6-1.3c0.6-0.3,1.2-0.5,1.8-0.5
			c1.3,0,2.3,0.4,3.1,1.2s1.1,1.9,1.1,3.4c0,1.4-0.4,2.5-1.3,3.4c-0.8,0.9-1.9,1.3-3.1,1.3c-1.5,0-2.7-0.6-3.6-1.8
			C-4180.8-2971.8-4181.3-2973.5-4181.3-2975.8z M-4179.4-2974.6c0.1,1.4,0.5,2.5,1,3.3c0.5,0.8,1.3,1.1,2.2,1.1
			c0.7,0,1.3-0.3,1.8-0.9c0.5-0.6,0.7-1.4,0.7-2.3c0-1-0.2-1.8-0.7-2.3c-0.5-0.5-1.1-0.8-2-0.8
			C-4177.5-2976.5-4178.5-2975.9-4179.4-2974.6z"/>
		<path class="st2" d="M-4169.2-2976.1c-0.7-0.8-1-2-1-3.5s0.3-2.7,0.9-3.5s1.5-1.2,2.6-1.2c1.1,0,1.9,0.4,2.5,1.2
			c0.6,0.8,0.9,2,0.9,3.5c0,1.5-0.3,2.7-1,3.6s-1.5,1.3-2.5,1.3C-4167.7-2974.8-4168.5-2975.2-4169.2-2976.1z M-4168.6-2979.7
			c0,1.2,0.2,2.1,0.5,2.7s0.8,0.9,1.5,0.9c0.6,0,1.1-0.3,1.4-1s0.5-1.5,0.5-2.7c0-1.1-0.2-2-0.5-2.6s-0.8-0.9-1.4-0.9
			c-0.6,0-1.1,0.3-1.5,0.9S-4168.6-2980.8-4168.6-2979.7z M-4166.2-2968.7l8.5-15.6h1.3l-8.5,15.6H-4166.2z M-4159.5-2973.5
			c0-1.5,0.3-2.7,1-3.5c0.7-0.8,1.5-1.3,2.5-1.3c1,0,1.9,0.4,2.5,1.3s1,2,1,3.6c0,1.5-0.3,2.7-1,3.5s-1.5,1.3-2.5,1.3
			c-1,0-1.9-0.4-2.5-1.3C-4159.2-2970.8-4159.5-2972-4159.5-2973.5z M-4157.4-2976.1c-0.4,0.6-0.5,1.5-0.5,2.6s0.2,2,0.5,2.6
			c0.4,0.6,0.8,0.9,1.4,0.9s1.1-0.3,1.4-0.9s0.5-1.5,0.5-2.6s-0.2-2-0.5-2.6c-0.4-0.6-0.8-0.9-1.4-0.9
			C-4156.6-2977.1-4157.1-2976.8-4157.4-2976.1z"/>
	</g>
	<g class="st1">
		<path class="st2" d="M-4188.6-2909v-1.4h5.3v1.4H-4188.6z"/>
		<path class="st2" d="M-4181.4-2907.7c0-1.7,0.9-3,2.8-4v-0.1c-1.4-0.9-2.1-2.1-2.1-3.4c0-1.1,0.4-2,1.2-2.7s1.8-1,3-1
			c1.3,0,2.3,0.4,3,1.1s1.1,1.7,1.1,2.8c0,0.7-0.2,1.4-0.6,2c-0.4,0.6-0.9,1.1-1.4,1.6v0.1c0.8,0.5,1.4,1,1.9,1.6
			c0.5,0.6,0.7,1.3,0.7,2.2c0,1.1-0.4,2-1.3,2.8c-0.9,0.7-2,1.1-3.4,1.1c-1.4,0-2.5-0.4-3.4-1.1
			C-4181-2905.6-4181.4-2906.6-4181.4-2907.7z M-4179.7-2907.9c0,0.8,0.3,1.5,0.9,2c0.6,0.5,1.3,0.8,2.3,0.8c0.8,0,1.5-0.2,2.1-0.7
			c0.5-0.5,0.8-1.1,0.8-1.9c0-0.4-0.1-0.7-0.2-1c-0.2-0.3-0.3-0.6-0.5-0.7c-0.2-0.2-0.5-0.4-0.9-0.6c-0.5-0.2-0.8-0.4-1-0.5
			c-0.2-0.1-0.6-0.3-1.3-0.5C-4179-2910.2-4179.7-2909.1-4179.7-2907.9z M-4178.9-2915.2c0,0.8,0.3,1.4,0.9,1.9s1.4,0.9,2.5,1.3
			c1-0.9,1.5-1.9,1.5-2.9c0-0.8-0.2-1.4-0.7-1.9s-1.1-0.7-1.9-0.7c-0.7,0-1.3,0.2-1.7,0.7
			C-4178.7-2916.5-4178.9-2915.9-4178.9-2915.2z"/>
		<path class="st2" d="M-4169.2-2911.1c-0.7-0.8-1-2-1-3.5s0.3-2.7,0.9-3.5s1.5-1.2,2.6-1.2c1.1,0,1.9,0.4,2.5,1.2
			c0.6,0.8,0.9,2,0.9,3.5c0,1.5-0.3,2.7-1,3.6s-1.5,1.3-2.5,1.3C-4167.7-2909.8-4168.5-2910.2-4169.2-2911.1z M-4168.6-2914.7
			c0,1.2,0.2,2.1,0.5,2.7s0.8,0.9,1.5,0.9c0.6,0,1.1-0.3,1.4-1s0.5-1.5,0.5-2.7c0-1.1-0.2-2-0.5-2.6s-0.8-0.9-1.4-0.9
			c-0.6,0-1.1,0.3-1.5,0.9S-4168.6-2915.8-4168.6-2914.7z M-4166.2-2903.7l8.5-15.6h1.3l-8.5,15.6H-4166.2z M-4159.5-2908.5
			c0-1.5,0.3-2.7,1-3.5c0.7-0.8,1.5-1.3,2.5-1.3c1,0,1.9,0.4,2.5,1.3s1,2,1,3.6c0,1.5-0.3,2.7-1,3.5s-1.5,1.3-2.5,1.3
			c-1,0-1.9-0.4-2.5-1.3C-4159.2-2905.8-4159.5-2907-4159.5-2908.5z M-4157.4-2911.1c-0.4,0.6-0.5,1.5-0.5,2.6s0.2,2,0.5,2.6
			c0.4,0.6,0.8,0.9,1.4,0.9s1.1-0.3,1.4-0.9s0.5-1.5,0.5-2.6s-0.2-2-0.5-2.6c-0.4-0.6-0.8-0.9-1.4-0.9
			C-4156.6-2912.1-4157.1-2911.8-4157.4-2911.1z"/>
	</g>
	<g class="st1">
		<path class="st2" d="M-4200-2845v-1.4h5.3v1.4H-4200z"/>
		<path class="st2" d="M-4192-2840v-1.5h3.4v-10.8h-2.7v-1.2c1.2-0.2,2.3-0.6,3.1-1.1h1.4v13.1h3v1.5H-4192z"/>
		<path class="st2" d="M-4180.1-2841.7c-0.8-1.3-1.2-3.2-1.2-5.7s0.4-4.3,1.2-5.6s2-2,3.5-2c1.5,0,2.6,0.7,3.4,2
			c0.8,1.3,1.2,3.2,1.2,5.6s-0.4,4.3-1.2,5.7c-0.8,1.3-2,2-3.4,2C-4178.1-2839.7-4179.3-2840.4-4180.1-2841.7z M-4179.5-2847.4
			c0,2.1,0.3,3.6,0.8,4.6c0.5,1,1.2,1.5,2.1,1.5c0.9,0,1.6-0.5,2.1-1.5s0.8-2.5,0.8-4.6c0-4-1-6-2.9-6
			C-4178.6-2853.4-4179.5-2851.4-4179.5-2847.4z"/>
		<path class="st2" d="M-4169.2-2847.1c-0.7-0.8-1-2-1-3.5s0.3-2.7,0.9-3.5s1.5-1.2,2.6-1.2c1.1,0,1.9,0.4,2.5,1.2
			c0.6,0.8,0.9,2,0.9,3.5c0,1.5-0.3,2.7-1,3.6s-1.5,1.3-2.5,1.3C-4167.7-2845.8-4168.5-2846.2-4169.2-2847.1z M-4168.6-2850.7
			c0,1.2,0.2,2.1,0.5,2.7s0.8,0.9,1.5,0.9c0.6,0,1.1-0.3,1.4-1s0.5-1.5,0.5-2.7c0-1.1-0.2-2-0.5-2.6s-0.8-0.9-1.4-0.9
			c-0.6,0-1.1,0.3-1.5,0.9S-4168.6-2851.8-4168.6-2850.7z M-4166.2-2839.7l8.5-15.6h1.3l-8.5,15.6H-4166.2z M-4159.5-2844.5
			c0-1.5,0.3-2.7,1-3.5c0.7-0.8,1.5-1.3,2.5-1.3c1,0,1.9,0.4,2.5,1.3s1,2,1,3.6c0,1.5-0.3,2.7-1,3.5s-1.5,1.3-2.5,1.3
			c-1,0-1.9-0.4-2.5-1.3C-4159.2-2841.8-4159.5-2843-4159.5-2844.5z M-4157.4-2847.1c-0.4,0.6-0.5,1.5-0.5,2.6s0.2,2,0.5,2.6
			c0.4,0.6,0.8,0.9,1.4,0.9s1.1-0.3,1.4-0.9s0.5-1.5,0.5-2.6s-0.2-2-0.5-2.6c-0.4-0.6-0.8-0.9-1.4-0.9
			C-4156.6-2848.1-4157.1-2847.8-4157.4-2847.1z"/>
	</g>
	<g class="st1">
		<path class="st2" d="M-3994-2809l5.1-15.1h2.2l5.1,15.1h-2l-1.5-4.6h-5.5l-1.5,4.6H-3994z M-3990.1-2815.1h4.5l-0.7-2.3
			c-0.5-1.6-1-3.3-1.5-5.1h-0.1c-0.5,1.8-1,3.5-1.5,5.1L-3990.1-2815.1z"/>
		<path class="st2" d="M-3979.7-2804.3v-15.9h1.6l0.2,1.3h0.1c1.2-1.1,2.4-1.6,3.6-1.6c1.4,0,2.5,0.5,3.2,1.5c0.8,1,1.1,2.4,1.1,4.2
			c0,1.8-0.5,3.3-1.4,4.4s-2.1,1.6-3.4,1.6c-1,0-2-0.4-3.1-1.3l0,2v3.8H-3979.7z M-3977.9-2811.5c0.9,0.8,1.8,1.2,2.7,1.2
			c0.9,0,1.7-0.4,2.3-1.2c0.6-0.8,0.9-1.9,0.9-3.2c0-2.7-1-4.1-2.9-4.1c-0.9,0-1.9,0.5-3,1.5V-2811.5z"/>
		<path class="st2" d="M-3967-2809v-11.2h1.6l0.2,2h0.1c0.4-0.7,0.8-1.3,1.4-1.7c0.5-0.4,1.1-0.6,1.8-0.6c0.4,0,0.8,0.1,1.2,0.2
			l-0.4,1.7c-0.4-0.2-0.8-0.2-1.1-0.2c-0.5,0-1,0.2-1.5,0.6c-0.5,0.4-0.9,1.1-1.3,2v7.2H-3967z"/>
	</g>
	<g class="st1">
		<path class="st2" d="M-3862.3-2811.1l1.4-1c0.7,1.1,1.5,1.7,2.6,1.7c0,0,0,0,0,0c0.8,0,1.4-0.3,1.8-0.8s0.6-1.3,0.6-2.5v-10.5h1.9
			v10.6c0,1.4-0.3,2.5-1,3.4c-0.7,0.9-1.7,1.3-3.1,1.3C-3860.1-2808.7-3861.4-2809.5-3862.3-2811.1z"/>
		<path class="st2" d="M-3850.3-2813.1v-7.1h1.9v6.9c0,1,0.2,1.8,0.5,2.3c0.3,0.5,0.9,0.7,1.6,0.7c0.6,0,1.1-0.1,1.5-0.4
			c0.4-0.3,0.9-0.8,1.5-1.5v-8h1.9v11.2h-1.6l-0.1-1.7h-0.1c-1.2,1.3-2.4,2-3.7,2C-3849.1-2808.7-3850.3-2810.2-3850.3-2813.1z"/>
		<path class="st2" d="M-3837.6-2809v-11.2h1.6l0.2,1.6h0.1c1.3-1.2,2.5-1.9,3.8-1.9c2.3,0,3.4,1.5,3.4,4.4v7.1h-1.9v-6.9
			c0-1-0.2-1.8-0.5-2.3c-0.3-0.5-0.9-0.7-1.6-0.7c-0.5,0-1,0.1-1.5,0.4s-1,0.7-1.6,1.3v8.1H-3837.6z"/>
	</g>
	<g class="st1">
		<path class="st2" d="M-3731-2809l5.1-15.1h2.2l5.1,15.1h-2l-1.5-4.6h-5.5l-1.5,4.6H-3731z M-3727.1-2815.1h4.5l-0.7-2.3
			c-0.5-1.6-1-3.3-1.5-5.1h-0.1c-0.5,1.8-1,3.5-1.5,5.1L-3727.1-2815.1z"/>
		<path class="st2" d="M-3717-2813.1v-7.1h1.9v6.9c0,1,0.2,1.8,0.5,2.3c0.3,0.5,0.9,0.7,1.6,0.7c0.6,0,1.1-0.1,1.5-0.4
			c0.4-0.3,0.9-0.8,1.5-1.5v-8h1.9v11.2h-1.6l-0.1-1.7h-0.1c-1.2,1.3-2.4,2-3.7,2C-3715.8-2808.7-3717-2810.2-3717-2813.1z"/>
		<path class="st2" d="M-3703.9-2804.6c-0.8-0.5-1.3-1.3-1.3-2.2c0-1,0.5-1.8,1.6-2.5v-0.1c-0.6-0.4-1-1-1-1.8
			c0-0.8,0.4-1.5,1.2-2.1v-0.1c-1-0.8-1.4-1.8-1.4-3c0-1.2,0.4-2.1,1.2-2.9c0.8-0.7,1.8-1.1,3-1.1c0.6,0,1.1,0.1,1.6,0.3h3.9v1.4
			h-2.3c0.6,0.6,0.9,1.4,0.9,2.3c0,1.2-0.4,2.1-1.2,2.8c-0.8,0.7-1.8,1.1-2.9,1.1c-0.6,0-1.2-0.1-1.7-0.4c-0.5,0.4-0.7,0.9-0.7,1.4
			c0,0.8,0.6,1.2,1.9,1.2c0,0,0,0,0,0h2.2c1.3,0,2.3,0.2,2.9,0.6c0.6,0.4,1,1.1,1,2c0,1.1-0.5,2-1.6,2.7c-1,0.8-2.4,1.1-4.1,1.1
			C-3701.9-2803.8-3703.1-2804.1-3703.9-2804.6z M-3703.5-2807.1c0,0.6,0.3,1.1,0.9,1.4c0.6,0.4,1.4,0.5,2.4,0.5
			c1,0,1.9-0.2,2.5-0.7c0.7-0.5,1-1,1-1.6c0-0.5-0.2-0.9-0.6-1.1c-0.4-0.2-0.9-0.3-1.7-0.3h-1.9c-0.5,0-1-0.1-1.5-0.2
			C-3703.1-2808.4-3703.5-2807.8-3703.5-2807.1z M-3702.2-2818.4c-0.5,0.5-0.7,1.1-0.7,1.9c0,0.8,0.2,1.4,0.7,1.9
			c0.5,0.5,1,0.7,1.7,0.7s1.2-0.2,1.7-0.7c0.5-0.5,0.7-1.1,0.7-1.9c0-0.8-0.2-1.4-0.7-1.9s-1-0.7-1.7-0.7
			S-3701.8-2818.8-3702.2-2818.4z"/>
	</g>
	<g class="st1">
		<path class="st2" d="M-3596.9-2816.6c0-2.4,0.6-4.3,1.8-5.7c1.2-1.4,2.8-2.1,4.7-2.1c1.9,0,3.5,0.7,4.7,2.1
			c1.2,1.4,1.8,3.3,1.8,5.7c0,2.4-0.6,4.3-1.8,5.7s-2.7,2.2-4.6,2.2c-1.9,0-3.5-0.7-4.7-2.1
			C-3596.3-2812.3-3596.9-2814.2-3596.9-2816.6z M-3594.9-2816.6c0,1.9,0.4,3.4,1.2,4.5c0.8,1.1,1.9,1.7,3.3,1.7
			c1.3,0,2.4-0.6,3.2-1.7s1.2-2.6,1.2-4.5c0-1.9-0.4-3.4-1.2-4.4c-0.8-1.1-1.9-1.6-3.2-1.6c-1.4,0-2.5,0.5-3.3,1.6
			C-3594.5-2820-3594.9-2818.5-3594.9-2816.6z"/>
		<path class="st2" d="M-3580.3-2810.3c-1-1.1-1.5-2.5-1.5-4.3s0.5-3.2,1.6-4.3c1-1.1,2.3-1.6,3.8-1.6c1.2,0,2.3,0.4,3.3,1.3
			l-0.9,1.2c-0.8-0.7-1.5-1-2.2-1c-1,0-1.8,0.4-2.5,1.2s-1,1.8-1,3.1c0,1.3,0.3,2.3,1,3.1c0.6,0.8,1.5,1.2,2.5,1.2
			c0.9,0,1.8-0.4,2.6-1.1l0.9,1.2c-1.1,1-2.3,1.5-3.6,1.5C-3578.1-2808.7-3579.4-2809.2-3580.3-2810.3z"/>
		<path class="st2" d="M-3571.8-2818.6v-1.4l1.8-0.1l0.2-3.1h1.6v3.1h3v1.5h-3v6.2c0,0.7,0.1,1.3,0.4,1.6c0.3,0.4,0.7,0.5,1.3,0.5
			c0.3,0,0.7-0.1,1.3-0.3l0.4,1.4c-0.8,0.3-1.5,0.4-2.1,0.4c-2.1,0-3.2-1.2-3.2-3.7v-6.2H-3571.8z"/>
	</g>
	<g class="st1">
		<path class="st2" d="M-3460-2809v-15.1h3.8c2.3,0,4.1,0.6,5.3,1.9c1.2,1.3,1.8,3.1,1.8,5.5c0,2.4-0.6,4.3-1.8,5.6
			c-1.2,1.3-3,2-5.2,2H-3460z M-3458.2-2810.5h1.7c1.7,0,3-0.5,3.9-1.6c0.9-1.1,1.3-2.6,1.3-4.5c0-1.9-0.4-3.4-1.3-4.4
			c-0.9-1-2.2-1.5-4-1.5h-1.7V-2810.5z"/>
		<path class="st2" d="M-3446.9-2814.6c0-1.7,0.5-3.2,1.5-4.3c1-1.1,2.2-1.6,3.5-1.6c1.4,0,2.5,0.5,3.3,1.4c0.8,0.9,1.2,2.2,1.2,3.8
			c0,0.4,0,0.8-0.1,1h-7.5c0.1,1.2,0.4,2.2,1.1,2.9s1.5,1.1,2.6,1.1c1,0,1.9-0.3,2.8-0.9l0.7,1.2c-1.2,0.8-2.4,1.2-3.7,1.2
			c-1.5,0-2.8-0.5-3.8-1.6S-3446.9-2812.8-3446.9-2814.6z M-3445.1-2815.4h6c0-1.1-0.2-2-0.7-2.6c-0.5-0.6-1.2-0.9-2-0.9
			c-0.8,0-1.5,0.3-2.1,1C-3444.6-2817.4-3445-2816.5-3445.1-2815.4z"/>
		<path class="st2" d="M-3434-2810.3c-1-1.1-1.5-2.5-1.5-4.3s0.5-3.2,1.6-4.3c1-1.1,2.3-1.6,3.8-1.6c1.2,0,2.3,0.4,3.3,1.3l-0.9,1.2
			c-0.8-0.7-1.5-1-2.2-1c-1,0-1.8,0.4-2.5,1.2c-0.7,0.8-1,1.8-1,3.1c0,1.3,0.3,2.3,1,3.1c0.6,0.8,1.5,1.2,2.5,1.2
			c0.9,0,1.8-0.4,2.6-1.1l0.9,1.2c-1.1,1-2.3,1.5-3.6,1.5C-3431.8-2808.7-3433-2809.2-3434-2810.3z"/>
	</g>
	<line class="st9" x1="-4143.5" y1="-3169.5" x2="-3313.5" y2="-3169.5"/>
	<path class="st10" d="M-4143.5-3169.3l63.1,41.4l70.9,29.6l64.9-71l75.6-34.9l66.1,10.1l69.1-23.1l73.3-8.3l63.7,24.3l71.5,106.5
		l72.1,13l64.9,82.8l73.8-103"/>
	<path class="st11" d="M-4143.5-3170.8l130.9,113.1l69.7-103.8l73.5-46.9l62.7,9.2l75.1-40.8l133.9,10.8l75.1,130h68.9l65.8,86.2
		l73.5-73.1"/>
	<path class="st12" d="M-4143.5-3169.8l64.3,33.1l138.6,19.2h69.7l109.9,29.2l96.8,22.3l72,26.2l69.7,33.8l75.1,23.8l60.4,27.7
		l73.5-13.1"/>
</g>
</svg>
