<?xml version="1.0" encoding="utf-8"?>
<!-- Generator: Adobe Illustrator 21.1.0, SVG Export Plug-In . SVG Version: 6.00 Build 0)  -->
<svg version="1.1" id="Layer_1_copy" xmlns="http://www.w3.org/2000/svg" xmlns:xlink="http://www.w3.org/1999/xlink" x="0px"
	 y="0px" viewBox="0 0 728.1 229.8" style="enable-background:new 0 0 728.1 229.8;" xml:space="preserve">
<style type="text/css">
	.st0{fill:#FFC20E;}
	.st1{fill:#FFFFFF;}
</style>
<path class="st0" d="M212.4,139c0,19.7-16.2,35.9-35.9,35.9H35.9C16.2,174.9,0,158.7,0,139V35.9C0,16.1,16.2,0,35.9,0h140.7
	c19.7,0,35.9,16.1,35.9,35.9V139L212.4,139z"/>
<path class="st1" d="M183.1,129.8v-6h-50.6V99.1l32.9,0c9.6,0,17.5-7.7,17.7-17.3v-6v0h-50.6V51.1l33,0c9.6-0.1,17.4-7.7,17.7-17.3
	v-6h-74v119.4h56.3C175,147,182.8,139.4,183.1,129.8"/>
<path d="M103.3,75.8H52.6V51.1l33,0c9.6-0.1,17.5-7.8,17.7-17.5l0-5.9H29.3v119.4H35c9.6-0.1,17.3-7.6,17.7-17.1l0-30.9l34,0
	c9.2-0.6,16.4-8.1,16.6-17.4L103.3,75.8L103.3,75.8L103.3,75.8z"/>
<path d="M259,214.6h-8.8v11.8h8.8c4,0,6.5-2.3,6.5-5.9C265.5,216.9,263,214.6,259,214.6 M258.6,200.4h-8.4v11.2h8.4
	c3.6,0,6.4-1.8,6.4-5.6C265,202.1,262.2,200.4,258.6,200.4 M259.3,229.6h-12.6v-32.3h12.2c5.6,0,9.5,3.2,9.5,8.6
	c0,3.4-2,6.1-4.8,7.1c3.1,1.1,5.3,3.8,5.3,7.7C268.9,226.5,265,229.6,259.3,229.6"/>
<polygon points="276.6,229.6 276.6,197.3 296.7,197.3 296.7,200.4 280.1,200.4 280.1,211.7 294.2,211.7 294.2,214.8 280.1,214.8 
	280.1,226.5 296.7,226.5 296.7,229.6 "/>
<path d="M326.6,214.6h-8.8v11.8h8.8c4,0,6.5-2.3,6.5-5.9C333.1,216.9,330.6,214.6,326.6,214.6 M326.3,200.4h-8.4v11.2h8.4
	c3.6,0,6.4-1.8,6.4-5.6C332.6,202.1,329.9,200.4,326.3,200.4 M327,229.6h-12.6v-32.3h12.2c5.6,0,9.5,3.2,9.5,8.6
	c0,3.4-2,6.1-4.8,7.1c3.1,1.1,5.3,3.8,5.3,7.7C336.6,226.5,332.7,229.6,327,229.6"/>
<polygon points="344.3,229.6 344.3,197.3 364.3,197.3 364.3,200.4 347.7,200.4 347.7,211.7 361.9,211.7 361.9,214.8 347.7,214.8 
	347.7,226.5 364.3,226.5 364.3,229.6 "/>
<polygon points="380.6,200.4 380.6,229.6 377.1,229.6 377.1,200.4 367.8,200.4 367.8,197.3 389.9,197.3 389.9,200.4 "/>
<polygon points="405.1,200.4 405.1,229.6 401.6,229.6 401.6,200.4 392.3,200.4 392.3,197.3 414.4,197.3 414.4,200.4 "/>
<polygon points="420.1,229.6 420.1,197.3 440.1,197.3 440.1,200.4 423.5,200.4 423.5,211.7 437.7,211.7 437.7,214.8 423.5,214.8 
	423.5,226.5 440.1,226.5 440.1,229.6 "/>
<path d="M459,200.4h-8.6v11.8h8.6c3.8,0,6.4-2,6.4-5.9C465.4,202.4,462.8,200.4,459,200.4 M465.5,229.6l-7.3-14.3h-7.7v14.3h-3.5
	v-32.3h12.4c5.6,0,9.6,3.4,9.6,9c0,4.7-2.9,7.8-7,8.7l7.7,14.6H465.5z"/>
<rect x="487.2" y="197.3" width="3.4" height="32.3"/>
<polygon points="519.8,229.6 502.7,203.7 502.7,229.6 499.3,229.6 499.3,197.3 502.5,197.3 519.7,223.1 519.7,197.3 523.1,197.3 
	523.1,229.6 "/>
<polygon points="535.4,200.4 535.4,212.3 549.6,212.3 549.6,215.3 535.4,215.3 535.4,229.6 532,229.6 532,197.3 552,197.3 
	552,200.4 "/>
<path d="M573.5,202.4c-1.4-1.4-3.5-2.3-5.6-2.3c-2.1,0-4.2,0.9-5.6,2.3c-2,2.1-2.3,4.3-2.3,11c0,6.8,0.2,8.9,2.3,11
	c1.4,1.5,3.4,2.3,5.6,2.3c2.1,0,4.2-0.9,5.6-2.3c2-2.1,2.3-4.3,2.3-11C575.8,206.7,575.6,204.5,573.5,202.4 M576.2,226.5
	c-2.2,2.2-5,3.4-8.2,3.4c-3.2,0-6.1-1.2-8.3-3.4c-3-3-3-6.2-3-13.1c0-6.8,0-10,3-13.1c2.2-2.2,5-3.4,8.3-3.4c3.2,0,6.1,1.2,8.2,3.4
	c3,3,3,6.2,3,13.1C579.2,220.3,579.2,223.4,576.2,226.5"/>
<path d="M599,200.4h-8.6v11.8h8.6c3.8,0,6.4-2,6.4-5.9C605.4,202.4,602.7,200.4,599,200.4 M605.4,229.6l-7.3-14.3h-7.8v14.3h-3.4
	v-32.3h12.4c5.6,0,9.6,3.4,9.6,9c0,4.7-2.9,7.8-7,8.7l7.7,14.6H605.4z"/>
<polygon points="640.5,229.6 640.5,205 631.7,224.5 628.7,224.5 619.7,205 619.7,229.6 616.3,229.6 616.3,197.3 619.7,197.3 
	630.3,220.2 640.5,197.3 643.9,197.3 643.9,229.6 "/>
<polygon points="652.9,229.6 652.9,197.3 673,197.3 673,200.4 656.4,200.4 656.4,211.7 670.5,211.7 670.5,214.8 656.4,214.8 
	656.4,226.5 673,226.5 673,229.6 "/>
<path d="M696.5,202.7c-1.7-1.7-3.9-2.4-6.4-2.4h-7v26.1h7c2.5,0,4.7-0.6,6.4-2.4c2.2-2.3,2.1-7.1,2.1-11.1
	C698.6,209.1,698.7,205,696.5,202.7 M698.9,226.6c-1.9,2-4.8,3-8.2,3h-11.1v-32.3h11.1c3.4,0,6.2,1,8.2,3c3.4,3.4,3.2,8.3,3.2,12.8
	C702,217.6,702.2,223.2,698.9,226.6"/>
<g>
	<path d="M305.2,146.9h-11.5l-4.9-14.3h-28l-4.9,14.3h-11.5l26-71h8.7L305.2,146.9z M285.8,123.6L275.1,92L264,123.6H285.8z"/>
	<path d="M364.7,146.9h-9.9L322,97v49.9h-10.8v-71h9.9l32.8,49.8V75.9h10.8V146.9z"/>
	<path d="M431.4,146.9H420l-4.9-14.3h-28l-4.9,14.3h-11.5l26-71h8.7L431.4,146.9z M412.1,123.6L401.3,92l-11.1,31.6H412.1z"/>
	<path d="M482.5,146.9h-44.9v-71h10.8v61.3h34.2V146.9z"/>
	<path d="M535.2,75.9L514,117.7v29.2h-10.8v-29.2L482,75.9h11.8l14.8,31.2l14.8-31.2H535.2z"/>
	<path d="M591.5,85.6H572v61.3h-10.8V85.6h-19.5v-9.7h49.8V85.6z"/>
	<path d="M610.5,146.9h-10.8v-71h10.8V146.9z"/>
	<path d="M673.3,125.7c-1.2,6.9-4.1,12.3-8.6,16.1c-4.6,3.8-10.1,5.7-16.7,5.7c-7.4,0-13.6-2.5-18.6-7.6c-3.2-3.2-5.2-7.1-6.1-11.8
		c-0.5-2.9-0.8-8.5-0.8-16.7c0-8.2,0.3-13.8,0.8-16.7c0.9-4.6,2.9-8.6,6.1-11.8c5-5,11.3-7.6,18.6-7.6c6.6,0,12.2,1.9,16.7,5.7
		c4.5,3.8,7.4,9.2,8.6,16.1h-11C660.4,89.1,655.6,85,648,85c-4.3,0-7.8,1.4-10.5,4.3c-2.1,2.3-3.5,5.8-4,10.6
		c-0.2,1.7-0.3,5.5-0.3,11.6c0,6,0.1,9.9,0.3,11.6c0.5,4.7,1.9,8.2,4,10.6c2.7,2.9,6.1,4.3,10.5,4.3c7.7,0,12.5-4.1,14.5-12.2H673.3
		z"/>
	<path d="M728.1,126.7c0,6.4-2.4,11.5-7.1,15.2c-4.7,3.7-10.9,5.6-18.4,5.6c-10.6,0-18.9-3.1-25.1-9.4l7.2-7.1
		c4.5,4.5,10.6,6.8,18.1,6.8c4.6,0,8.3-0.9,10.8-2.8c2.6-1.9,3.8-4.6,3.8-8c0-3.2-0.9-5.6-2.8-7.4c-1.6-1.5-4.2-2.5-7.8-3l-8.4-1.2
		c-5.8-0.9-10.3-2.8-13.5-5.7c-3.5-3.3-5.2-7.8-5.2-13.6c0-6.2,2.1-11.3,6.4-15.1c4.3-3.8,10-5.7,17.3-5.7c8.9,0,16.2,2.7,22,8.1
		l-6.9,6.8c-3.9-3.7-9-5.5-15.4-5.5c-4.1,0-7.2,1-9.5,3.1c-2.3,2.1-3.4,4.7-3.4,8c0,2.8,0.9,5,2.7,6.6c1.8,1.6,4.5,2.7,7.9,3.2
		l8.1,1.2c5.8,0.9,10.3,2.6,13.3,5.3C726.2,115.5,728.1,120.4,728.1,126.7z"/>
</g>
</svg>
