<?xml version="1.0" encoding="utf-8"?>
<!-- Generator: Adobe Illustrator 21.1.0, SVG Export Plug-In . SVG Version: 6.00 Build 0)  -->
<svg version="1.1" id="Layer_1" xmlns="http://www.w3.org/2000/svg" xmlns:xlink="http://www.w3.org/1999/xlink" x="0px" y="0px"
	 viewBox="0 0 113.4 56.7" style="enable-background:new 0 0 113.4 56.7;" xml:space="preserve">
<style type="text/css">
	.st0{clip-path:url(#SVGID_2_);fill:#15284B;}
</style>
<g>
	<defs>
		<rect id="SVGID_1_" x="0" y="0" width="113.4" height="56.7"/>
	</defs>
	<clipPath id="SVGID_2_">
		<use xlink:href="#SVGID_1_"  style="overflow:visible;"/>
	</clipPath>
	<path class="st0" d="M9.5,54.8H9.3l-1.6-4.4l-1.6,4.4H6L4.2,50C3.8,49,3.7,49,3.2,49v-0.2h2.2V49c-0.5,0.1-0.6,0.2-0.4,0.7l1.4,3.8
		L7.6,50l-0.1-0.4C7.3,49.2,7,49,6.6,49v-0.2h2.2V49c-0.5,0-0.7,0.2-0.5,0.7l1.4,3.8l1.2-3.3c0.3-0.7,0.2-1.2-0.4-1.2v-0.2h1.8V49
		c-0.5,0-0.7,0.3-1,1.2L9.5,54.8z"/>
	<path class="st0" d="M16.7,52.5h-0.2C16.4,52,16.3,52,15.7,52h-1.5v2.1c0,0.3,0.1,0.4,0.4,0.4h1c0.9,0,1.1,0,1.4-0.8h0.2l-0.3,1.1
		h-4.3v-0.2c0.5,0,0.7-0.1,0.7-0.9V50c0-0.7-0.2-0.9-0.7-0.9v-0.2h4.3v1H17c-0.1-0.7-0.3-0.7-1-0.7h-1.7v2.5h1.7
		c0.4,0,0.6-0.1,0.6-0.6h0.2V52.5z"/>
	<path class="st0" d="M21.5,52.4h-1.9l-0.4,1.2c-0.2,0.6-0.3,1,0.3,1v0.2H18v-0.2c0.6-0.1,0.7-0.4,0.9-0.9l1.6-4.9h0.6l1.7,5.1
		c0.2,0.5,0.3,0.7,0.8,0.7v0.2h-2.1v-0.2c0.4,0,0.6-0.2,0.5-0.6L21.5,52.4z M20.5,49.5L20.5,49.5L19.7,52h1.7L20.5,49.5z"/>
	<path class="st0" d="M28.6,54.8h-4.3v-0.2c0.5,0,0.7-0.3,0.7-1v-3.7c0-0.7-0.2-0.9-0.7-0.9v-0.2h2.1V49c-0.5,0-0.7,0.3-0.7,0.9v4
		c0,0.5,0.2,0.6,0.7,0.6h1.2c0.7,0,0.9-0.2,1.2-1H29L28.6,54.8z"/>
	<path class="st0" d="M31.6,53.7c0,0.7,0.1,0.9,0.6,0.9v0.2h-2.1v-0.2c0.4,0,0.7-0.1,0.7-0.9v-4.5H30c-0.8,0-1.2,0.2-1.2,0.8h-0.2
		v-1.4h0.2c0.1,0.1,0.2,0.1,0.3,0.2c0.1,0,0.3,0.1,0.6,0.1h3.1c0.5,0,0.8-0.1,0.9-0.2h0.2V50h-0.1c-0.1-0.5-0.3-0.8-1.3-0.8h-0.9
		V53.7z"/>
	<path class="st0" d="M36,51.9v1.7c0,0.7,0.2,0.9,0.7,0.9v0.2h-2.1v-0.2c0.5,0,0.7-0.2,0.7-0.9V50c0-0.7-0.1-0.9-0.7-0.9v-0.2h2.1
		V49C36.2,49,36,49.2,36,50v1.7h3.2V50c0-0.7-0.2-0.9-0.7-0.9v-0.2h2.1V49C40.2,49,40,49.2,40,50v3.7c0,0.7,0.2,0.9,0.7,0.9v0.2
		h-2.1v-0.2c0.5,0,0.7-0.2,0.7-0.9v-1.7H36z"/>
	<path class="st0" d="M53,49c-0.5,0-0.7,0.4-0.7,0.9l0.3,3.7c0.1,0.7,0.2,1,0.7,1v0.2h-2.1v-0.2c0.5-0.1,0.7-0.3,0.6-0.9l-0.3-3.8h0
		l-2,4.9h-0.2l-2-4.9h0l-0.3,3.7c-0.1,0.6,0.2,1,0.8,1.1v0.2H46v-0.2c0.6-0.1,0.7-0.4,0.8-1.1l0.4-4.1c-0.2-0.2-0.4-0.4-0.8-0.4
		v-0.2h1.5l1.9,4.7l1.9-4.7H53V49z"/>
	<path class="st0" d="M57.5,52.4h-1.9l-0.4,1.2c-0.2,0.6-0.3,1,0.3,1v0.2h-1.5v-0.2c0.6-0.1,0.7-0.4,0.9-0.9l1.6-4.9h0.6l1.7,5.1
		c0.2,0.5,0.3,0.7,0.8,0.7v0.2h-2.1v-0.2c0.4,0,0.6-0.2,0.5-0.6L57.5,52.4z M56.5,49.5L56.5,49.5L55.7,52h1.7L56.5,49.5z"/>
	<path class="st0" d="M65.6,54.8h-0.2l-4.2-5.2h0v4.2c0,0.6,0.2,0.8,0.8,0.8v0.2h-1.8v-0.2c0.5,0,0.7-0.2,0.7-1v-3.5
		c0-0.7-0.2-1-0.9-1.1v-0.2h1.5l3.7,4.6h0V50c0-0.8-0.2-1-0.7-1v-0.2h1.8V49c-0.6,0-0.8,0.2-0.8,0.9V54.8z"/>
	<path class="st0" d="M70.5,52.4h-1.9l-0.4,1.2c-0.2,0.6-0.3,1,0.3,1v0.2H67v-0.2c0.6-0.1,0.7-0.4,0.9-0.9l1.6-4.9h0.6l1.7,5.1
		c0.2,0.5,0.3,0.7,0.8,0.7v0.2h-2.1v-0.2c0.4,0,0.6-0.2,0.5-0.6L70.5,52.4z M69.6,49.5L69.6,49.5L68.7,52h1.7L69.6,49.5z"/>
	<path class="st0" d="M78.1,54.8c-0.3,0.1-1.4,0.1-1.7,0.1c-2.6,0-3.5-1.6-3.5-2.9c0-2.1,1.6-3.3,3.1-3.3c0.8,0,1.2,0.3,1.6,0.3
		c0.2,0,0.3-0.1,0.3-0.2h0.2v1.7H78c-0.2-1.1-1.2-1.6-2-1.6c-1.2,0-2.1,1.1-2.1,2.7c0,1.7,1,3,2.4,3c0.4,0,1-0.1,1-0.6v-0.6
		c0-0.7-0.2-1-0.7-1h-0.2v-0.2h2.4v0.2c-0.6,0-0.7,0.3-0.7,0.8V54.8z"/>
	<path class="st0" d="M83.5,52.5h-0.2C83.2,52,83.1,52,82.5,52H81v2.1c0,0.3,0.1,0.4,0.4,0.4h1c0.9,0,1.1,0,1.4-0.8h0.2l-0.3,1.1
		h-4.3v-0.2c0.5,0,0.7-0.1,0.7-0.9V50c0-0.7-0.2-0.9-0.7-0.9v-0.2h4.3v1h-0.1c-0.1-0.7-0.3-0.7-1-0.7H81v2.5h1.7
		c0.4,0,0.6-0.1,0.6-0.6h0.2V52.5z"/>
	<path class="st0" d="M91.8,49c-0.5,0-0.7,0.4-0.7,0.9l0.3,3.7c0.1,0.7,0.2,1,0.7,1v0.2H90v-0.2c0.5-0.1,0.7-0.3,0.6-0.9l-0.3-3.8h0
		l-2,4.9h-0.2l-2-4.9h0l-0.3,3.7c-0.1,0.6,0.2,1,0.8,1.1v0.2h-1.8v-0.2c0.6-0.1,0.7-0.4,0.8-1.1l0.4-4.1c-0.2-0.2-0.4-0.4-0.8-0.4
		v-0.2h1.5l1.9,4.7l1.9-4.7h1.4V49z"/>
	<path class="st0" d="M96.7,52.5h-0.2C96.4,52,96.3,52,95.7,52h-1.5v2.1c0,0.3,0.1,0.4,0.4,0.4h1c0.9,0,1.1,0,1.4-0.8h0.2l-0.3,1.1
		h-4.3v-0.2c0.5,0,0.7-0.1,0.7-0.9V50c0-0.7-0.2-0.9-0.7-0.9v-0.2h4.3v1H97c-0.1-0.7-0.3-0.7-1-0.7h-1.7v2.5h1.7
		c0.4,0,0.6-0.1,0.6-0.6h0.2V52.5z"/>
	<path class="st0" d="M103.5,54.8h-0.2l-4.2-5.2h0v4.2c0,0.6,0.2,0.8,0.8,0.8v0.2h-1.8v-0.2c0.5,0,0.7-0.2,0.7-1v-3.5
		c0-0.7-0.2-1-0.9-1.1v-0.2h1.5l3.7,4.6h0V50c0-0.8-0.2-1-0.7-1v-0.2h1.8V49c-0.6,0-0.8,0.2-0.8,0.9V54.8z"/>
	<path class="st0" d="M107.9,53.7c0,0.7,0.1,0.9,0.6,0.9v0.2h-2.1v-0.2c0.4,0,0.7-0.1,0.7-0.9v-4.5h-0.9c-0.8,0-1.2,0.2-1.2,0.8
		h-0.2v-1.4h0.2c0.1,0.1,0.2,0.1,0.3,0.2c0.1,0,0.3,0.1,0.6,0.1h3.1c0.5,0,0.8-0.1,0.9-0.2h0.2V50h-0.1c-0.1-0.5-0.3-0.8-1.3-0.8
		h-0.9V53.7z"/>
	<path class="st0" d="M4.6,34.4H4.4c-0.1-1.3-1.1-1.8-1.9-1.8c-0.9,0-1.6,0.5-1.6,1.3c0,1.6,2.2,2.1,3.5,3.3C5,37.9,5.1,38.4,5.1,39
		c0,1.4-1.1,2.5-2.5,2.5c-0.9,0-1.7-0.5-2-0.5c-0.2,0-0.3,0.1-0.3,0.3H0V39h0.3c0,1.6,1.3,2.2,2.1,2.2c1.1,0,1.8-0.6,1.8-1.6
		c0-1.5-2.4-2.2-3.3-3.2C0.3,35.9,0,35.3,0,34.6c0-1.3,1-2.3,2.4-2.3c0.9,0,1.4,0.3,1.7,0.3c0.1,0,0.2,0,0.2-0.2h0.2V34.4z"/>
	<path class="st0" d="M10.4,39.7c0,1.1,0.2,1.4,1,1.4v0.3H8.3V41c0.6,0,1-0.2,1-1.4v-6.7H8c-1.2,0-1.7,0.3-1.8,1.3H6v-2h0.3
		c0.1,0.1,0.3,0.2,0.5,0.2c0.2,0,0.5,0.1,0.8,0.1h4.6c0.8,0,1.1-0.1,1.4-0.3h0.3v2h-0.2c-0.2-0.7-0.5-1.3-1.9-1.3h-1.3V39.7z"/>
	<path class="st0" d="M15.2,41c0,0.4-0.3,0.7-0.7,0.7c-0.4,0-0.7-0.3-0.7-0.7c0-0.4,0.3-0.7,0.7-0.7C14.8,40.2,15.2,40.6,15.2,41"/>
	<path class="st0" d="M22.9,42.3c0,1.8-1.2,2.4-2.2,2.4c-0.6,0-1.1-0.2-1.4-0.8l0.2-0.2c0.2,0.3,0.5,0.4,0.8,0.4
		c0.6,0,1.5-0.4,1.5-2.2v-7.8c0-1.1-0.2-1.4-1-1.4v-0.3h3.2v0.3c-0.8,0-1,0.4-1,1.4V42.3z"/>
	<path class="st0" d="M29.2,37.2h-2.5l1.2-3.7h0L29.2,37.2z M30.2,40.2c0.2,0.6-0.1,0.9-0.7,0.9v0.3h3.1V41c-0.8,0-1-0.2-1.3-1.1
		l-2.5-7.6h-0.9l-2.4,7.2c-0.3,0.8-0.5,1.3-1.3,1.4v0.3h2.3V41c-0.9,0-0.8-0.7-0.5-1.5l0.6-1.8h2.8L30.2,40.2z"/>
	<path class="st0" d="M43.1,32.8c-0.8,0-1,0.5-1,1.4l0.4,5.4c0.1,1.1,0.3,1.4,1.1,1.5v0.3h-3.2V41c0.7-0.1,1-0.4,0.9-1.3L41,34h0
		l-3,7.3h-0.2L34.8,34h0l-0.5,5.4c-0.1,0.9,0.2,1.4,1.1,1.6v0.3h-2.7V41c0.9-0.1,1-0.6,1.1-1.6l0.5-6c-0.3-0.4-0.6-0.5-1.1-0.6v-0.3
		h2.2l2.8,6.9l2.9-6.9h2.1V32.8z"/>
	<path class="st0" d="M50.8,38h-0.3c-0.2-0.8-0.3-0.8-1.2-0.8h-2.2v3.1c0,0.4,0.2,0.6,0.6,0.6h1.5c1.3,0,1.6-0.1,2.1-1.2h0.3
		l-0.4,1.6H45V41c0.7,0,1-0.2,1-1.4v-5.5c0-1.1-0.2-1.4-1-1.4v-0.3h6.3V34h-0.2c-0.2-1-0.5-1-1.5-1h-2.5v3.8h2.5
		c0.6,0,0.8-0.1,1-0.9h0.3V38z"/>
	<path class="st0" d="M57.9,34.4h-0.3c-0.1-1.3-1.1-1.8-1.9-1.8c-0.9,0-1.6,0.5-1.6,1.3c0,1.6,2.2,2.1,3.5,3.3
		c0.6,0.6,0.8,1.2,0.8,1.7c0,1.4-1.1,2.5-2.5,2.5c-0.9,0-1.7-0.5-2-0.5c-0.2,0-0.3,0.1-0.3,0.3h-0.3V39h0.3c0,1.6,1.3,2.2,2.1,2.2
		c1.1,0,1.8-0.6,1.8-1.6c0-1.5-2.4-2.2-3.3-3.2c-0.5-0.5-0.8-1.1-0.8-1.8c0-1.3,1-2.3,2.4-2.3c0.9,0,1.4,0.3,1.7,0.3
		c0.1,0,0.2,0,0.2-0.2h0.2V34.4z"/>
	<path class="st0" d="M60,34.9c0.7-0.4,1-0.9,1-1.6c0-0.6-0.9-0.1-0.9-1c0-0.4,0.3-0.6,0.7-0.6c0.6,0,0.9,0.5,0.9,1.2
		c0,1.1-0.7,2-1.7,2.3V34.9z"/>
	<path class="st0" d="M67.8,34.4h-0.3c-0.1-1.3-1.1-1.8-1.9-1.8c-0.9,0-1.6,0.5-1.6,1.3c0,1.6,2.2,2.1,3.5,3.3
		c0.6,0.6,0.8,1.2,0.8,1.7c0,1.4-1.1,2.5-2.5,2.5c-0.9,0-1.7-0.5-2-0.5c-0.2,0-0.3,0.1-0.3,0.3h-0.3V39h0.3c0,1.6,1.4,2.2,2.1,2.2
		c1.1,0,1.8-0.6,1.8-1.6c0-1.5-2.4-2.2-3.3-3.2c-0.5-0.5-0.8-1.1-0.8-1.8c0-1.3,1-2.3,2.4-2.3c0.9,0,1.4,0.3,1.7,0.3
		c0.1,0,0.2,0,0.2-0.2h0.2V34.4z"/>
	<path class="st0" d="M76.1,32.9h1.1c1.6,0,2.1,1.3,2.1,2.2c0,1.2-0.8,1.9-2.1,1.9c-0.5,0-0.7,0-1.1-0.2V32.9z M76.1,37.2
		c0.6,0.1,1,0.1,1.3,0.1c2,0,3.1-0.8,3.1-2.3c0-1.2-1-2.5-3.4-2.5h-3.2v0.3c0.7,0,1,0.3,1,1.4v5.5c0,1.2-0.4,1.4-1,1.4v0.3h3.2V41
		c-0.7,0-1-0.3-1-1.4V37.2z"/>
	<path class="st0" d="M87.8,41.3h-6.4V41c0.7,0,1-0.4,1-1.5V34c0-1-0.3-1.3-1-1.3v-0.3h3.1v0.3c-0.7,0-1,0.4-1,1.4V40
		c0,0.7,0.3,0.8,1,0.8h1.7c1.1,0,1.3-0.2,1.7-1.5h0.3L87.8,41.3z"/>
	<path class="st0" d="M93.7,37.2h-2.5l1.2-3.7h0L93.7,37.2z M94.7,40.2c0.2,0.6-0.1,0.9-0.7,0.9v0.3h3.1V41c-0.8,0-1-0.2-1.3-1.1
		l-2.5-7.6h-0.9L90,39.7c-0.3,0.8-0.5,1.3-1.3,1.4v0.3h2.3V41c-0.9,0-0.8-0.7-0.5-1.5l0.6-1.8h2.8L94.7,40.2z"/>
	<path class="st0" d="M104.9,35c-0.4-1.7-1.3-2.4-2.9-2.4c-2.1,0-3.3,1.7-3.3,4c0,2.6,1.4,4.4,3.3,4.4c1.4,0,2.4-0.6,3.1-1.9
		l0.2,0.2c-0.6,1.4-2,2.3-3.7,2.3c-2.1,0-4.3-1.4-4.3-4.4c0-2.8,1.9-4.8,4.5-4.8c1.1,0,1.9,0.4,2.5,0.4c0.2,0,0.4-0.1,0.5-0.3h0.2
		V35H104.9z"/>
	<path class="st0" d="M112.5,38h-0.3c-0.2-0.8-0.3-0.8-1.2-0.8h-2.2v3.1c0,0.4,0.2,0.6,0.6,0.6h1.5c1.3,0,1.6-0.1,2.1-1.2h0.3
		l-0.4,1.6h-6.3V41c0.7,0,1-0.2,1-1.4v-5.5c0-1.1-0.2-1.4-1-1.4v-0.3h6.3V34h-0.2c-0.2-1-0.5-1-1.5-1h-2.5v3.8h2.5
		c0.6,0,0.8-0.1,1-0.9h0.3V38z"/>
	<path class="st0" d="M67.5,3.2c0,0,0.4-0.1,0.6,0c0.3,0.1,0.7,0.4,1.1,0.4c0.2,0,0.3-0.3,0.3-0.4s-0.1-0.3-0.3-0.3
		c-0.2,0-0.3,0.1-0.3,0.3c0,0,0,0.2-0.2,0.1C68.5,3.2,68.2,3,67.9,3C67.6,3,67,3.3,67.5,3.2 M69.1,3.9c-0.4,0.1-0.9-0.2-0.9-0.2
		c-0.3,0,0.2,0.7,0.6,0.7c0.3,0,0.4-0.3,0.4-0.4C69.2,3.9,69.2,3.9,69.1,3.9 M68.2,4.4C68,4,67.8,3.9,67.8,3.9
		c-0.1,0.1,0.1,0.6,0.3,0.7c0.2,0.2,0.6,0.2,0.6,0.1C68.8,4.6,68.4,4.7,68.2,4.4 M63.5,1.6c-0.7,0-0.8,0.5-0.8,0.5s0,0.3,0.2,0.3
		c0.5,0,0.2-0.6,0.6-0.6c0.3,0,0.8,0.4,0.8,0.4C64.4,2.1,64,1.6,63.5,1.6 M68.2,21.7c-0.3-1.5,0-2.9,0.7-4c-1,1.1-1.4,2.7-1.1,4.2
		c0.6,2.6,3.1,4.3,5.6,3.7c0,0,0.1,0,0.1,0C71.2,26.1,68.8,24.3,68.2,21.7 M75.6,16.7c0-0.5,0-0.7-0.1-0.9c-0.1-0.3-0.1-0.4-0.1-0.7
		c0-0.3-0.5-0.4-0.6-0.8c-0.1-0.6-0.5-0.6-0.8-0.6c-0.3,0-0.3-0.3-0.3-0.3s-0.6-1.3-1.7-1.3c-1.4,0-2.3,0.6-2.5,0.7
		c-0.3,0.2-0.3,0-0.3,0c0.1-0.5,0.1-1.4,0.1-1.5c0-0.2,0.3,0.1,0.5,0.2c0.2,0.1-0.1-0.9,0-1.2c0.1-1,0.9-1.7,0.9-1.7
		C72,8.7,72.5,8,72.3,7.8c-0.1-0.2-0.3,0.1-1-0.2c-0.7-0.3-0.2-0.8-0.2-0.9c0.1,0,0.5-0.6,0.5-0.8c0-0.3,0.4-0.4,0.4-0.7
		c0-0.9-1.3-2.2-1.6-2.3c-0.3-0.2,0-0.4-0.4-0.8c-0.5-0.4-0.9-0.2-1.7-0.3c-0.7,0-1-0.6-1.7-0.7c-0.9,0-0.8,0.3-1.5,0.3
		c-0.7,0-1.3-0.7-2-0.7c-0.4,0-1.1,0.2-1.4,1c-0.2,0.9,0.4,1.3,0.4,1.3c-1.4,0.4-2.5,2.5-2.5,2.4c-0.2-0.5-0.1-1.1,0.3-2.1
		C60.6,2.6,60,2,59.5,1.7C59.1,1.5,59,1.2,59,1.2S58.8,0,57.3,0c-2.1,0-2.2,0.7-4.2,0.9c-2,0.2-3.1-0.3-3.2,0c-0.1,0.5,1.1,1,1,1.1
		c-0.2,0.1-0.4,0.1-0.9,0.2c-3.6,0.4-4.4-0.4-4.7-0.1c-0.3,0.4,1,1.1,1.2,1.1c0,0-0.3,0.3-1.7,0.3c-1.8,0-1.9-1-1.9-1.2
		c0-0.4,0.1-0.2,0.4-0.2c0.2,0,0.6-0.1,0.6-0.7c0-0.6-0.3-1-0.8-1.2c-0.6-0.2-2.6-0.3-2.6,2.2c0,0.6,0.3,1.4,0.8,1.9
		c0.9,1,2.3,1.4,2.3,1.4c-0.4,1.2,1.8,1.4,1.8,1.4c-0.2,1,1.2,1.2,1.5,1.2c0.2,0,0.5,0.1,0.5,0.1c0,0,0.1,0.2,0,0.2
		c-0.1,0.1-0.6,0.1-0.8,0.1c-2.2,0-4.8,4.7-6.7,4.7c-1.7,0-2.2-1.5-2.2-1.9c0,0-0.1-1.2,0.8-1.7c0.8-0.4,1.8,0.3,2.8,0.3
		c0.9,0,1.7-0.5,2.2-1.2c0.5-0.7,0.6-1.8-0.1-2.2c-0.7-0.5-1.1-0.2-1.2,0c0,0.2,0.5,0.7,0,0.9C42,8,41.1,6.9,39.9,6.9
		c-1.2,0-1.9,1.2-2.1,1.2c-0.2,0-0.4-1.1-0.6-1.1c-0.2,0-1.4,1.7-1.4,4.2c0,2.4,1.9,4.7,4,4.7c1.7,0,3.2-1.4,3.8-2
		c0.1-0.1,1.4-1.4,1.2-0.6c-0.4,1.8-2.5,3.2-2.7,3.3c-0.2,0.1,0,0.2,0.2,0.3c0.2,0.1,0.4,0.1,0.2,0.4c-0.7,0.8-1.5,0.9-2,1.1
		c-0.5,0.2-0.4,0.4-0.3,2c0.1,1.6-0.3,3.3-0.3,3.8c0,0.1-0.1,0.4,0,0.5c0.1,0.1,0.4-0.1,0.6-0.2c0.2-0.1,0.2,0,0.2,0
		c0.1,0.5,0.4,0.6,0.7,1.1c0.3,0.5,0.1,0.5,0.4,1c0.4,0.5,1.2,0.4,1.6,0.3c0.4-0.2,0.6-0.1,1,0.2c0.4,0.3,0.8,0.3,0.8,0.3
		c0.5-0.1,0.4-0.4,0.5-0.6c0-0.1,0.1-0.2,0.3-0.1c0.3,0.2,0.5,0.4,0.9,0.2c0.3-0.2,0-0.8,0-0.8c-0.2-0.3-0.2-0.4-0.3-0.7
		c-0.3-0.5-0.6-0.3-0.7-0.7C45.8,24.3,45.4,24,45,24c-0.4,0-0.5,0.2-1,0.2c-0.5,0-0.9-0.4-0.9-1.7c0-1.1,0.8-1.6,2.3-1.9
		c1.5-0.3,1.7-0.6,2-0.8c0.2-0.2,0.3,0.8,0.2,1.5c-0.1,0.6,0.1,0.3,0.1,0.3c0.3-0.4,0.5-0.5,0.6-0.5c0.1,0,0,0.4-0.1,0.9
		c0,0.5-0.1,0.6,1.1,1.2c1.6,1.1,1.8,2.3,1.9,2.3c0.1,0,0.2-0.6,0.3-0.6c0.1,0,0.4,0.6,0.4,0.6c0.7,1.4,1.3,1.2,1.7,1.2
		c0.4,0,1-0.1,1.9,0.3c0.8,0.4,1,0.2,1,0c0-0.2,0.2-0.5,0.6-0.4c0.6,0.2,0.8,0.1,0.9,0.1c0.1,0,0.1-0.2,0-0.5
		c-0.1-0.4-0.4-0.6-0.5-0.9c-0.2-0.5-0.4-0.5-0.7-0.6c-0.2-0.1-0.4-0.4-0.7-0.6c-0.6-0.5-1.5,0-2-0.3c-1.6-0.8-2.1-2.2-2.1-2.7
		c0-0.6,0.2-0.7,0.9-1.9c0.8-1.1,0.1-2,0.5-2.4c0.2-0.1,0.5-0.2,1.8,1.6c1.5,1.9,3,1.6,3,1.6c0.1,0.2,0.2,0.4,0.2,1.4
		c0,0.8-0.3,1.7-0.2,1.8c0.2,0.2,0.8-0.6,1-0.6c0.5,0,0.1,2.5,0.9,3.9c0.5,1,1.6,0.6,1.9,0.5c1.1-0.3,1.4,0.6,2,0.5
		c0.4-0.1,0.2-0.4,0.5-0.6c0.3-0.2,0.5,0.2,1,0.2c0.2,0,0.3-0.2,0.3-0.5c0-0.3-0.1-0.5-0.4-0.8c-0.3-0.3-0.2-0.6-0.5-0.9
		c-0.4-0.4-0.5,0-1-0.4c-0.6-0.6-1.3-0.5-1.3-0.5c-0.3,0-0.4,0-0.4-0.7c0-2.5,0.7-3.4,1.4-3.7c0.8-0.3,1.3-0.8,1.5-0.9
		c0.1-0.1,0.1,0,0.1,0.2c0,0,0,0.2,0.1,0.3c0.1,0,0.5-0.2,1-0.8c0.6-0.7,0.8-1,1.1-1.1c0.3-0.1,0,0.3,0,0.3s-1,1.3-1,3.2
		c0,3.2,2.6,5.6,5.6,5.6c3,0,5.5-2.4,5.5-5.4C77.7,18.1,75.6,16.7,75.6,16.7 M75.3,16c0.1,0.2,0.1,1-0.1,1c-0.1,0-0.3-0.3-0.4-0.5
		c0-0.1,0-0.2,0.1-0.2C75,16.1,75.2,15.9,75.3,16 M72,12.5c0.8,0,1.2,0.8,1.4,1.1c0,0.1,0.2,0.4,0.6,0.4c0.4-0.1,0.5,0.2,0.5,0.5
		c0,0.3,0.5,0.3,0.5,0.6c0,0.2,0.1,0.4,0.1,0.6c0,0.1-0.1,0.2-0.2,0.3c-0.1,0-0.2,0-0.2,0c-0.3-0.2-0.8-0.7-1.3-0.7
		c-0.4,0-0.4,0.2-0.6,0.2c-0.2,0-0.6-0.9-1.7-0.8c-0.8,0.1-0.7,1-1.1,1.2c-0.8,0.5-1.7,1.2-1.8,1.2c-0.1,0-0.3,0.1-0.3-0.2
		c0-0.3,0.5-0.7,0.8-1.6C68.9,14.4,69.2,12.6,72,12.5 M73.8,16.1c0,0.2-0.2,0.5-0.3,0.5c-0.1,0-0.5-0.4-0.6-0.7
		c0-0.1,0.1-0.3,0.4-0.3C73.3,15.6,73.8,15.6,73.8,16.1 M71.9,15.5c-0.3,0-0.8,0.1-1.2,0.2c-0.1,0-0.2,0-0.2-0.1
		c0,0,0.1-0.5,0.5-0.6c0.4-0.1,0.9,0.2,1,0.4C72.1,15.5,72,15.6,71.9,15.5 M63.8,12.7c-0.3-1.5,0.1-2.1,0-2.2c0,0-0.4,0.4-0.4,0.4
		c0,0,0,0,0,0c-1.2,1.5-3.2,1.5-3.3,1.5c-0.1-0.1,0.2-0.1,0.4-1.5c0.2-1.4,1-1.9,0.9-2c-0.1-0.1-0.5,0.6-1.7,0.3
		c-1.4-0.4-1.6,0-1.7,0c-0.1-0.1,0.6-0.7,1.1-1.1c0.5-0.4,1.2-1.3,1.2-1.3c1.2,0,2.1-0.4,2.2-0.4c0.1,0-0.1,0.3-0.1,0.3
		c-0.4,1.7,0.1,3,0.2,3c0.1,0,0.2-0.4,0.7-1c0.4-0.4,0.7-0.6,1.4-0.8c0.6-0.2,0.8-0.6,0.5,0.1c-0.4,1.1,0.1,2.5,0.1,2.5
		c0.2,0.5,0.2,0.5,0.4,0.2c0.7-0.9,1.2-1.2,2-2c0,0,0.1-0.1,0.1,0.3c0.2,0.9,1.1,1.7,0.9,3.1c-0.1,1.2-1.1,2.1-1.1,2
		c-0.1-0.1,0.1-0.8-0.6-1.8c-0.4-0.6-0.4-1.3-0.5-1.3c-0.1,0-0.1,0.2-0.2,0.4c-0.6,1.5-1.8,2.3-2,2.4C64,14.2,64,14,64,14
		S64,13.5,63.8,12.7 M72,8c0,0.1-0.4,0.5-1.5,0.3c-0.4-0.1-0.7-0.3-0.8-0.6c0-0.1,0-0.2,0.2-0.2c0.2,0,0.6,0,1,0.2
		C71.7,8,72,7.9,72,8 M70.1,7.2c0,0.2-0.1,0-0.7,0c-0.6,0-0.6-0.7-0.6-0.7c0-0.3,0.3-0.4,0.5-0.3c0.3,0.2,0.7,0.3,0.7,0.3
		C70,6.9,70.1,7.1,70.1,7.2 M70.4,6.7c0,0,0.2,0.1,0.4,0c0.2,0-0.1,0.7-0.3,0.7C70.3,7.4,70.2,6.6,70.4,6.7 M60.1,6
		c0.3-0.2,0.4-0.5,0.6-0.8c0.5-0.8,1.3-1.5,2.1-1.7c0,0,1.1,0.2,1.4-0.3c0-0.1-0.5,0.1-1,0c-0.4-0.1-0.8-0.3-0.8-1.1
		c0,0,0.1-0.9,1-0.9c0.7,0,1,0.7,2.1,0.7c0.5,0,0.8-0.4,1.3-0.4c0.5,0,0.6,0.7,1.8,0.8c1.2,0.1,1.1,0,1.2,0.4
		c0.2,0.5,0.1,0.4,0.5,0.6c0.4,0.2,1.4,1.3,1.4,1.8c0,0.2-0.3,0.4-0.3,0.4S71.1,5.2,71,5.3c-0.1,0.1,0.3,0.6,0.3,0.6s0,0.4-0.4,0.5
		c-0.6,0.4-1.1-0.5-1.8-0.5c-0.6,0-0.6,1-0.3,1.3c0.1,0.1,0.1,0.2,0.5,0.3c0.3,0.1,0.2,0.5,0.6,0.8c0.2,0.2,0.5,0.2,0.4,0.3
		c0,0-0.5,0.4-0.8,1c-0.3,0.8,0.1,1.3-0.2,1.1c0,0-0.9-0.6-1.1-2.4c0,0-0.1-0.3-0.1-0.3c-0.1,0-0.5,0.7-1.2,1.2
		c-0.6,0.5-1.1,1-1.2,1c-0.1,0-0.4-0.6,0-2.1c0.1-0.5,0.2-0.7,0.2-0.9c0.1-0.4-0.6,0.4-2,0.8c-0.8,0.3-1.1,1-1.2,1
		c-0.1,0-0.1-1.6,0.3-2.5c0.3-0.9,0.5-1,0.4-1.1c-0.1-0.1-1.9,1.8-4,1.2C59.2,6.4,59.7,6.3,60.1,6 M46,7.3c1.3,0,2.2-0.1,2.2-0.3
		c0-0.1-4.1,0.2-4-1c1,0.1,2.5,0,2.5-0.3c0-0.1-3,0.4-5-1.5c-0.8-0.8-0.8-1.8-0.7-2c0-0.6,0.5-1.6,1.4-1.6c0,0,1.1-0.1,1.1,0.9
		c0,0.6-0.5,0.3-0.5,0.3s-0.2-0.1-0.4,0.1c-0.1,0.2-0.4,1.8,1.5,2c2,0.2,2.9-0.5,3-0.5c0.9,0.2,2.5,0.4,2.5,0.2c0-0.1-3.1-0.5-3-1
		c0-0.3,1.7,0.6,4.9-0.5c0.8,0.2,2.7,0.1,2.8-0.2c0-0.2-1.9,0.3-3.5-0.6c0,0-0.4-0.3,0.1-0.1c0.5,0.1,2.4,0.2,4.2-0.4
		c1.9-0.6,2.8-0.4,3,0c0.3,0.4,0.3,0.9,0.8,1.1c0.4,0.2,0.6,0.3,0.7,0.6c0.1,0.1,0.1,0.4,0,0.7c-0.6,1.9-0.4,1.8-0.2,2.4
		c0.1,0.2-1.1,0.4-1.1,0.5c-0.1,0.2,0.8,0.4,1.1,0.4c0,0-0.1,0.4-0.8,1c-0.7,0.6-1.4,1.1-1.4,2.1c0,0.3,0.1,0.1,0.1,0.1
		c0,0,0.6-0.6,1.7-0.3c1,0.3,1.2,0.1,1.2,0.2c0,0.1-0.1,0.3-0.3,0.8C60,11.1,56.8,13,55.5,12c0.3-0.2,0.9-0.7,0.8-0.9
		c-0.1-0.1-2.1,1.6-3.6,0c0.5-0.1,1.2-0.6,1.1-0.7c-0.1-0.1-2.7,1.2-3.5-0.3c0.8,0,2.1-0.3,2-0.5c-0.1-0.2-4.4,0.9-4.3-1
		c1,0,2.6-0.1,2.6-0.4C50.5,8,46,8.6,46,7.3 M45.2,27.1c-0.1,0-0.7-0.2-0.6-0.5c0,0,0.1-0.4,0.3-0.4c0.2,0,0.4,0.1,0.5,0.4
		C45.5,26.9,45.4,27.1,45.2,27.1 M46.4,26c0.3-0.1,0.5,0.6,0.4,0.7c-0.1,0.1-0.8-0.1-0.7-0.4C46.1,26.3,46.1,26.1,46.4,26 M56.2,27
		c-0.2,0-0.9-0.2-0.8-0.5c0,0,0.1-0.4,0.6-0.2C56.3,26.5,56.3,27,56.2,27 M57.2,25.7c0.1,0,0.2,0,0.3,0.1c0.2,0.3,0.3,0.7,0.2,0.7
		c-0.1,0-0.7,0-0.8-0.4C56.9,25.8,57.1,25.7,57.2,25.7 M52.5,19.2c-0.3,0.4-0.9,0.9-0.9,2.1c0,1.2,1.3,2.6,2.5,3.1
		c0.8,0.2,1.1-0.2,1.7,0.2c0.2,0.2,0.4,0.3,0.7,0.5c0.5,0.2,0.5,0.4,0.4,0.5c-0.4,0.3-0.1,0.8-0.2,0.8c-0.2,0.1-0.9-0.5-1.3-0.4
		c-0.4,0.2-0.2,0.5-0.4,0.5c-0.2,0-0.6-0.2-1.3-0.2c-0.7,0.1-1-0.3-1.5-1.1c-0.5-0.8-0.8-1.5-1-1.5c-0.2,0,0,0.5-0.2,0.5
		c-0.2,0-0.9-1.3-2.2-2c-0.1-0.1-0.3-0.2-0.2-0.7c0.1-0.6,0.2-1.7,0.1-1.7c-0.1,0-0.7,0.7-0.9,0.7c-0.1,0,0-0.4,0-0.6
		c0,0,0-0.8,0.5-1.6c0.5-0.8,0.8-1.4,1.7-1.4c0.5,0,0.5,0.3,0.8,0.3c0.2,0,0.5-0.7,1.4-0.7C53.4,16.5,52.9,18.7,52.5,19.2
		 M64.1,27.3c-0.2,0-0.9-0.5-0.6-0.6c0,0,0.3-0.2,0.6,0C64.3,26.8,64.3,27.3,64.1,27.3 M65.3,26.1c0.2,0,0.6,0.7,0.4,0.8
		c-0.3,0.1-0.7-0.2-0.7-0.4C65,26.5,65,26.1,65.3,26.1 M67.5,16.5c-0.6,0.6-1.5,2.2-1.6,2.1c-0.1-0.1,0.1-0.8-0.1-0.9
		c-0.2-0.1-0.1,0.3-0.8,0.8c-0.3,0.2-0.7,0.5-1.1,0.6c-0.4,0.2-0.8,0.3-1.2,0.9c-0.9,1.2-0.8,3.8-0.7,4.2c0.1,0.4,0.5,0.2,1,0.2
		c0.5,0,0.6,0.4,0.9,0.6c0.2,0.2,0.5,0.1,0.7,0.1c0.2,0,0.4,0.3,0.4,0.5c0,0.2-0.3,0.8-0.6,0.8c-0.2,0-0.4-0.3-0.8-0.3
		c-0.3,0-0.4,0.1-0.5,0.2c-0.2,0.1-0.3,0.1-0.6,0.1c-0.7,0-0.6,0.2-1.3,0.2c-0.6,0-1.1-1-1.1-2.7c0-1.7-0.4-1.8-0.7-1.9
		c-0.1,0-0.3,0.1-0.5,0.3c-0.2,0.3-0.1-0.2-0.1-0.2c0.3-1.3,0.1-2-0.1-2.8c-0.1-1.7,0.1-2.1,0.7-2.6c0.5-0.5,0.8-0.9,0.8-1.3
		c0-0.3-0.1,0-0.1,0c-0.5,1-1.3,1.1-1.7,1.8c-0.5,0.9-0.3,2.1-0.3,2.1c-1.8,0-2.6-1.5-3.3-2.3c-0.7-0.8-1.3-1.2-2.3-1.2
		c-1,0-1.2,0.2-1.4,0.4c-0.2,0.1-0.4,0.3-0.6,0.2c-0.2-0.1-0.8-0.1-0.9-0.1c-0.2,0.1-0.1-0.1-0.1-0.1c0.2-0.6,1-0.8,1-0.8
		s0.4,0,0.1-0.1c-1,0-1.7,0.8-2.2,1.8c-0.5,1-0.4,1.1-1.2,2c-0.8,0.9-2.5,0.8-3.6,1.4c-0.6,0.4-1,1.4-0.9,2.3c0.1,0.9,0.4,1.4,1,1.6
		c0.7,0.1,0.9-0.1,1.3-0.2c0.4,0,0.4,0.3,0.5,0.4c0,0.1,0,0.3,0.3,0.3c0.3,0,0.5,0.4,0.5,0.5c0,0.2,0,0.2-0.2,0.3
		c-0.2,0.1-0.1,0.3-0.3,0.4c-0.3,0.1-0.4-0.4-0.9-0.4c-0.4,0.1-0.5,0.5-0.5,0.6c-0.1,0.1-0.2,0-0.4-0.1c-0.5-0.2-0.9,0.2-1.4,0.2
		c-0.6,0-0.8-0.8-0.9-1c-0.1-0.4-0.6-0.6-0.6-1c0-0.3-0.1-0.7-0.3-0.7c-0.2,0-0.4,0.3-0.5,0.3c-0.1,0,0.4-0.9,0.3-3.8
		c0-1.2,0-1.3,0.5-1.5c1-0.3,1.6-0.8,2.1-1.4c0.2-0.3-0.2-0.4-0.4-0.6c-0.1-0.1,0-0.2,0.1-0.3c0.3-0.3,1.2-0.9,1.9-2
		c0.5-0.7,0.9-2.2,0.2-2.2c-0.7,0-3,3.1-5,3.1c-2,0-3.4-1.7-3.7-3.6c-0.3-1.9,0.5-3.9,0.8-4c0.2-0.1,0.2,1.6,0.4,1.6
		c0.2,0,0.7-2.1,2.4-2.1c1.3,0,2,1.2,2.7,0.8c0.7-0.4,0.1-1,0.2-1.2c0.1-0.2,0.9,0.1,0.9,1.1c0,0.9-1.1,2-2.1,2
		c-1.1,0-1.3-0.5-2.3-0.5c-1,0-1.8,1-1.8,1.8c0,0.8,0.3,2.5,2.3,2.7c2,0,4.3-3,5.2-3.9c0.9-0.9,2.2-1.2,2.7-0.7
		c0.5,0.5,1.9,0.7,1.9,0.7c1.1,1.7,2.6,1.1,2.6,1.1c0.8,1.5,2.9,0.9,2.9,0.9c1.5,1.4,4.9-0.8,4.9-0.8c-0.1,0.7-0.4,1.1-0.7,1.3
		c-0.2,0.2,0.1,0.2,0.1,0.2c2.2,0.3,3.9-0.8,3.9-0.8s0,0.1,0,0.1c0.1,0.9,0.4,1.5,0.3,2.4c-0.1,0.3,0.2,0.1,0.2,0.1
		c2.2-0.7,2.8-2.5,2.8-2.5s0,0.2,0.4,0.8c0.4,0.6,0.3,1.4,0.2,1.9c-0.1,0.5,1.2-0.9,1.2-0.9C68.3,15.1,68,15.9,67.5,16.5 M72.1,26.2
		c-2.9,0-5.2-2.3-5.2-5.2c0-2.9,2.3-5.2,5.2-5.2c0.1,0,0.1,0,0.2,0c0,0,0.4,0.1,0.6,0.5c0.1,0.1,0.3,0.5,0.6,0.5
		c0.3,0,0.4-0.6,0.6-0.6c0.4,0,0.9,1.1,1.1,1.1c0.1,0,0.2-0.2,0.2-0.2c1.1,0.9,1.8,2.4,1.8,3.9C77.3,23.9,75,26.2,72.1,26.2
		 M41.3,26.4c-0.2,0,0,0.1-1.3,0.3C38.7,27,39.1,27,39.1,27h2.7c0.2,0-0.1-0.1-0.3-0.3C41.3,26.5,41.3,26.4,41.3,26.4 M59,26.8
		C57.8,27,58.4,27,58.4,27H60c0,0-0.1-0.3-0.2-0.4C59.7,26.4,59.4,26.7,59,26.8 M52,26.5c-0.1-0.1,0.1,0.1-1.2,0.3
		C49.4,27,49,27,49,27h3.7C52.8,27,52.3,26.9,52,26.5 M68.9,26.3c-0.1-0.1-0.1,0-0.2,0c-0.1,0.1-0.7,0.4-1.1,0.5
		C67.1,27,67.3,27,67.3,27h3.1c0,0,0.2,0-0.2-0.1C69.5,26.7,69,26.4,68.9,26.3"/>
</g>
</svg>
