<?xml version="1.0" encoding="utf-8"?>
<!-- Generator: Adobe Illustrator 23.0.2, SVG Export Plug-In . SVG Version: 6.00 Build 0)  -->
<svg version="1.1" id="Layer_1" xmlns="http://www.w3.org/2000/svg" xmlns:xlink="http://www.w3.org/1999/xlink" x="0px" y="0px"
	 viewBox="0 0 19 21.1" style="enable-background:new 0 0 19 21.1;" xml:space="preserve">
<style type="text/css">
	.st0{fill:#FFFFFF;}
</style>
<path id="ic_assignment_24px" class="st0" d="M16.9,2.1h-4.4c-0.6-1.6-2.4-2.5-4-1.9c-0.9,0.3-1.6,1-1.9,1.9H2.1
	C0.9,2.1,0,3.1,0,4.2V19c0,1.2,0.9,2.1,2.1,2.1h14.8c1.2,0,2.1-0.9,2.1-2.1V4.2C19,3.1,18,2.1,16.9,2.1z M9.5,2.1
	c0.6,0,1.1,0.5,1.1,1.1s-0.5,1.1-1.1,1.1c-0.6,0-1.1-0.5-1.1-1.1C8.4,2.6,8.9,2.1,9.5,2.1z M11.6,16.9H4.2v-2.1h7.4V16.9z
	 M14.8,12.7H4.2v-2.1h10.5L14.8,12.7z M14.8,8.4H4.2V6.3h10.5L14.8,8.4z"/>
</svg>
