<?xml version="1.0" encoding="utf-8"?>
<!-- Generator: Adobe Illustrator 23.0.2, SVG Export Plug-In . SVG Version: 6.00 Build 0)  -->
<svg version="1.1" id="Capa_1" xmlns="http://www.w3.org/2000/svg" xmlns:xlink="http://www.w3.org/1999/xlink" x="0px" y="0px"
	 viewBox="0 0 512 512" style="enable-background:new 0 0 512 512;" xml:space="preserve">
<style type="text/css">
	.st0{fill:#697378;}
</style>
<g>
	<path class="st0" d="M384,192c0,64-64,127-64,192H192c0-63-64-128-64-192c0-70.7,57.3-128,128-128C326.7,64,384,121.3,384,192z
		 M304,448h-96c-8.8,0-16,7.2-16,16s7.2,16,16,16h2.9c6.6,18.6,24.2,32,45.1,32s38.5-13.4,45.1-32h2.9c8.8,0,16-7.2,16-16
		S312.8,448,304,448z M304,400h-96c-8.8,0-16,7.2-16,16s7.2,16,16,16h96c8.8,0,16-7.2,16-16S312.8,400,304,400z M81.7,109.9
		l28.7,16.6c4.4-9.8,9.8-19,16.1-27.7L97.7,82.1L81.7,109.9z M272,33.6V0h-32v33.6c5.3-0.6,10.5-1.6,16-1.6S266.7,33.1,272,33.6z
		 M190.4,46.4l-16.6-28.7l-27.8,16l16.7,28.8C171.4,56.3,180.6,50.9,190.4,46.4z M430.3,109.9l-16-27.8l-28.8,16.7
		c6.3,8.7,11.7,17.8,16.1,27.7L430.3,109.9z M365.8,33.7l-27.7-16l-16.6,28.7c9.8,4.4,19,9.8,27.6,16.1L365.8,33.7z M96,192
		c0-5.5,1.1-10.7,1.6-16H64v32h33.7C97.1,202.7,96,197.4,96,192z M414.4,176c0.6,5.3,1.6,10.5,1.6,16c0,5.4-1.1,10.7-1.7,16H448v-32
		H414.4z M388.1,286.7l26.2,15.1l16-27.7l-29.1-16.8C397.2,267.3,392.8,277.1,388.1,286.7z M81.7,274.1l16,27.7l26-15
		c-4.7-9.7-9.1-19.5-13-29.4L81.7,274.1z"/>
</g>
</svg>
