<?xml version="1.0" standalone="no"?>
<!DOCTYPE svg PUBLIC "-//W3C//DTD SVG 1.1//EN" "http://www.w3.org/Graphics/SVG/1.1/DTD/svg11.dtd" >
<svg xmlns="http://www.w3.org/2000/svg">
<metadata>Generated by IcoMoon</metadata>
<defs>
<font id="analytics-dashicons" horiz-adv-x="1024">
<font-face units-per-em="1024" ascent="960" descent="-64" />
<missing-glyph horiz-adv-x="1024" />
<glyph unicode="&#x20;" horiz-adv-x="512" d="" />
<glyph unicode="&#xe900;" glyph-name="ic_arrow_upward" d="M0 448l90.24-90.24 357.76 357.12v-778.88h128v778.88l357.12-357.76 90.88 90.88-512 512z" />
<glyph unicode="&#xe901;" glyph-name="ic_arrow_downward_-1" d="M1024 448l-90.24 90.24-357.76-357.12v778.88h-128v-778.88l-357.12 357.76-90.88-90.88 512-512z" />
<glyph unicode="&#xe902;" glyph-name="ic_tune_24px" d="M0 163.556v-113.778h341.333v113.778zM0 846.222v-113.778h568.889v113.778zM568.889-64v113.778h455.111v113.778h-455.111v113.778h-113.778v-341.333zM227.556 618.667v-113.778h-227.556v-113.778h227.556v-113.778h113.778v341.333zM1024 391.111v113.778h-568.889v-113.778zM682.667 618.667h113.778v113.778h227.556v113.778h-227.556v113.778h-113.778z" />
<glyph unicode="&#xe903;" glyph-name="ic_add_alert_24px" d="M414.964 33.036c0-53.592 43.445-97.036 97.036-97.036s97.036 43.445 97.036 97.036v0zM847.482 237.349v283.794c0 0.026 0 0.056 0 0.087 0 157.707-108.931 289.973-255.658 325.659l-2.293 0.471v35.109c0 42.819-34.712 77.531-77.531 77.531s-77.531-34.712-77.531-77.531v0-35.109c-149.019-36.158-257.95-168.423-257.95-326.13 0-0.031 0-0.061 0-0.092v0.005-283.794l-103.375-103.375v-51.688h877.714v51.688zM707.048 423.131h-146.286v-146.286h-97.524v146.286h-146.286v98.011h146.286v146.286h97.524v-146.286h146.286z" />
<glyph unicode="&#xe904;" glyph-name="ic_add_box_24px" d="M910.222 960h-796.444c-62.838 0-113.778-50.94-113.778-113.778v0-796.444c0-62.838 50.94-113.778 113.778-113.778v0h796.444c62.76 0.193 113.584 51.018 113.778 113.759v796.463c-0.193 62.76-51.018 113.584-113.759 113.778h-0.019zM796.444 391.111h-227.556v-227.556h-113.778v227.556h-227.556v113.778h227.556v227.556h113.778v-227.556h227.556z" />
<glyph unicode="&#xe905;" glyph-name="ic_add_circle_outline_24px" d="M563.2 704h-102.4v-204.8h-204.8v-102.4h204.8v-204.8h102.4v204.8h204.8v102.4h-204.8zM512 960c-282.77 0-512-229.23-512-512s229.23-512 512-512c282.77 0 512 229.23 512 512v0c0 282.77-229.23 512-512 512v0zM512 38.4c-226.216 0-409.6 183.384-409.6 409.6s183.384 409.6 409.6 409.6c226.216 0 409.6-183.384 409.6-409.6v0c-0.32-226.087-183.513-409.28-409.569-409.6h-0.031z" />
<glyph unicode="&#xe906;" glyph-name="ic_add_shopping_cart_24px" d="M512 569.905h97.524v146.286h146.286v97.524h-146.286v146.286h-97.524v-146.286h-146.286v-97.524h146.286zM316.952 131.048c-53.861 0-97.524-43.663-97.524-97.524s43.663-97.524 97.524-97.524c53.861 0 97.524 43.663 97.524 97.524v0c0 53.861-43.663 97.524-97.524 97.524v0zM804.571 131.048c-53.861 0-97.524-43.663-97.524-97.524s43.663-97.524 97.524-97.524c53.861 0 97.524 43.663 97.524 97.524v0c0 53.861-43.663 97.524-97.524 97.524v0zM325.242 289.524l1.463 5.851 43.886 79.482h363.276c0.091 0 0.198 0 0.306 0 36.425 0 68.165 20.060 84.775 49.734l0.252 0.491 188.221 341.821-84.846 46.811h-0.488l-53.638-97.524-134.583-243.81h-342.309l-6.339 13.166-109.227 230.644-46.324 97.524-45.836 97.524h-159.451v-97.524h97.524l175.543-370.103-65.829-119.467c-7.668-13.335-12.192-29.321-12.192-46.364 0-0.157 0-0.314 0.001-0.472v0.024c0.166-53.794 43.73-97.358 97.508-97.524h585.159v97.524h-564.663c-6.689 0.108-12.083 5.502-12.19 12.18v0.010z" />
<glyph unicode="&#xe907;" glyph-name="ic_autorenew_24px" d="M512 727.273v-139.636l186.182 186.182-186.182 186.182v-139.636c-0.193 0-0.421 0.001-0.65 0.001-205.291 0-371.712-166.421-371.712-371.712 0-73.806 21.51-142.587 58.604-200.418l-0.89 1.482 67.956 67.956c-20.516 37.425-32.583 82.001-32.583 129.396 0 0.327 0.001 0.655 0.002 0.982v-0.051c0 154.238 125.035 279.273 279.273 279.273v0zM826.647 646.284l-67.956-67.956c20.52-37.879 32.582-82.927 32.582-130.793 0-153.981-124.826-278.807-278.807-278.807-0.164 0-0.328 0-0.492 0h0.026v139.636l-186.182-186.182 186.182-186.182v139.636c0.193 0 0.421-0.001 0.65-0.001 205.291 0 371.712 166.421 371.712 371.712 0 73.806-21.51 142.587-58.604 200.418l0.89-1.482z" />
<glyph unicode="&#xe908;" d="M757.27 661.273l-159.987 159.987-426.631-426.631v-159.987h159.987zM883.553 787.556c7.667 7.711 12.406 18.341 12.406 30.077s-4.739 22.366-12.408 30.080l-99.83 99.83c-7.711 7.667-18.341 12.406-30.077 12.406s-22.366-4.739-30.080-12.408l-83.618-83.618 159.987-159.987z" />
<glyph unicode="&#xe909;" d="M0 106.652h1023.915v-170.652h-1023.915z" />
<glyph unicode="&#xe90a;" glyph-name="ic_card_travel_24px" d="M921.6 729.6h-153.6v102.4c0 0.107 0.001 0.233 0.001 0.359 0 56.356-45.686 102.042-102.042 102.042-0.126 0-0.252 0-0.379-0.001h-307.18c-0.107 0-0.233 0.001-0.359 0.001-56.356 0-102.042-45.686-102.042-102.042 0-0.126 0-0.252 0.001-0.379v0.020-102.4h-153.6c-0.107 0-0.233 0.001-0.359 0.001-56.356 0-102.042-45.686-102.042-102.042 0-0.126 0-0.252 0.001-0.379v0.020-563.2c0-0.107-0.001-0.233-0.001-0.359 0-56.356 45.686-102.042 102.042-102.042 0.126 0 0.252 0 0.379 0.001h819.18c0.107 0 0.233-0.001 0.359-0.001 56.356 0 102.042 45.686 102.042 102.042 0 0.126 0 0.252-0.001 0.379v-0.020 563.2c0 0.107 0.001 0.233 0.001 0.359 0 56.356-45.686 102.042-102.042 102.042-0.126 0-0.252 0-0.379-0.001h0.020zM358.4 832h307.2v-102.4h-307.2zM921.6 64h-819.2v102.4h819.2zM921.6 320h-819.2v307.2h153.6v-102.4h102.4v102.4h307.2v-102.4h102.4v102.4h153.6z" />
<glyph unicode="&#xe90b;" glyph-name="ic_check_box_24px" d="M910.222 960h-796.444c-62.838 0-113.778-50.94-113.778-113.778v0-796.444c0-62.838 50.94-113.778 113.778-113.778v0h796.444c62.838 0 113.778 50.94 113.778 113.778v0 796.444c0 62.838-50.94 113.778-113.778 113.778v0zM398.222 163.556l-284.444 284.444 80.213 80.213 204.231-203.662 431.787 431.787 80.213-80.782z" />
<glyph unicode="&#xe90c;" glyph-name="ic_check_box_outline_blank_24px" d="M910.222 846.222v-796.444h-796.444v796.444h796.444zM910.222 960h-796.444c-62.76-0.193-113.584-51.018-113.778-113.759v-796.463c0.193-62.76 51.018-113.584 113.759-113.778h796.463c62.76 0.193 113.584 51.018 113.778 113.759v796.463c-0.193 62.76-51.018 113.584-113.759 113.778h-0.019z" />
<glyph unicode="&#xe90d;" glyph-name="ic_clear_24px" d="M1024 856.869l-103.131 103.131-408.869-408.869-408.869 408.869-103.131-103.131 408.869-408.869-408.869-408.869 103.131-103.131 408.869 408.869 408.869-408.869 103.131 103.131-408.869 408.869z" />
<glyph unicode="&#xe90e;" glyph-name="ic_dehaze_24px" d="M0 243.2v-102.4h1024v102.4zM0 499.2v-102.4h1024v102.4zM0 755.2v-102.4h1024v102.4z" />
<glyph unicode="&#xe90f;" glyph-name="ic_delete_24px" d="M170.667 49.778c0.193-62.76 51.018-113.584 113.759-113.778h455.13c62.76 0.193 113.584 51.018 113.778 113.759v682.686h-682.667zM910.222 903.111h-199.111l-56.889 56.889h-284.444l-56.889-56.889h-199.111v-113.778h796.444z" />
<glyph unicode="&#xe910;" glyph-name="ic_done_24px" d="M318.578 214.756l-238.933 238.933-79.644-79.644 318.578-318.578 682.667 682.667-79.644 79.644z" />
<glyph unicode="&#xe911;" glyph-name="ic_error_24px" d="M512 960c-282.77 0-512-229.23-512-512s229.23-512 512-512c282.77 0 512 229.23 512 512v0c0 282.77-229.23 512-512 512v0zM563.2 192h-102.4v102.4h102.4zM563.2 396.8h-102.4v307.2h102.4z" />
<glyph unicode="&#xe912;" glyph-name="ic_error_outline_24px" d="M460.8 294.4h102.4v-102.4h-102.4zM460.8 704h102.4v-307.2h-102.4zM511.488 960c-282.55-0.292-511.488-229.41-511.488-512 0-282.77 229.23-512 512-512s512 229.23 512 512v0c0 282.77-229.23 512-512 512-0.18 0-0.36 0-0.54 0h0.028zM512 38.4c-226.216 0-409.6 183.384-409.6 409.6s183.384 409.6 409.6 409.6c226.216 0 409.6-183.384 409.6-409.6v0c0-226.216-183.384-409.6-409.6-409.6v0z" />
<glyph unicode="&#xe913;" glyph-name="ic_exit_to_app_24px" d="M403.342 243.769l80.213-80.213 284.444 284.444-284.444 284.444-80.213-80.213 146.773-147.342h-550.116v-113.778h550.116zM910.222 960h-796.444c-62.838 0-113.778-50.94-113.778-113.778v0-227.556h113.778v227.556h796.444v-796.444h-796.444v227.556h-113.778v-227.556c0-62.838 50.94-113.778 113.778-113.778v0h796.444c62.76 0.193 113.584 51.018 113.778 113.759v796.463c-0.193 62.76-51.018 113.584-113.759 113.778h-0.019z" />
<glyph unicode="&#xe914;" glyph-name="ic_expand_more_24px" d="M903.68 746.667l-391.68-390.827-391.68 390.827-120.32-120.32 512-512 512 512z" />
<glyph unicode="&#xe915;" glyph-name="ic_group_24px" d="M698.182 494.545c77.119 0 139.636 62.517 139.636 139.636s-62.517 139.636-139.636 139.636c-77.119 0-139.636-62.517-139.636-139.636v0c-0.001-0.18-0.001-0.393-0.001-0.606 0-76.785 62.246-139.031 139.031-139.031 0.213 0 0.426 0 0.639 0.001h-0.033zM325.818 494.545c77.119 0 139.636 62.517 139.636 139.636s-62.517 139.636-139.636 139.636c-77.119 0-139.636-62.517-139.636-139.636v0c-0.001-0.18-0.001-0.393-0.001-0.606 0-76.785 62.246-139.031 139.031-139.031 0.213 0 0.426 0 0.639 0.001h-0.033zM325.818 401.455c-108.451 0-325.818-54.458-325.818-162.909v-116.364h651.636v116.364c0 108.451-217.367 162.909-325.818 162.909zM698.182 401.455c-13.498 0-28.858-0.931-45.149-2.327 53.937-34.35 89.694-93.082 91.688-160.293l0.007-0.289v-116.364h279.273v116.364c0 108.451-217.367 162.909-325.818 162.909z" />
<glyph unicode="&#xe916;" glyph-name="ic_help_outline_24px" d="M460.8 140.8h102.4v102.4h-102.4zM512 960c-282.77 0-512-229.23-512-512s229.23-512 512-512c282.77 0 512 229.23 512 512v0c0 282.77-229.23 512-512 512v0zM512 38.4c-226.216 0-409.6 183.384-409.6 409.6s183.384 409.6 409.6 409.6c226.216 0 409.6-183.384 409.6-409.6v0c-0.32-226.087-183.513-409.28-409.569-409.6h-0.031zM512 755.2c-113.108 0-204.8-91.692-204.8-204.8v0h102.4c0 56.554 45.846 102.4 102.4 102.4s102.4-45.846 102.4-102.4v0c0-102.4-153.6-89.6-153.6-256h102.4c0 115.2 153.6 128 153.6 256 0 113.108-91.692 204.8-204.8 204.8v0z" />
<glyph unicode="&#xe917;" glyph-name="ic_highlight_off_24px" d="M644.608 652.8l-132.608-132.608-132.608 132.608-72.192-72.192 132.608-132.608-132.608-132.608 72.192-72.192 132.608 132.608 132.608-132.608 72.192 72.192-132.608 132.608 132.608 132.608zM512 960c-282.77 0-512-229.23-512-512s229.23-512 512-512c282.77 0 512 229.23 512 512v0c0 0.137 0 0.299 0 0.461 0 282.515-229.024 511.539-511.539 511.539-0.162 0-0.325 0-0.487 0h0.026zM512 38.4c-226.216 0-409.6 183.384-409.6 409.6s183.384 409.6 409.6 409.6c226.216 0 409.6-183.384 409.6-409.6v0c-0.32-226.087-183.513-409.28-409.569-409.6h-0.031z" />
<glyph unicode="&#xe918;" glyph-name="ic_home_24px" d="M409.6 12.8v307.2h204.8v-307.2h256v409.6h153.6l-512 460.8-512-460.8h153.6v-409.6z" />
<glyph unicode="&#xe919;" glyph-name="ic_info_outline_24px" d="M460.8 192h102.4v307.2h-102.4zM512 960c-282.77 0-512-229.23-512-512s229.23-512 512-512c282.77 0 512 229.23 512 512v0c0 282.77-229.23 512-512 512v0zM512 38.4c-226.216 0-409.6 183.384-409.6 409.6s183.384 409.6 409.6 409.6c226.216 0 409.6-183.384 409.6-409.6v0c-0.32-226.087-183.513-409.28-409.569-409.6h-0.031zM460.8 601.6h102.4v102.4h-102.4z" />
<glyph unicode="&#xe91a;" glyph-name="ic_input_24px" d="M930.909 866.909h-837.818c-51.349-0.158-92.933-41.742-93.091-93.076v-185.731h93.091v186.647h837.818v-653.033h-837.818v187.113h-93.091v-186.647c0.237-50.95 41.595-92.161 92.578-92.161 0.18 0 0.361 0.001 0.541 0.002h837.79c0.152-0.001 0.333-0.001 0.513-0.001 50.983 0 92.341 41.211 92.578 92.139v651.659c0 51.413-41.678 93.091-93.091 93.091v0zM465.455 262.284l186.182 186.182-186.182 186.182v-139.636h-465.455v-93.091h465.455z" />
<glyph unicode="&#xe91b;" glyph-name="ic_notifications_24px" d="M512-38.4c56.484 0.174 102.226 45.916 102.4 102.383v0.017h-204.8c0-56.554 45.846-102.4 102.4-102.4v0zM819.2 268.8v256c0 157.184-83.968 288.768-230.4 323.584v34.816c0 42.415-34.385 76.8-76.8 76.8s-76.8-34.385-76.8-76.8v0-34.816c-146.944-34.816-230.4-165.888-230.4-323.584v-256l-102.4-102.4v-51.2h819.2v51.2z" />
<glyph unicode="&#xe91c;" glyph-name="ic_open_with_24px" d="M418.909 587.636h186.182v139.636h139.636l-232.727 232.727-232.727-232.727h139.636zM372.364 541.091h-139.636v139.636l-232.727-232.727 232.727-232.727v139.636h139.636zM1024 448l-232.727 232.727v-139.636h-139.636v-186.182h139.636v-139.636zM605.091 308.364h-186.182v-139.636h-139.636l232.727-232.727 232.727 232.727h-139.636z" />
<glyph unicode="&#xe91d;" glyph-name="ic_perm_identity_24px" d="M512 838.4c74.227 0 134.4-60.173 134.4-134.4s-60.173-134.4-134.4-134.4c-74.227 0-134.4 60.173-134.4 134.4v0c0 74.227 60.173 134.4 134.4 134.4v0zM512 262.4c190.080 0 390.4-93.44 390.4-134.4v-70.4h-780.8v70.4c0 40.96 200.32 134.4 390.4 134.4zM512 960c-141.385 0-256-114.615-256-256s114.615-256 256-256c141.385 0 256 114.615 256 256v0c0 141.385-114.615 256-256 256v0zM512 384c-170.88 0-512-85.76-512-256v-192h1024v192c0 170.24-341.12 256-512 256z" />
<glyph unicode="&#xe91e;" glyph-name="ic_person_24px" d="M512 448c141.385 0 256 114.615 256 256s-114.615 256-256 256c-141.385 0-256-114.615-256-256v0c0-141.385 114.615-256 256-256v0zM512 320c-170.88 0-512-85.76-512-256v-128h1024v128c0 170.24-341.12 256-512 256z" />
<glyph unicode="&#xe91f;" glyph-name="ic_radio_button_checked_24px" d="M512 704c-141.385 0-256-114.615-256-256s114.615-256 256-256c141.385 0 256 114.615 256 256v0c0 141.385-114.615 256-256 256v0zM512 960c-282.77 0-512-229.23-512-512s229.23-512 512-512c282.77 0 512 229.23 512 512v0c0 282.77-229.23 512-512 512v0zM512 38.4c-226.216 0-409.6 183.384-409.6 409.6s183.384 409.6 409.6 409.6c226.216 0 409.6-183.384 409.6-409.6v0c0-226.216-183.384-409.6-409.6-409.6v0z" />
<glyph unicode="&#xe920;" glyph-name="ic_radio_button_unchecked_24px" d="M512 960c-282.77 0-512-229.23-512-512s229.23-512 512-512c282.77 0 512 229.23 512 512v0c0 282.77-229.23 512-512 512v0zM512 38.4c-226.216 0-409.6 183.384-409.6 409.6s183.384 409.6 409.6 409.6c226.216 0 409.6-183.384 409.6-409.6v0c0-226.216-183.384-409.6-409.6-409.6v0z" />
<glyph unicode="&#xe921;" glyph-name="ic_remove_circle_outline_24px" d="M256 499.2v-102.4h512v102.4zM512 960c-282.77 0-512-229.23-512-512s229.23-512 512-512c282.77 0 512 229.23 512 512v0c0 282.77-229.23 512-512 512v0zM512 38.4c-226.216 0-409.6 183.384-409.6 409.6s183.384 409.6 409.6 409.6c226.216 0 409.6-183.384 409.6-409.6v0c-0.32-226.087-183.513-409.28-409.569-409.6h-0.031z" />
<glyph unicode="&#xe922;" glyph-name="ic_remove_red_eye_24px" d="M512 797.091c-231.403-0.142-429.394-143.040-510.686-345.387l-1.314-3.704c82.508-206.12 280.561-349.064 512-349.064s429.492 142.944 510.689 345.362l1.311 3.702c-82.606 206.051-280.597 348.949-511.982 349.091h-0.018zM512 215.273c-128.532 0-232.727 104.196-232.727 232.727s104.196 232.727 232.727 232.727c128.532 0 232.727-104.196 232.727-232.727v0c0-128.532-104.196-232.727-232.727-232.727v0zM512 587.636c-77.119 0-139.636-62.517-139.636-139.636s62.517-139.636 139.636-139.636c77.119 0 139.636 62.517 139.636 139.636v0c0 77.119-62.517 139.636-139.636 139.636v0z" />
<glyph unicode="&#xe923;" glyph-name="ic_reorder_24px" d="M0 277.333h1024v113.778h-1024zM0 49.778h1024v113.778h-1024zM0 504.889h1024v113.778h-1024zM0 846.222v-113.778h1024v113.778z" />
<glyph unicode="&#xe924;" glyph-name="ic_school_24px" d="M186.182 393.076v-186.182l325.818-177.804 325.818 177.804v186.182l-325.818-177.804zM512 866.909l-512-279.273 512-279.273 418.909 228.538v-321.629h93.091v372.364z" />
<glyph unicode="&#xe925;" glyph-name="ic_search_24px" d="M731.847 315.975h-46.253l-16.393 15.808c57.13 66.262 91.923 153.187 91.923 248.239 0 210.501-170.645 381.146-381.146 381.146s-381.146-170.645-381.146-381.146c0-210.501 170.645-381.146 381.146-381.146 95.051 0 181.976 34.794 248.733 92.34l-0.494-0.417 15.808-16.393v-46.253l292.739-292.153 87.236 87.236zM380.56 315.975c-145.508 0-263.465 117.957-263.465 263.465s117.957 263.465 263.465 263.465c145.508 0 263.465-117.957 263.465-263.465v0c0-0.105 0-0.228 0-0.352 0-145.314-117.8-263.114-263.114-263.114-0.124 0-0.247 0-0.371 0h0.019z" />
<glyph unicode="&#xe926;" glyph-name="ic_settings_24px" d="M904.141 397.824c2.135 14.947 3.433 32.336 3.583 49.999l0.001 0.177c-0.151 17.84-1.449 35.229-3.823 52.273l0.239-2.097 108.032 84.48c5.859 4.731 9.576 11.914 9.576 19.965 0 4.714-1.274 9.131-3.497 12.924l0.065-0.121-102.4 177.152c-4.495 7.762-12.761 12.9-22.228 12.9-3.235 0-6.33-0.6-9.18-1.695l0.175 0.059-127.488-51.2c-24.972 19.527-53.484 36.367-84.068 49.256l-2.46 0.92-19.456 135.68c-1.767 12.221-12.17 21.506-24.742 21.506-0.122 0-0.243-0.001-0.364-0.003h-204.782c-0.103 0.002-0.224 0.002-0.346 0.002-12.572 0-22.975-9.285-24.726-21.372l-0.016-0.135-19.456-135.68c-33.033-14.057-61.522-30.876-87.448-50.857l0.92 0.681-127.488 51.2c-2.748 1.131-5.938 1.788-9.281 1.788-9.425 0-17.631-5.218-21.886-12.923l-0.065-0.129-102.4-177.152c-2.224-3.684-3.54-8.134-3.54-12.891 0-8.047 3.765-15.214 9.63-19.836l0.054-0.041 108.032-84.48c-2.115-14.927-3.412-32.315-3.582-49.973l-0.002-0.203c0.172-17.861 1.469-35.249 3.824-52.299l-0.24 2.123-108.032-84.48c-5.859-4.731-9.576-11.914-9.576-19.965 0-4.714 1.274-9.131 3.497-12.924l-0.065 0.121 102.4-177.152c4.495-7.762 12.761-12.9 22.228-12.9 3.235 0 6.33 0.6 9.18 1.695l-0.175-0.059 127.488 51.2c24.972-19.527 53.484-36.367 84.068-49.256l2.46-0.92 19.456-135.68c1.767-12.221 12.17-21.506 24.742-21.506 0.122 0 0.243 0.001 0.364 0.003h204.782c0.103-0.002 0.224-0.002 0.346-0.002 12.572 0 22.975 9.285 24.726 21.372l0.016 0.135 19.456 135.68c33.033 14.057 61.522 30.876 87.448 50.857l-0.92-0.681 127.488-51.2c2.748-1.131 5.938-1.788 9.281-1.788 9.425 0 17.631 5.218 21.886 12.923l0.065 0.129 102.4 177.152c2.157 3.673 3.432 8.089 3.432 12.803 0 8.051-3.716 15.234-9.527 19.927l-0.049 0.038zM523.725 268.8c-98.969 0-179.2 80.231-179.2 179.2s80.231 179.2 179.2 179.2c98.969 0 179.2-80.231 179.2-179.2v0c0-98.969-80.231-179.2-179.2-179.2v0z" />
<glyph unicode="&#xe927;" glyph-name="ic_supervisor_account_24px" d="M742.4 448c70.692 0 128 57.308 128 128s-57.308 128-128 128c-70.692 0-128-57.308-128-128v0c0-0.122-0.001-0.266-0.001-0.41 0-70.466 57.124-127.59 127.59-127.59 0.144 0 0.289 0 0.433 0.001h-0.022zM358.4 499.2c84.831 0 153.6 68.769 153.6 153.6s-68.769 153.6-153.6 153.6c-84.831 0-153.6-68.769-153.6-153.6v0c-0.001-0.198-0.001-0.433-0.001-0.667 0-84.463 68.471-152.934 152.934-152.934 0.235 0 0.469 0.001 0.703 0.002h-0.036zM742.4 345.6c-93.696 0-281.6-47.104-281.6-140.8v-115.2h563.2v115.2c0 93.696-187.904 140.8-281.6 140.8zM358.4 396.8c-119.296 0-358.4-59.904-358.4-179.2v-128h358.4v115.2c3.025 79.42 51.509 146.816 120.055 177.155l1.289 0.509c-36.103 8.252-77.864 13.428-120.678 14.325l-0.666 0.011z" />
<glyph unicode="&#xe928;" glyph-name="ic_thumbs_up_down_24px" d="M512 704c0 23.564-19.103 42.667-42.667 42.667v0h-221.013l28.16 135.68 0.853 9.813c-0.128 13.298-5.476 25.322-14.089 34.143l0.009-0.010-33.707 33.707-210.773-210.773c-11.567-11.584-18.732-27.564-18.773-45.219v-277.341c0-35.346 28.654-64 64-64v0h288c26.233 0.090 48.762 15.855 58.718 38.415l0.162 0.412 96.427 225.707c2.937 6.934 4.659 14.994 4.693 23.453v0.013zM960 533.333h-288c-26.233-0.090-48.762-15.855-58.718-38.415l-0.162-0.412-96.427-225.707c-2.937-6.934-4.659-14.994-4.693-23.453v-53.346c0-23.564 19.103-42.667 42.667-42.667v0h221.013l-28.16-135.68-0.853-10.24c0.128-13.298 5.476-25.322 14.089-34.143l-0.009 0.010 33.707-33.28 210.773 210.773c11.567 11.584 18.732 27.564 18.773 45.219v277.341c0 35.346-28.654 64-64 64v0z" />
<glyph unicode="&#xe929;" glyph-name="ic_view_list_24px" d="M0 327.529h240.941v240.941h-240.941zM0 26.353h240.941v240.941h-240.941zM0 628.706h240.941v240.941h-240.941zM301.176 327.529h722.824v240.941h-722.824zM301.176 26.353h722.824v240.941h-722.824zM301.176 869.647v-240.941h722.824v240.941z" />
<glyph unicode="&#xe92a;" glyph-name="ic_visibility_24px" d="M512 797.091c-231.403-0.142-429.394-143.040-510.686-345.387l-1.314-3.704c82.508-206.12 280.561-349.064 512-349.064s429.492 142.944 510.689 345.362l1.311 3.702c-82.606 206.051-280.597 348.949-511.982 349.091h-0.018zM512 215.273c-128.532 0-232.727 104.196-232.727 232.727s104.196 232.727 232.727 232.727c128.532 0 232.727-104.196 232.727-232.727v0c0-128.532-104.196-232.727-232.727-232.727v0zM512 587.636c-77.119 0-139.636-62.517-139.636-139.636s62.517-139.636 139.636-139.636c77.119 0 139.636 62.517 139.636 139.636v0c0 77.119-62.517 139.636-139.636 139.636v0z" />
<glyph unicode="&#xe92b;" glyph-name="ic_wb_incandescent_24px" d="M118.691 143.593l65.629-65.629 83.316 83.782-65.629 65.629-83.316-83.782zM465.455-38.4h93.091v137.309h-93.091zM139.636 517.818h-139.636v-93.091h139.636zM651.636 712.844v223.884h-279.273v-223.884c-84.065-49.186-139.636-139.032-139.636-241.857 0-154.238 125.035-279.273 279.273-279.273s279.273 125.035 279.273 279.273c0 102.825-55.571 192.671-138.318 241.144l-1.318 0.713zM884.364 517.818v-93.091h139.636v93.091zM755.898 161.28l83.316-83.782 65.629 65.629-83.782 83.316-65.164-65.164z" />
<glyph unicode="&#xe92c;" glyph-name="ic_work_24px" d="M921.6 729.6h-204.8v102.4c0 0.107 0.001 0.233 0.001 0.359 0 56.356-45.686 102.042-102.042 102.042-0.126 0-0.252 0-0.379-0.001h-204.78c-0.107 0-0.233 0.001-0.359 0.001-56.356 0-102.042-45.686-102.042-102.042 0-0.126 0-0.252 0.001-0.379v0.020-102.4h-204.8c-0.077 0-0.168 0-0.259 0-56.13 0-101.632-45.502-101.632-101.632 0-0.27 0.001-0.54 0.003-0.81v0.041l-0.512-563.2c0-0.107-0.001-0.233-0.001-0.359 0-56.356 45.686-102.042 102.042-102.042 0.126 0 0.252 0 0.379 0.001h819.18c0.107 0 0.233-0.001 0.359-0.001 56.356 0 102.042 45.686 102.042 102.042 0 0.126 0 0.252-0.001 0.379v-0.020 563.2c0 0.107 0.001 0.233 0.001 0.359 0 56.356-45.686 102.042-102.042 102.042-0.126 0-0.252 0-0.379-0.001h0.020zM614.4 729.6h-204.8v102.4h204.8z" />
</font>
</defs>
</svg>
