<?xml version="1.0" encoding="utf-8"?>
<!-- Generator: Adobe Illustrator 23.0.1, SVG Export Plug-In . SVG Version: 6.00 Build 0)  -->
<svg version="1.1" id="Layer_1" xmlns="http://www.w3.org/2000/svg" xmlns:xlink="http://www.w3.org/1999/xlink" x="0px" y="0px"
	 viewBox="0 0 614 356" style="enable-background:new 0 0 614 356;" xml:space="preserve">
<style type="text/css">
	.st0{fill:#FFFFFF;}
	.st1{enable-background:new    ;}
	.st2{fill:#697378;}
	.st3{fill:#CADBEC;}
	.st4{fill:#31394D;}
	.st5{fill:none;stroke:#8E9FA9;stroke-width:2;stroke-linecap:round;stroke-linejoin:round;}
	.st6{fill:none;stroke:#00897B;stroke-width:2;stroke-linecap:round;stroke-linejoin:round;}
	.st7{fill:#00897B;}
	.st8{opacity:0.102;}
	.st9{fill:url(#SVGID_1_);}
</style>
<g transform="translate(-911 -337)">
	<rect x="911" y="337" class="st0" width="614" height="356"/>
	<g class="st1">
		<path class="st2" d="M948.2,666.6l3.1-9.2h1.3l3.1,9.2h-1.2l-0.9-2.8h-3.4l-0.9,2.8H948.2z M950.5,662.8h2.8l-0.4-1.4
			c-0.3-1-0.6-2-0.9-3.1h-0.1c-0.3,1.1-0.6,2.1-0.9,3.1L950.5,662.8z"/>
		<path class="st2" d="M956.7,664.1v-4.3h1.1v4.2c0,0.6,0.1,1.1,0.3,1.4c0.2,0.3,0.5,0.4,1,0.4c0.3,0,0.6-0.1,0.9-0.3
			c0.3-0.2,0.6-0.5,0.9-0.9v-4.8h1.1v6.8h-1l-0.1-1h0c-0.7,0.8-1.4,1.2-2.2,1.2C957.4,666.7,956.7,665.8,956.7,664.1z"/>
		<path class="st2" d="M964.7,669.2c-0.5-0.3-0.8-0.8-0.8-1.4s0.3-1.1,1-1.5v-0.1c-0.4-0.3-0.6-0.6-0.6-1.1c0-0.5,0.2-0.9,0.7-1.3
			v-0.1c-0.6-0.5-0.9-1.1-0.9-1.8c0-0.7,0.2-1.3,0.7-1.7c0.5-0.4,1.1-0.7,1.8-0.7c0.4,0,0.7,0.1,1,0.2h2.4v0.9h-1.4
			c0.4,0.4,0.6,0.8,0.6,1.4c0,0.7-0.2,1.3-0.7,1.7s-1.1,0.6-1.8,0.6c-0.4,0-0.7-0.1-1-0.2c-0.3,0.3-0.4,0.5-0.4,0.8
			c0,0.5,0.4,0.8,1.2,0.8c0,0,0,0,0,0h1.3c0.8,0,1.4,0.1,1.8,0.4s0.6,0.7,0.6,1.2c0,0.7-0.3,1.2-1,1.7c-0.6,0.5-1.5,0.7-2.5,0.7
			C965.9,669.7,965.2,669.5,964.7,669.2z M964.9,667.7c0,0.4,0.2,0.7,0.5,0.9c0.3,0.2,0.8,0.3,1.4,0.3c0.6,0,1.1-0.1,1.6-0.4
			c0.4-0.3,0.6-0.6,0.6-1c0-0.3-0.1-0.5-0.3-0.7c-0.2-0.1-0.6-0.2-1-0.2h-1.2c-0.3,0-0.6,0-0.9-0.1
			C965.2,666.9,964.9,667.3,964.9,667.7z M965.7,660.9c-0.3,0.3-0.4,0.7-0.4,1.2s0.1,0.9,0.4,1.2c0.3,0.3,0.6,0.5,1,0.5
			s0.7-0.1,1-0.5c0.3-0.3,0.4-0.7,0.4-1.2s-0.1-0.9-0.4-1.2s-0.6-0.4-1-0.4S966,660.6,965.7,660.9z"/>
		<path class="st2" d="M973.7,658.8c0.8-0.9,1.7-1.4,2.7-1.4c0.8,0,1.5,0.2,1.9,0.7c0.5,0.5,0.7,1.1,0.7,1.9c0,0.8-0.3,1.6-0.9,2.4
			c-0.6,0.8-1.5,1.9-2.8,3.2c0.7-0.1,1.2-0.1,1.5-0.1h2.6v1h-5.8v-0.7c0.8-0.8,1.4-1.4,1.8-1.9c0.4-0.5,0.9-0.9,1.3-1.5
			c0.4-0.5,0.7-1,0.9-1.3c0.2-0.4,0.3-0.7,0.3-1.1c0-0.5-0.1-1-0.4-1.3c-0.3-0.3-0.7-0.5-1.3-0.5c-0.7,0-1.3,0.4-1.9,1.1
			L973.7,658.8z"/>
		<path class="st2" d="M981.5,665.5c-0.5-0.8-0.8-2-0.8-3.4s0.3-2.6,0.8-3.4c0.5-0.8,1.2-1.2,2.1-1.2c0.9,0,1.6,0.4,2.1,1.2
			c0.5,0.8,0.8,1.9,0.8,3.4s-0.3,2.6-0.8,3.4c-0.5,0.8-1.2,1.2-2.1,1.2C982.7,666.7,982,666.3,981.5,665.5z M981.8,662.1
			c0,1.3,0.2,2.2,0.5,2.8c0.3,0.6,0.7,0.9,1.3,0.9c0.5,0,1-0.3,1.3-0.9s0.5-1.6,0.5-2.8c0-2.5-0.6-3.7-1.7-3.7
			C982.4,658.4,981.8,659.6,981.8,662.1z"/>
		<path class="st2" d="M988.2,666.6v-0.9h2V659h-1.6v-0.8c0.7-0.1,1.4-0.3,1.9-0.6h0.9v8h1.8v0.9H988.2z"/>
		<path class="st2" d="M994.6,664.3c0-1,0.6-1.8,1.7-2.4v-0.1c-0.8-0.6-1.3-1.3-1.3-2.1c0-0.7,0.2-1.2,0.7-1.7s1.1-0.6,1.8-0.6
			c0.8,0,1.4,0.2,1.8,0.7c0.5,0.4,0.7,1,0.7,1.7c0,0.4-0.1,0.8-0.4,1.2s-0.5,0.7-0.9,0.9v0.1c0.5,0.3,0.9,0.6,1.1,0.9
			c0.3,0.4,0.4,0.8,0.4,1.3c0,0.7-0.3,1.2-0.8,1.7c-0.5,0.5-1.2,0.7-2.1,0.7c-0.8,0-1.5-0.2-2.1-0.7
			C994.9,665.6,994.6,665,994.6,664.3z M995.6,664.2c0,0.5,0.2,0.9,0.5,1.2c0.4,0.3,0.8,0.5,1.4,0.5c0.5,0,0.9-0.1,1.3-0.4
			s0.5-0.7,0.5-1.1c0-0.2,0-0.4-0.1-0.6s-0.2-0.3-0.3-0.5c-0.1-0.1-0.3-0.2-0.6-0.4c-0.3-0.1-0.5-0.2-0.6-0.3s-0.4-0.2-0.8-0.3
			C996.1,662.8,995.6,663.4,995.6,664.2z M996.1,659.8c0,0.5,0.2,0.8,0.5,1.1s0.9,0.5,1.5,0.8c0.6-0.6,0.9-1.2,0.9-1.8
			c0-0.5-0.1-0.8-0.4-1.1c-0.3-0.3-0.7-0.4-1.1-0.4c-0.4,0-0.8,0.1-1,0.4S996.1,659.3,996.1,659.8z"/>
	</g>
	<g class="st1">
		<path class="st2" d="M1045.2,665.4l0.7-0.8c0.7,0.8,1.6,1.1,2.5,1.1c0.6,0,1.1-0.1,1.4-0.4s0.5-0.6,0.5-1.1c0-0.2,0-0.4-0.1-0.6
			s-0.2-0.3-0.4-0.4s-0.3-0.2-0.5-0.3c-0.1-0.1-0.3-0.2-0.6-0.3l-1.3-0.6c-1.2-0.5-1.9-1.3-1.9-2.4c0-0.7,0.3-1.3,0.8-1.7
			c0.6-0.5,1.2-0.7,2.1-0.7c1.1,0,2,0.4,2.7,1.1l-0.6,0.8c-0.6-0.6-1.3-0.9-2.1-0.9c-0.5,0-0.9,0.1-1.3,0.4s-0.5,0.6-0.5,1
			c0,0.2,0,0.4,0.1,0.6s0.2,0.3,0.4,0.4c0.2,0.1,0.3,0.2,0.5,0.3s0.3,0.1,0.6,0.3l1.3,0.6c0.6,0.3,1.1,0.6,1.4,1
			c0.3,0.4,0.5,0.9,0.5,1.5c0,0.7-0.3,1.4-0.9,1.9c-0.6,0.5-1.3,0.7-2.3,0.7C1047.1,666.7,1046,666.3,1045.2,665.4z"/>
		<path class="st2" d="M1052.6,663.2c0-1.1,0.3-1.9,0.9-2.6c0.6-0.7,1.3-1,2.2-1c0.9,0,1.5,0.3,2,0.9s0.7,1.4,0.7,2.3
			c0,0.3,0,0.5,0,0.6h-4.6c0,0.7,0.3,1.3,0.7,1.7c0.4,0.4,0.9,0.6,1.6,0.6c0.6,0,1.1-0.2,1.7-0.5l0.4,0.8c-0.7,0.5-1.5,0.7-2.2,0.7
			c-0.9,0-1.7-0.3-2.3-1C1053,665.1,1052.6,664.3,1052.6,663.2z M1053.8,662.7h3.6c0-0.7-0.1-1.2-0.4-1.6c-0.3-0.4-0.7-0.6-1.2-0.6
			c-0.5,0-0.9,0.2-1.3,0.6C1054.1,661.5,1053.8,662,1053.8,662.7z"/>
		<path class="st2" d="M1060.1,669.4v-9.7h1l0.1,0.8h0c0.8-0.6,1.5-1,2.2-1c0.9,0,1.5,0.3,2,0.9s0.7,1.5,0.7,2.5
			c0,1.1-0.3,2-0.9,2.7c-0.6,0.7-1.3,1-2.1,1c-0.6,0-1.2-0.3-1.9-0.8l0,1.2v2.3H1060.1z M1061.3,665.1c0.6,0.5,1.1,0.7,1.7,0.7
			c0.6,0,1-0.2,1.4-0.7c0.4-0.5,0.5-1.1,0.5-2c0-1.7-0.6-2.5-1.8-2.5c-0.5,0-1.1,0.3-1.8,0.9V665.1z"/>
		<path class="st2" d="M1070.1,658.8c0.8-0.9,1.7-1.4,2.7-1.4c0.8,0,1.5,0.2,1.9,0.7c0.5,0.5,0.7,1.1,0.7,1.9c0,0.8-0.3,1.6-0.9,2.4
			c-0.6,0.8-1.5,1.9-2.8,3.2c0.7-0.1,1.2-0.1,1.5-0.1h2.6v1h-5.8v-0.7c0.8-0.8,1.4-1.4,1.8-1.9c0.4-0.5,0.9-0.9,1.3-1.5
			c0.4-0.5,0.7-1,0.9-1.3c0.2-0.4,0.3-0.7,0.3-1.1c0-0.5-0.1-1-0.4-1.3c-0.3-0.3-0.7-0.5-1.3-0.5c-0.7,0-1.3,0.4-1.9,1.1
			L1070.1,658.8z"/>
		<path class="st2" d="M1077.9,665.5c-0.5-0.8-0.8-2-0.8-3.4s0.3-2.6,0.8-3.4c0.5-0.8,1.2-1.2,2.1-1.2c0.9,0,1.6,0.4,2.1,1.2
			c0.5,0.8,0.8,1.9,0.8,3.4s-0.3,2.6-0.8,3.4c-0.5,0.8-1.2,1.2-2.1,1.2C1079.1,666.7,1078.4,666.3,1077.9,665.5z M1078.2,662.1
			c0,1.3,0.2,2.2,0.5,2.8c0.3,0.6,0.7,0.9,1.3,0.9c0.5,0,1-0.3,1.3-0.9s0.5-1.6,0.5-2.8c0-2.5-0.6-3.7-1.7-3.7
			C1078.8,658.4,1078.2,659.6,1078.2,662.1z"/>
		<path class="st2" d="M1084.6,666.6v-0.9h2V659h-1.6v-0.8c0.7-0.1,1.4-0.3,1.9-0.6h0.9v8h1.8v0.9H1084.6z"/>
		<path class="st2" d="M1091,664.3c0-1,0.6-1.8,1.7-2.4v-0.1c-0.8-0.6-1.3-1.3-1.3-2.1c0-0.7,0.2-1.2,0.7-1.7s1.1-0.6,1.8-0.6
			c0.8,0,1.4,0.2,1.8,0.7c0.5,0.4,0.7,1,0.7,1.7c0,0.4-0.1,0.8-0.4,1.2s-0.5,0.7-0.9,0.9v0.1c0.5,0.3,0.9,0.6,1.1,0.9
			c0.3,0.4,0.4,0.8,0.4,1.3c0,0.7-0.3,1.2-0.8,1.7c-0.5,0.5-1.2,0.7-2.1,0.7c-0.8,0-1.5-0.2-2.1-0.7
			C1091.3,665.6,1091,665,1091,664.3z M1092.1,664.2c0,0.5,0.2,0.9,0.5,1.2c0.4,0.3,0.8,0.5,1.4,0.5c0.5,0,0.9-0.1,1.3-0.4
			s0.5-0.7,0.5-1.1c0-0.2,0-0.4-0.1-0.6s-0.2-0.3-0.3-0.5c-0.1-0.1-0.3-0.2-0.6-0.4c-0.3-0.1-0.5-0.2-0.6-0.3s-0.4-0.2-0.8-0.3
			C1092.5,662.8,1092.1,663.4,1092.1,664.2z M1092.5,659.8c0,0.5,0.2,0.8,0.5,1.1s0.9,0.5,1.5,0.8c0.6-0.6,0.9-1.2,0.9-1.8
			c0-0.5-0.1-0.8-0.4-1.1c-0.3-0.3-0.7-0.4-1.1-0.4c-0.4,0-0.8,0.1-1,0.4S1092.5,659.3,1092.5,659.8z"/>
	</g>
	<g class="st1">
		<path class="st2" d="M1142.9,666.6v-9.2h1.2l3.3,5.8l1,1.9h0.1c-0.1-1.6-0.2-2.6-0.2-2.9c0,0,0,0,0,0v-4.7h1.1v9.2h-1.2l-3.3-5.8
			l-1-1.9h-0.1c0.1,1.5,0.1,2.5,0.1,2.9v4.8H1142.9z"/>
		<path class="st2" d="M1151.3,663.2c0-1.1,0.3-2,0.9-2.6s1.3-1,2.2-1c0.9,0,1.6,0.3,2.2,1s0.9,1.5,0.9,2.6c0,1.1-0.3,2-0.9,2.6
			c-0.6,0.6-1.4,1-2.2,1c-0.9,0-1.6-0.3-2.2-1C1151.6,665.1,1151.3,664.3,1151.3,663.2z M1152.5,663.2c0,0.8,0.2,1.4,0.5,1.9
			c0.4,0.5,0.8,0.7,1.4,0.7c0.6,0,1.1-0.2,1.4-0.7c0.4-0.5,0.5-1.1,0.5-1.9c0-0.8-0.2-1.4-0.5-1.9c-0.4-0.5-0.8-0.7-1.4-0.7
			c-0.6,0-1.1,0.2-1.4,0.7C1152.7,661.7,1152.5,662.4,1152.5,663.2z"/>
		<path class="st2" d="M1158.5,659.8h1.2l1.3,3.9c0.1,0.4,0.3,1.1,0.6,2h0.1c0-0.1,0.1-0.4,0.3-0.9c0.2-0.5,0.3-0.8,0.3-1.1l1.3-3.9
			h1.1l-2.4,6.8h-1.3L1158.5,659.8z"/>
		<path class="st2" d="M1168.2,658.8c0.8-0.9,1.7-1.4,2.7-1.4c0.8,0,1.5,0.2,1.9,0.7c0.5,0.5,0.7,1.1,0.7,1.9c0,0.8-0.3,1.6-0.9,2.4
			c-0.6,0.8-1.5,1.9-2.8,3.2c0.7-0.1,1.2-0.1,1.5-0.1h2.6v1h-5.8v-0.7c0.8-0.8,1.4-1.4,1.8-1.9c0.4-0.5,0.9-0.9,1.3-1.5
			c0.4-0.5,0.7-1,0.9-1.3c0.2-0.4,0.3-0.7,0.3-1.1c0-0.5-0.1-1-0.4-1.3c-0.3-0.3-0.7-0.5-1.3-0.5c-0.7,0-1.3,0.4-1.9,1.1
			L1168.2,658.8z"/>
		<path class="st2" d="M1176,665.5c-0.5-0.8-0.8-2-0.8-3.4s0.3-2.6,0.8-3.4c0.5-0.8,1.2-1.2,2.1-1.2c0.9,0,1.6,0.4,2.1,1.2
			c0.5,0.8,0.8,1.9,0.8,3.4s-0.3,2.6-0.8,3.4c-0.5,0.8-1.2,1.2-2.1,1.2C1177.2,666.7,1176.5,666.3,1176,665.5z M1176.3,662.1
			c0,1.3,0.2,2.2,0.5,2.8c0.3,0.6,0.7,0.9,1.3,0.9c0.5,0,1-0.3,1.3-0.9c0.3-0.6,0.5-1.6,0.5-2.8c0-2.5-0.6-3.7-1.7-3.7
			C1176.9,658.4,1176.3,659.6,1176.3,662.1z"/>
		<path class="st2" d="M1182.7,666.6v-0.9h2V659h-1.6v-0.8c0.7-0.1,1.4-0.3,1.9-0.6h0.9v8h1.8v0.9H1182.7z"/>
		<path class="st2" d="M1189.1,664.3c0-1,0.6-1.8,1.7-2.4v-0.1c-0.8-0.6-1.3-1.3-1.3-2.1c0-0.7,0.2-1.2,0.7-1.7
			c0.5-0.4,1.1-0.6,1.8-0.6c0.8,0,1.4,0.2,1.8,0.7s0.7,1,0.7,1.7c0,0.4-0.1,0.8-0.4,1.2s-0.5,0.7-0.9,0.9v0.1
			c0.5,0.3,0.9,0.6,1.1,0.9s0.4,0.8,0.4,1.3c0,0.7-0.3,1.2-0.8,1.7c-0.5,0.5-1.2,0.7-2.1,0.7c-0.8,0-1.5-0.2-2.1-0.7
			C1189.4,665.6,1189.1,665,1189.1,664.3z M1190.1,664.2c0,0.5,0.2,0.9,0.5,1.2c0.4,0.3,0.8,0.5,1.4,0.5c0.5,0,0.9-0.1,1.3-0.4
			c0.3-0.3,0.5-0.7,0.5-1.1c0-0.2,0-0.4-0.1-0.6s-0.2-0.3-0.3-0.5c-0.1-0.1-0.3-0.2-0.6-0.4s-0.5-0.2-0.6-0.3
			c-0.1-0.1-0.4-0.2-0.8-0.3C1190.5,662.8,1190.1,663.4,1190.1,664.2z M1190.6,659.8c0,0.5,0.2,0.8,0.5,1.1c0.3,0.3,0.9,0.5,1.5,0.8
			c0.6-0.6,0.9-1.2,0.9-1.8c0-0.5-0.1-0.8-0.4-1.1c-0.3-0.3-0.7-0.4-1.1-0.4c-0.4,0-0.8,0.1-1,0.4
			C1190.7,659,1190.6,659.3,1190.6,659.8z"/>
	</g>
	<g class="st1">
		<path class="st2" d="M1239.4,665.3l0.8-0.6c0.4,0.7,0.9,1,1.6,1c0,0,0,0,0,0c0.5,0,0.9-0.2,1.1-0.5c0.2-0.3,0.4-0.8,0.4-1.5v-6.4
			h1.1v6.5c0,0.8-0.2,1.5-0.6,2.1c-0.4,0.5-1,0.8-1.9,0.8C1240.7,666.7,1239.9,666.3,1239.4,665.3z"/>
		<path class="st2" d="M1246.4,664.8c0-0.7,0.3-1.3,1-1.7s1.7-0.7,3.2-0.8c0-1.2-0.5-1.7-1.4-1.7c-0.6,0-1.3,0.2-2,0.7l-0.5-0.8
			c0.9-0.6,1.8-0.9,2.7-0.9c0.8,0,1.4,0.2,1.8,0.7c0.4,0.5,0.6,1.2,0.6,2.1v4.2h-1l-0.1-0.8h0c-0.8,0.7-1.6,1-2.3,1
			c-0.6,0-1.1-0.2-1.4-0.5C1246.6,665.9,1246.4,665.4,1246.4,664.8z M1247.5,664.7c0,0.4,0.1,0.6,0.3,0.8c0.2,0.2,0.5,0.3,0.9,0.3
			c0.6,0,1.2-0.3,1.9-0.9V663c-1.1,0.1-1.9,0.3-2.3,0.6S1247.5,664.3,1247.5,664.7z"/>
		<path class="st2" d="M1253.9,666.6v-6.8h1l0.1,1h0c0.8-0.8,1.5-1.1,2.3-1.1c1.4,0,2.1,0.9,2.1,2.7v4.3h-1.1v-4.2
			c0-0.6-0.1-1.1-0.3-1.4s-0.5-0.4-1-0.4c-0.3,0-0.6,0.1-0.9,0.2c-0.3,0.2-0.6,0.4-1,0.8v4.9H1253.9z"/>
		<path class="st2" d="M1263.7,658.8c0.8-0.9,1.7-1.4,2.7-1.4c0.8,0,1.5,0.2,1.9,0.7c0.5,0.5,0.7,1.1,0.7,1.9c0,0.8-0.3,1.6-0.9,2.4
			c-0.6,0.8-1.5,1.9-2.8,3.2c0.7-0.1,1.2-0.1,1.5-0.1h2.6v1h-5.8v-0.7c0.8-0.8,1.4-1.4,1.8-1.9c0.4-0.5,0.9-0.9,1.3-1.5
			c0.4-0.5,0.7-1,0.9-1.3c0.2-0.4,0.3-0.7,0.3-1.1c0-0.5-0.1-1-0.4-1.3c-0.3-0.3-0.7-0.5-1.3-0.5c-0.7,0-1.3,0.4-1.9,1.1
			L1263.7,658.8z"/>
		<path class="st2" d="M1271.5,665.5c-0.5-0.8-0.8-2-0.8-3.4s0.3-2.6,0.8-3.4c0.5-0.8,1.2-1.2,2.1-1.2c0.9,0,1.6,0.4,2.1,1.2
			c0.5,0.8,0.8,1.9,0.8,3.4s-0.3,2.6-0.8,3.4s-1.2,1.2-2.1,1.2C1272.8,666.7,1272,666.3,1271.5,665.5z M1271.9,662.1
			c0,1.3,0.2,2.2,0.5,2.8s0.7,0.9,1.3,0.9c0.5,0,1-0.3,1.3-0.9c0.3-0.6,0.5-1.6,0.5-2.8c0-2.5-0.6-3.7-1.7-3.7
			C1272.5,658.4,1271.9,659.6,1271.9,662.1z"/>
		<path class="st2" d="M1278.2,666.6v-0.9h2V659h-1.6v-0.8c0.7-0.1,1.4-0.3,1.9-0.6h0.9v8h1.8v0.9H1278.2z"/>
		<path class="st2" d="M1284.6,660.3c0-0.8,0.3-1.5,0.8-2.1s1.1-0.8,1.9-0.8c0.9,0,1.7,0.4,2.2,1.1c0.6,0.7,0.9,1.8,0.9,3.2
			c0,1.7-0.3,2.9-1,3.7c-0.6,0.8-1.5,1.2-2.4,1.2c-0.9,0-1.6-0.3-2.2-1l0.6-0.7c0.4,0.5,0.9,0.7,1.5,0.7c0.7,0,1.3-0.3,1.7-0.9
			c0.4-0.6,0.7-1.6,0.7-2.9c-0.3,0.4-0.6,0.6-1,0.8c-0.4,0.2-0.7,0.3-1.1,0.3c-0.8,0-1.4-0.2-1.9-0.7
			C1284.9,661.9,1284.6,661.2,1284.6,660.3z M1285.7,660.3c0,0.6,0.1,1.1,0.4,1.4c0.3,0.3,0.7,0.5,1.2,0.5c0.7,0,1.3-0.4,1.9-1.2
			c-0.2-1.8-0.8-2.7-2-2.7c-0.4,0-0.8,0.2-1.1,0.5C1285.9,659.3,1285.7,659.8,1285.7,660.3z"/>
	</g>
	<g class="st1">
		<path class="st2" d="M1337.4,666.6v-9.2h1.4l1.8,4.9l0.7,1.9h0.1l0.6-1.9l1.8-4.9h1.4v9.2h-1.1v-5.1c0-0.3,0.1-1.2,0.2-2.7h-0.1
			l-0.7,2l-1.8,4.8h-0.7l-1.8-4.8l-0.7-2h-0.1c0.1,1.4,0.1,2.3,0.1,2.7v5.1H1337.4z"/>
		<path class="st2" d="M1347.1,664.8c0-0.7,0.3-1.3,1-1.7c0.7-0.4,1.7-0.7,3.2-0.8c0-1.2-0.5-1.7-1.4-1.7c-0.6,0-1.3,0.2-2,0.7
			l-0.5-0.8c0.9-0.6,1.8-0.9,2.7-0.9c0.8,0,1.4,0.2,1.8,0.7c0.4,0.5,0.6,1.2,0.6,2.1v4.2h-1l-0.1-0.8h0c-0.8,0.7-1.6,1-2.3,1
			c-0.6,0-1.1-0.2-1.4-0.5C1347.3,665.9,1347.1,665.4,1347.1,664.8z M1348.3,664.7c0,0.4,0.1,0.6,0.3,0.8c0.2,0.2,0.5,0.3,0.9,0.3
			c0.6,0,1.2-0.3,1.9-0.9V663c-1.1,0.1-1.9,0.3-2.3,0.6S1348.3,664.3,1348.3,664.7z"/>
		<path class="st2" d="M1354.6,666.6v-6.8h1l0.1,1.2h0c0.2-0.4,0.5-0.8,0.9-1s0.7-0.4,1.1-0.4c0.3,0,0.5,0,0.7,0.1l-0.2,1
			c-0.2-0.1-0.5-0.1-0.7-0.1c-0.3,0-0.6,0.1-0.9,0.4c-0.3,0.3-0.6,0.7-0.8,1.2v4.4H1354.6z"/>
		<path class="st2" d="M1361.7,658.8c0.8-0.9,1.7-1.4,2.7-1.4c0.8,0,1.5,0.2,1.9,0.7c0.5,0.5,0.7,1.1,0.7,1.9c0,0.8-0.3,1.6-0.9,2.4
			c-0.6,0.8-1.5,1.9-2.8,3.2c0.7-0.1,1.2-0.1,1.5-0.1h2.6v1h-5.8v-0.7c0.8-0.8,1.4-1.4,1.8-1.9c0.4-0.5,0.9-0.9,1.3-1.5
			c0.4-0.5,0.7-1,0.9-1.3c0.2-0.4,0.3-0.7,0.3-1.1c0-0.5-0.1-1-0.4-1.3c-0.3-0.3-0.7-0.5-1.3-0.5c-0.7,0-1.3,0.4-1.9,1.1
			L1361.7,658.8z"/>
		<path class="st2" d="M1369.5,665.5c-0.5-0.8-0.8-2-0.8-3.4s0.3-2.6,0.8-3.4c0.5-0.8,1.2-1.2,2.1-1.2c0.9,0,1.6,0.4,2.1,1.2
			c0.5,0.8,0.8,1.9,0.8,3.4s-0.3,2.6-0.8,3.4c-0.5,0.8-1.2,1.2-2.1,1.2C1370.7,666.7,1370,666.3,1369.5,665.5z M1369.8,662.1
			c0,1.3,0.2,2.2,0.5,2.8c0.3,0.6,0.7,0.9,1.3,0.9c0.5,0,1-0.3,1.3-0.9c0.3-0.6,0.5-1.6,0.5-2.8c0-2.5-0.6-3.7-1.7-3.7
			C1370.4,658.4,1369.8,659.6,1369.8,662.1z"/>
		<path class="st2" d="M1376.2,666.6v-0.9h2V659h-1.6v-0.8c0.7-0.1,1.4-0.3,1.9-0.6h0.9v8h1.8v0.9H1376.2z"/>
		<path class="st2" d="M1382.6,660.3c0-0.8,0.3-1.5,0.8-2.1s1.1-0.8,1.9-0.8c0.9,0,1.7,0.4,2.2,1.1c0.6,0.7,0.9,1.8,0.9,3.2
			c0,1.7-0.3,2.9-1,3.7c-0.6,0.8-1.5,1.2-2.4,1.2c-0.9,0-1.6-0.3-2.2-1l0.6-0.7c0.4,0.5,0.9,0.7,1.5,0.7c0.7,0,1.3-0.3,1.7-0.9
			c0.4-0.6,0.7-1.6,0.7-2.9c-0.3,0.4-0.6,0.6-1,0.8c-0.4,0.2-0.7,0.3-1.1,0.3c-0.8,0-1.4-0.2-1.9-0.7
			C1382.8,661.9,1382.6,661.2,1382.6,660.3z M1383.7,660.3c0,0.6,0.1,1.1,0.4,1.4c0.3,0.3,0.7,0.5,1.2,0.5c0.7,0,1.3-0.4,1.9-1.2
			c-0.2-1.8-0.8-2.7-2-2.7c-0.4,0-0.8,0.2-1.1,0.5C1383.8,659.3,1383.7,659.8,1383.7,660.3z"/>
	</g>
	<g class="st1">
		<path class="st2" d="M1433,666.6v-9.2h1.4l1.8,4.9l0.7,1.9h0.1l0.6-1.9l1.8-4.9h1.4v9.2h-1.1v-5.1c0-0.3,0-1.2,0.2-2.7h-0.1
			l-0.7,2l-1.8,4.8h-0.7l-1.8-4.8l-0.7-2h-0.1c0.1,1.4,0.1,2.3,0.1,2.7v5.1H1433z"/>
		<path class="st2" d="M1442.7,664.8c0-0.7,0.3-1.3,1-1.7s1.7-0.7,3.2-0.8c0-1.2-0.5-1.7-1.4-1.7c-0.6,0-1.3,0.2-2,0.7l-0.5-0.8
			c0.9-0.6,1.8-0.9,2.7-0.9c0.8,0,1.4,0.2,1.8,0.7c0.4,0.5,0.6,1.2,0.6,2.1v4.2h-1l-0.1-0.8h0c-0.8,0.7-1.6,1-2.3,1
			c-0.6,0-1.1-0.2-1.4-0.5C1442.9,665.9,1442.7,665.4,1442.7,664.8z M1443.8,664.7c0,0.4,0.1,0.6,0.3,0.8c0.2,0.2,0.5,0.3,0.9,0.3
			c0.6,0,1.2-0.3,1.9-0.9V663c-1.1,0.1-1.9,0.3-2.3,0.6S1443.8,664.3,1443.8,664.7z"/>
		<path class="st2" d="M1449.2,659.8h1.2l1.4,3.8c0.2,0.5,0.4,1.2,0.7,1.9h0.1c0.1-0.2,0.2-0.6,0.3-1.1c0.1-0.5,0.2-0.8,0.3-0.9
			l1.2-3.8h1.1l-2.5,7.4c-0.3,0.7-0.6,1.3-1,1.7s-0.9,0.6-1.6,0.6c-0.3,0-0.5,0-0.8-0.1l0.2-0.9c0.2,0.1,0.4,0.1,0.5,0.1
			c0.7,0,1.2-0.5,1.5-1.5l0.2-0.5L1449.2,659.8z"/>
		<path class="st2" d="M1458.9,658.8c0.8-0.9,1.7-1.4,2.7-1.4c0.8,0,1.5,0.2,1.9,0.7c0.5,0.5,0.7,1.1,0.7,1.9c0,0.8-0.3,1.6-0.9,2.4
			c-0.6,0.8-1.5,1.9-2.8,3.2c0.7-0.1,1.2-0.1,1.5-0.1h2.6v1h-5.8v-0.7c0.8-0.8,1.4-1.4,1.8-1.9c0.4-0.5,0.9-0.9,1.3-1.5
			c0.4-0.5,0.7-1,0.9-1.3c0.2-0.4,0.3-0.7,0.3-1.1c0-0.5-0.1-1-0.4-1.3c-0.3-0.3-0.7-0.5-1.3-0.5c-0.7,0-1.3,0.4-1.9,1.1
			L1458.9,658.8z"/>
		<path class="st2" d="M1466.7,665.5c-0.5-0.8-0.8-2-0.8-3.4s0.3-2.6,0.8-3.4c0.5-0.8,1.2-1.2,2.1-1.2c0.9,0,1.6,0.4,2.1,1.2
			c0.5,0.8,0.8,1.9,0.8,3.4s-0.3,2.6-0.8,3.4s-1.2,1.2-2.1,1.2C1467.9,666.7,1467.2,666.3,1466.7,665.5z M1467.1,662.1
			c0,1.3,0.2,2.2,0.5,2.8s0.7,0.9,1.3,0.9c0.5,0,1-0.3,1.3-0.9c0.3-0.6,0.5-1.6,0.5-2.8c0-2.5-0.6-3.7-1.7-3.7
			C1467.7,658.4,1467.1,659.6,1467.1,662.1z"/>
		<path class="st2" d="M1473.4,666.6v-0.9h2V659h-1.6v-0.8c0.7-0.1,1.4-0.3,1.9-0.6h0.9v8h1.8v0.9H1473.4z"/>
		<path class="st2" d="M1479.8,660.3c0-0.8,0.3-1.5,0.8-2.1s1.1-0.8,1.9-0.8c0.9,0,1.7,0.4,2.2,1.1c0.6,0.7,0.9,1.8,0.9,3.2
			c0,1.7-0.3,2.9-1,3.7c-0.6,0.8-1.5,1.2-2.4,1.2c-0.9,0-1.6-0.3-2.2-1l0.6-0.7c0.4,0.5,0.9,0.7,1.5,0.7c0.7,0,1.3-0.3,1.7-0.9
			c0.4-0.6,0.7-1.6,0.7-2.9c-0.3,0.4-0.6,0.6-1,0.8c-0.4,0.2-0.7,0.3-1.1,0.3c-0.8,0-1.4-0.2-1.9-0.7
			C1480,661.9,1479.8,661.2,1479.8,660.3z M1480.9,660.3c0,0.6,0.1,1.1,0.4,1.4c0.3,0.3,0.7,0.5,1.2,0.5c0.7,0,1.3-0.4,1.9-1.2
			c-0.2-1.8-0.8-2.7-2-2.7c-0.4,0-0.8,0.2-1.1,0.5C1481.1,659.3,1480.9,659.8,1480.9,660.3z"/>
	</g>
	<rect x="938.6" y="370" class="st3" width="550.9" height="1"/>
	<rect x="938.6" y="421" class="st3" width="550.9" height="1"/>
	<rect x="938.6" y="472" class="st3" width="550.9" height="1"/>
	<rect x="938.6" y="523" class="st3" width="550.9" height="1"/>
	<rect x="938.6" y="574" class="st3" width="550.9" height="1"/>
	<rect x="938.6" y="625" class="st3" width="550.9" height="1"/>
	<path class="st0" d="M1202.2,375h70c2.8,0,5,2.2,5,5v30c0,2.8-2.2,5-5,5h-70c-2.8,0-5-2.2-5-5v-30
		C1197.2,377.2,1199.5,375,1202.2,375z"/>
	<path class="st0" d="M1240.6,414.3l-3.3,4.1c-0.1,0.2-0.4,0.2-0.5,0.1c0,0-0.1-0.1-0.1-0.1l-3.3-4.1c-0.2-0.2-0.1-0.4,0.2-0.4h6.9
		C1240.7,413.9,1240.8,414.1,1240.6,414.3z"/>
	<g class="st1">
		<path class="st4" d="M1229.2,401h-6.8v-1.4l3.2-3.4c0.4-0.5,0.8-0.9,1-1.3s0.3-0.7,0.3-1c0-0.4-0.1-0.8-0.3-1
			c-0.2-0.3-0.5-0.4-1-0.4c-0.4,0-0.8,0.2-1.1,0.5c-0.3,0.3-0.4,0.7-0.4,1.2h-2c0-0.6,0.1-1.2,0.4-1.7c0.3-0.5,0.7-0.9,1.2-1.2
			c0.5-0.3,1.1-0.4,1.8-0.4c1,0,1.8,0.2,2.4,0.7s0.9,1.2,0.9,2.1c0,0.5-0.1,1-0.4,1.5c-0.3,0.5-0.7,1.1-1.3,1.8l-2.3,2.4h4.3V401z"
			/>
		<path class="st4" d="M1232.4,395.1h1.1c0.5,0,0.9-0.1,1.1-0.4c0.2-0.3,0.4-0.6,0.4-1c0-0.4-0.1-0.7-0.4-0.9s-0.6-0.3-1-0.3
			c-0.4,0-0.7,0.1-1,0.3c-0.3,0.2-0.4,0.5-0.4,0.8h-2c0-0.5,0.1-1,0.4-1.4c0.3-0.4,0.7-0.7,1.2-1c0.5-0.2,1.1-0.3,1.7-0.3
			c1.1,0,1.9,0.3,2.5,0.8c0.6,0.5,0.9,1.2,0.9,2.1c0,0.5-0.1,0.9-0.4,1.3c-0.3,0.4-0.6,0.7-1.1,0.9c0.6,0.2,1,0.5,1.3,0.9
			c0.3,0.4,0.4,0.9,0.4,1.4c0,0.9-0.3,1.6-1,2.1c-0.6,0.5-1.5,0.8-2.6,0.8c-1,0-1.8-0.3-2.4-0.8c-0.6-0.5-0.9-1.2-0.9-2.1h2
			c0,0.4,0.1,0.7,0.4,0.9s0.6,0.4,1,0.4c0.5,0,0.8-0.1,1.1-0.4c0.3-0.2,0.4-0.6,0.4-1c0-1-0.5-1.5-1.6-1.5h-1V395.1z"/>
		<path class="st4" d="M1244.2,397.3h1.1v1.6h-1.1v2.2h-2v-2.2h-4.1l-0.1-1.2l4.1-6.6h2V397.3z M1240.1,397.3h2.2v-3.5l-0.1,0.2
			L1240.1,397.3z"/>
		<path class="st4" d="M1246.7,396.1l0.6-5.1h5.6v1.6h-4l-0.2,2.1c0.5-0.3,1-0.4,1.5-0.4c0.9,0,1.7,0.3,2.2,0.9
			c0.5,0.6,0.8,1.4,0.8,2.5c0,0.6-0.1,1.2-0.4,1.7c-0.3,0.5-0.7,0.9-1.2,1.2c-0.5,0.3-1.1,0.4-1.8,0.4c-0.6,0-1.2-0.1-1.7-0.4
			c-0.5-0.2-0.9-0.6-1.2-1c-0.3-0.4-0.5-0.9-0.5-1.5h2c0,0.4,0.2,0.7,0.4,1c0.2,0.2,0.6,0.3,1,0.3c0.4,0,0.8-0.2,1-0.5
			c0.2-0.3,0.4-0.8,0.4-1.4c0-0.6-0.1-1-0.4-1.3c-0.3-0.3-0.7-0.5-1.2-0.5c-0.5,0-0.9,0.1-1.1,0.4l-0.2,0.2L1246.7,396.1z"/>
	</g>
	<path class="st5" d="M1488.7,496c-23.4-28.6-34.4-51.9-62-51.9s-18.1,15.1-58.3,15.1s-43.8-6.6-59.8-6.6c-16,0-43.9,37.6-59.9,37.6
		s-48.3-31-65.3-31c-17,0-32.2,53-58.6,53c-26.3,0-41.8-22-60.6-22c-18.8,0-37.1,20.9-60.9,22c-23.9,1.1-64.8-16.2-64.8-16.2"/>
	<g transform="matrix(1, 0, 0, 1, 911, 337)">
		<path class="st6" d="M577.3,142.5C515.7,129.7,543.2,79,515.7,79c-27.6,0-18.1,35.8-58.3,35.8s-43.7,40.8-59.8,40.8
			s-36.3-45.1-64.8-45.1s-43.4,33.3-60.4,33.3s-32.2-33.3-58.6-33.3s-41.8,82.7-60.6,82.7s-37.1-38.7-60.9-37.6S27.6,199,27.6,199"
			/>
	</g>
	<g transform="translate(597.972 176)">
		<path class="st0" d="M640,279c-2.1,0-4.2-0.8-5.7-2.3c-1.5-1.5-2.3-3.5-2.3-5.7c0-2.1,0.8-4.2,2.3-5.7s3.5-2.3,5.7-2.3
			c2.1,0,4.2,0.8,5.7,2.3c1.5,1.5,2.3,3.5,2.3,5.7c0,2.1-0.8,4.2-2.3,5.7C644.2,278.2,642.1,279,640,279z"/>
		<path class="st7" d="M640,265c-1.6,0-3.1,0.6-4.2,1.8c-1.1,1.1-1.8,2.6-1.8,4.2s0.6,3.1,1.8,4.2c1.1,1.1,2.6,1.8,4.2,1.8
			c1.6,0,3.1-0.6,4.2-1.8c1.1-1.1,1.8-2.6,1.8-4.2s-0.6-3.1-1.8-4.2C643.1,265.6,641.6,265,640,265 M640,261c5.5,0,10,4.5,10,10
			c0,5.5-4.5,10-10,10c-5.5,0-10-4.5-10-10C630,265.5,634.5,261,640,261z"/>
	</g>
	<g transform="translate(597.972 176)" class="st8">
		
			<radialGradient id="SVGID_1_" cx="953.028" cy="248.0001" r="20.002" gradientTransform="matrix(1 0 0 -1 -313.028 519)" gradientUnits="userSpaceOnUse">
			<stop  offset="0" style="stop-color:#74AAF8"/>
			<stop  offset="1" style="stop-color:#4072EE;stop-opacity:0.2"/>
		</radialGradient>
		<path class="st9" d="M640,290.5c-2.6,0-5.2-0.5-7.6-1.5c-2.3-1-4.4-2.4-6.2-4.2s-3.2-3.9-4.2-6.2c-1-2.4-1.5-5-1.5-7.6
			s0.5-5.2,1.5-7.6c1-2.3,2.4-4.4,4.2-6.2c1.8-1.8,3.9-3.2,6.2-4.2c2.4-1,5-1.5,7.6-1.5s5.2,0.5,7.6,1.5c2.3,1,4.4,2.4,6.2,4.2
			c1.8,1.8,3.2,3.9,4.2,6.2c1,2.4,1.5,5,1.5,7.6s-0.5,5.2-1.5,7.6c-1,2.3-2.4,4.4-4.2,6.2s-3.9,3.2-6.2,4.2
			C645.2,290,642.6,290.5,640,290.5z"/>
		<path class="st7" d="M640,252c-5.1,0-9.9,2-13.4,5.6c-3.6,3.6-5.6,8.4-5.6,13.4s2,9.9,5.6,13.4c3.6,3.6,8.4,5.6,13.4,5.6
			c5.1,0,9.9-2,13.4-5.6c3.6-3.6,5.6-8.4,5.6-13.4s-2-9.9-5.6-13.4C649.9,254,645.1,252,640,252 M640,251c11.1,0,20,8.9,20,20
			s-8.9,20-20,20s-20-8.9-20-20S628.9,251,640,251z"/>
	</g>
</g>
</svg>
