<?xml version="1.0" encoding="utf-8"?>
<!-- Generator: Adobe Illustrator 18.1.0, SVG Export Plug-In . SVG Version: 6.00 Build 0)  -->
<!DOCTYPE svg PUBLIC "-//W3C//DTD SVG 1.1//EN" "http://www.w3.org/Graphics/SVG/1.1/DTD/svg11.dtd">
<svg version="1.1" id="Layer_1" xmlns="http://www.w3.org/2000/svg" xmlns:xlink="http://www.w3.org/1999/xlink" x="0px" y="0px"
	 viewBox="0 0 286 140.3" enable-background="new 0 0 286 140.3" xml:space="preserve">
<path fill="#FFC20E" d="M170.1,110.5c0,15.4-12.8,28-28.5,28H30c-15.7,0-28.5-12.6-28.5-28V30.1c0-15.4,12.8-28,28.5-28h111.6
	c15.7,0,28.5,12.6,28.5,28V110.5z"/>
<path fill="#FFFFFF" d="M146.8,103.3v-4.7h-40.2V79.4l26.1,0c7.6,0,13.8-6,14.1-13.5v-4.7v0h-40.2V41.9l26.2,0
	c7.6-0.1,13.8-6,14-13.5v-4.7H88.1v93h44.6C140.4,116.7,146.6,110.8,146.8,103.3"/>
<path d="M83.5,61.2H43.3V41.9l26.2,0c7.7-0.1,13.9-6.1,14-13.6l0-4.6H24.8v93h4.5c7.6-0.1,13.7-6,14-13.4l0-24.1l27,0
	c7.3-0.5,13.1-6.3,13.2-13.6L83.5,61.2L83.5,61.2z"/>
<path d="M186.3,69.8H182v5.8h4.4c2,0,3.2-1.1,3.2-2.9C189.5,70.9,188.3,69.8,186.3,69.8 M186.1,62.9H182v5.5h4.2
	c1.8,0,3.1-0.9,3.1-2.7C189.3,63.7,187.9,62.9,186.1,62.9 M186.5,77.1h-6.2V61.4h6c2.8,0,4.7,1.6,4.7,4.2c0,1.7-1,3-2.4,3.4
	c1.5,0.6,2.6,1.9,2.6,3.7C191.2,75.6,189.3,77.1,186.5,77.1"/>
<polygon points="194,77.1 194,61.4 204,61.4 204,62.9 195.7,62.9 195.7,68.4 202.7,68.4 202.7,69.9 195.7,69.9 195.7,75.6 204,75.6 
	204,77.1 "/>
<g>
	<path d="M186.3,89.8H182v5.8h4.4c2,0,3.2-1.1,3.2-2.9C189.5,90.9,188.3,89.8,186.3,89.8 M186.1,82.8H182v5.4h4.2
		c1.8,0,3.1-0.9,3.1-2.7S187.9,82.8,186.1,82.8 M186.5,97h-6.2V81.3h6c2.8,0,4.7,1.6,4.7,4.2c0,1.7-1,3-2.4,3.4
		c1.5,0.6,2.6,1.9,2.6,3.7C191.2,95.5,189.3,97,186.5,97"/>
</g>
<polygon points="194,97 194,81.3 204,81.3 204,82.8 195.7,82.8 195.7,88.3 202.7,88.3 202.7,89.8 195.7,89.8 195.7,95.5 204,95.5 
	204,97 "/>
<polygon points="212.4,82.8 212.4,97 210.7,97 210.7,82.8 206.1,82.8 206.1,81.3 217,81.3 217,82.8 "/>
<polygon points="224.9,82.8 224.9,97 223.2,97 223.2,82.8 218.6,82.8 218.6,81.3 229.5,81.3 229.5,82.8 "/>
<polygon points="231.3,97 231.3,81.3 241.2,81.3 241.2,82.8 233,82.8 233,88.3 240,88.3 240,89.8 233,89.8 233,95.5 241.2,95.5 
	241.2,97 "/>
<g>
	<path d="M250.2,82.8h-4.3v5.8h4.3c1.9,0,3.2-0.9,3.2-2.9C253.4,83.8,252.1,82.8,250.2,82.8 M253.4,97l-3.6-7h-3.8v7h-1.7V81.3h6.1
		c2.8,0,4.7,1.7,4.7,4.4c0,2.3-1.4,3.8-3.5,4.2l3.8,7.1H253.4z"/>
</g>
<rect x="180.3" y="101.2" width="1.7" height="15.7"/>
<polygon points="196.3,116.9 187.8,104.3 187.8,116.9 186.1,116.9 186.1,101.2 187.7,101.2 196.2,113.8 196.2,101.2 197.9,101.2 
	197.9,116.9 "/>
<polygon points="203.7,102.7 203.7,108.5 210.7,108.5 210.7,110 203.7,110 203.7,116.9 201.9,116.9 201.9,101.2 211.9,101.2 
	211.9,102.7 "/>
<g>
	<path d="M221.7,103.7c-0.7-0.7-1.7-1.1-2.8-1.1c-1.1,0-2.1,0.4-2.8,1.1c-1,1-1.1,2.1-1.1,5.4c0,3.3,0.1,4.3,1.1,5.4
		c0.7,0.7,1.7,1.1,2.8,1.1c1.1,0,2.1-0.4,2.8-1.1c1-1,1.1-2.1,1.1-5.4C222.9,105.8,222.7,104.7,221.7,103.7 M223.1,115.4
		c-1.1,1.1-2.5,1.6-4.1,1.6c-1.6,0-3-0.6-4.1-1.6c-1.5-1.5-1.5-3-1.5-6.4c0-3.3,0-4.9,1.5-6.4c1.1-1.1,2.5-1.6,4.1-1.6
		c1.6,0,3,0.6,4.1,1.6c1.5,1.5,1.5,3,1.5,6.4C224.6,112.4,224.6,114,223.1,115.4"/>
	<path d="M234,102.7h-4.3v5.8h4.3c1.9,0,3.2-0.9,3.2-2.9C237.2,103.7,235.9,102.7,234,102.7 M237.3,116.9l-3.6-7h-3.8v7h-1.7v-15.7
		h6.1c2.8,0,4.7,1.7,4.7,4.4c0,2.3-1.4,3.8-3.5,4.2l3.8,7.1H237.3z"/>
</g>
<polygon points="254.3,116.9 254.3,105 249.9,114.5 248.4,114.5 244,105 244,116.9 242.3,116.9 242.3,101.2 244,101.2 249.2,112.4 
	254.3,101.2 256,101.2 256,116.9 "/>
<polygon points="260.1,116.9 260.1,101.2 270,101.2 270,102.7 261.8,102.7 261.8,108.3 268.8,108.3 268.8,109.8 261.8,109.8 
	261.8,115.4 270,115.4 270,116.9 "/>
<path d="M281.3,103.9c-0.8-0.8-1.9-1.1-3.1-1.1h-3.5v12.7h3.5c1.2,0,2.3-0.3,3.1-1.1c1.1-1.1,1.1-3.5,1.1-5.4S282.4,105,281.3,103.9
	 M282.5,115.5c-1,0.9-2.4,1.5-4,1.5H273v-15.7h5.5c1.7,0,3.1,0.5,4,1.5c1.7,1.6,1.6,4,1.6,6.2S284.1,113.9,282.5,115.5"/>
</svg>
